<svg xmlns="http://www.w3.org/2000/svg" xmlns:xlink="http://www.w3.org/1999/xlink" width="1708px" height="54px" viewBox="0 0 1708 54"><title>cap-3 2</title><defs><polygon id="path-1" points="1708 0 0 0 0 54 1708 54"></polygon></defs><g id="Page-1" stroke="none" stroke-width="1" fill="none" fill-rule="evenodd"><g id="cap-3-2"><mask id="mask-2" fill="white"><use xlink:href="#path-1"></use></mask><g id="Path"></g><path d="M1708,54.5 L1708,10.0621 C1706.04,10.444 1704.01,11.0087 1705.61,11.7062 C1703.17,12.2956 1700.64,12.341 1698.18,11.8391 C1697.22,12.1773 1697.55,12.2142 1698.05,12.2697 L1698.19,12.2855 L1698.37,12.3078 C1698.77,12.3657 1699.13,12.472 1698.97,12.769 C1697.64,12.221 1696.52,12.3871 1695.36,12.6237 L1694.83,12.7356 C1693.83,12.9413 1692.79,13.1268 1691.56,12.9019 C1693.37,14.5626 1679.18,16.024 1683.45,14.712 C1680.71,15.0442 1675.4,15.3597 1676,13.4333 C1674.17,13.7654 1672.38,12.9683 1672.29,13.4333 C1673.89,13.9141 1672.87,13.9804 1671.79,14.0655 L1671.58,14.0818 L1671.38,14.0991 C1671.18,14.1172 1670.99,14.1379 1670.83,14.164 C1674.15,15.0442 1673.24,15.8247 1673.9,16.9374 C1670.22,18.1165 1667.58,16.0406 1663.52,17.3692 C1663.52,16.7332 1661.91,16.186 1660.26,15.5944 L1659.78,15.424 C1658.92,15.1091 1658.08,14.7785 1657.49,14.4131 C1657.83,14.7951 1653.46,14.8615 1653.77,14.4131 C1652.84,13.3503 1655.78,13.4499 1655.19,12.5033 C1653.41,12.5033 1653.61,12.9517 1651.5,12.8022 L1651.9,13.2673 C1650.67,13.1344 1649.41,13.0846 1648.28,13.0181 L1649.27,12.7192 L1648.84,12.6237 C1646.61,12.1358 1644.43,11.7203 1644.77,10.9091 C1642.4,11.1582 1642.45,10.5769 1641.04,10.5105 C1641.04,10.9091 1640.49,11.125 1639.57,11.2412 C1638.71,10.6375 1637.6,10.4832 1636.6,10.826 L1635.49,10.9755 L1634.38,10.8593 C1632.64,10.835 1630.9,10.713 1629.18,10.4939 C1632.3,10.3112 1630.75,8.36819 1633.56,8.83319 C1632.04,8.6115 1630.67,7.78543 1629.76,6.54138 C1626.02,7.03616 1625.59,6.44972 1625.37,5.85022 L1625.32,5.70068 L1625.29,5.60248 C1625.19,5.32741 1625.04,5.08257 1624.51,4.98035 L1623.79,5.09113 C1622.1,5.34905 1620.5,5.61972 1620.11,6.25909 L1620.49,6.59119 L1619.36,6.49158 C1619.46,6.7905 1619.61,7.05619 1620.87,6.93994 L1621.99,7.03961 C1620.71,7.40497 1620.32,8.16889 1621.77,8.51764 C1622.18,8.51764 1622.9,8.60069 1623.53,8.66711 L1622.43,8.79993 C1622.43,9.2151 1622.28,9.54729 1621.72,9.76318 C1622.18,9.8536 1622.68,9.92834 1623.18,10.0046 L1623.61,10.0707 C1624.88,10.2724 1626.04,10.516 1626.22,11.0917 C1624.74,11.4017 1624.37,11.2535 1624.03,11.1157 L1623.9,11.0654 C1623.65,10.9695 1623.33,10.9124 1622.52,11.0917 L1622.9,11.4405 L1621.77,11.3574 C1619.86,11.6896 1622.4,12.7524 1621.09,12.7856 C1619.78,12.8189 1619.34,12.5697 1619.58,12.1047 C1616.8,11.8888 1618.43,13.0015 1615.89,12.8687 C1615.64,12.445 1613.54,12.3321 1611.13,12.2499 C1611.4,12.1916 1611.57,12.0866 1611.48,11.9371 C1610.88,11.7939 1610.27,11.7137 1609.67,11.6971 C1609.37,11.9429 1609.5,12.1115 1609.81,12.2072 L1609.69,12.2032 C1609.6,12.2002 1609.5,12.1972 1609.41,12.1941 L1608.86,12.1748 C1608.21,12.1514 1607.57,12.1241 1606.97,12.0881 C1605.59,12.5697 1607.42,12.5033 1606.97,13.2673 C1605.74,13.0483 1604.49,12.9924 1603.25,13.1012 C1603.25,13.4666 1602.63,13.6534 1601.96,13.8288 L1601.59,13.9243 C1600.98,14.085 1600.41,14.2615 1600.33,14.5792 C1600.59,14.9996 1601.06,15.0784 1601.54,15.1112 L1601.86,15.1296 C1602.12,15.1446 1602.37,15.1656 1602.59,15.2435 C1600.19,15.8471 1601.13,16.9218 1603.76,17.0867 L1603.79,17.089 L1603.68,17.0854 C1602.19,17.0715 1602.55,17.6031 1601.19,17.6183 C1600.39,17.0536 1596.59,17.0537 1596.01,17.718 C1594.66,16.9042 1594.45,17.1865 1592.29,17.5519 C1589.38,16.6385 1585.16,17.5518 1581.86,16.5554 C1582,16.8246 1581.65,16.9491 1581.24,17.0546 L1581.01,17.111 C1580.78,17.167 1580.55,17.2241 1580.4,17.3027 C1582.59,17.6349 1580.73,18.0335 1581.94,18.4487 C1581.54,18.5002 1580.96,18.5005 1580.36,18.4919 L1579.95,18.4853 L1579.57,18.4791 C1578.5,18.4638 1577.54,18.4783 1577.49,18.7642 C1580.33,19.0133 1577.41,19.744 1579.04,20.4249 C1578.07,20.6367 1577.07,20.737 1576.08,20.7238 C1577.39,21.6894 1576.01,22.1629 1574.46,22.684 L1574.04,22.8276 L1573.76,22.926 C1573.57,22.9924 1573.38,23.0607 1573.21,23.1318 C1576.63,23.5636 1570.63,25.5232 1575.53,25.9218 C1572.31,26.0713 1571.41,25.5897 1570.35,26.0215 C1570.35,27.1176 1570.57,29.758 1569.77,30.522 C1568.69,30.0238 1566.45,30.223 1563.81,29.675 C1561.17,29.127 1559.62,28.0143 1554.85,28.4295 C1554.99,29.0108 1555.04,29.5754 1553.41,29.6252 C1550.11,29.5409 1546.85,28.9816 1543.71,27.9645 C1543.71,28.3797 1543.16,28.5789 1542.25,28.6952 C1542.68,28.0309 1539.14,27.267 1540.69,26.3702 C1539.03,26.1211 1535.89,26.3702 1535.46,25.7557 L1535.46,25.0582 C1538.93,24.8423 1544.34,25.1911 1546.57,24.6099 C1542.5,23.2813 1533.11,21.9527 1523.45,21.2885 C1522.53,22.3181 1521.26,21.77 1518.28,22.0856 C1515.71,20.6408 1512.57,19.6278 1512.2,18.4321 C1506.04,18.183 1499.43,18.3324 1493.65,18.05 C1493.52,18.05 1493.12,17.6183 1492.89,17.5851 C1486.56,16.954 1480.91,17.8342 1480.2,15.4594 C1481.49,15.1827 1482.73,14.6825 1483.85,13.9813 C1482.19,13.7488 1482.51,12.8355 1480.85,12.6196 C1478.26,13.0514 1477.71,12.7358 1474.92,13.2008 C1472.94,11.5401 1474.55,8.70032 1472.49,7.57104 C1472.22,7.41657 1471.48,7.26547 1470.68,7.10248 L1470.25,7.01501 C1468.69,6.68953 1467.18,6.3089 1468.71,5.76086 C1464.9,4.91391 1462.76,4.34927 1461.96,3.51892 C1460.46,3.80301 1458.99,4.22553 1457.56,4.78107 C1456.59,4.73309 1456.07,4.53351 1455.61,4.31451 L1455.4,4.21252 C1454.67,3.85416 1453.95,3.49816 1451.58,3.7016 C1451.58,4.4157 1450.95,4.91392 1449.41,5.16302 L1446.44,5.16302 C1441.08,2.45752 1435.21,0.955432 1429.21,0.762146 C1429.21,1.36 1427.49,1.27459 1425.62,1.20312 L1425.15,1.18597 C1423.9,1.14311 1422.63,1.13223 1421.82,1.35999 C1422.88,0.928201 1421.27,-0.05161 1420.26,-0.5 C1419.41,-0.035003 1416.59,-0.616253 1415.1,0.0646362 C1416.62,0.0646362 1416.61,0.6791 1417.35,0.978027 C1416.6,1.05964 1415.86,1.2268 1415.15,1.47626 C1417.49,4.1666 1408.5,6.6078 1399.73,6.00995 C1398.29,6.4528 1397.27,7.09722 1396.27,7.73938 L1395.71,8.099 L1395.36,8.31787 C1393.83,9.25646 1392.09,10.0491 1388.75,9.99567 C1387.09,11.3574 1386.18,12.9683 1382.98,13.8817 C1381.18,14.0146 1381.31,13.4831 1379.25,13.7156 C1377.59,14.5294 1377.91,15.9576 1373.41,15.941 C1374.9,17.4854 1375.15,18.2328 1372.03,19.2624 L1372.43,19.6111 L1369.24,19.6111 L1370.55,19.3288 C1370.37,19.0797 1369.31,18.7974 1369.06,19.1295 L1369.16,19.6277 L1369.84,20.0595 L1368.49,20.1924 L1367.61,19.8602 C1365.54,20.1425 1367.84,20.8567 1367.61,21.2719 C1358.81,22.4011 1347.57,22.6835 1338,22.9326 C1338,22.6336 1337.04,22.617 1337.24,22.235 C1338.55,21.3881 1340.79,20.8069 1341.6,19.7938 C1337.68,20.1116 1336.24,19.586 1334.87,19.0328 L1334.56,18.905 C1333.25,18.3736 1331.83,17.8746 1328.18,18.1331 C1328.07,18.6459 1326.78,18.8256 1325.5,19.0018 L1325.1,19.0577 C1324.9,19.086 1324.7,19.115 1324.51,19.1461 C1323.75,18.79 1322.77,18.4986 1321.8,18.2063 L1321.38,18.0807 C1319.22,17.4298 1317.22,16.7279 1317.69,15.2601 C1315.36,15.011 1315.74,13.5994 1314.63,12.9517 C1312.27,11.673 1306.81,11.1416 1305.61,9.63031 C1295.65,11.1582 1285.68,11.9387 1278.91,9.63031 C1273.92,10.5935 1276.08,12.221 1270.87,13.0846 C1270.65,13.6326 1271.02,13.998 1271.65,14.2471 C1265.92,15.1272 1273.06,16.2399 1269.56,17.8342 C1266.38,17.037 1263.94,17.4356 1258.43,17.5685 C1258.51,18.9137 1255.21,19.2292 1253.33,20.0263 C1251.26,19.4569 1249.13,19.5383 1246.99,19.6599 L1245.92,19.7213 C1244.68,19.7901 1243.43,19.8381 1242.19,19.744 C1240.66,20.8401 1239.63,20.6407 1235.54,20.8234 C1234.99,21.9195 1236.39,21.4711 1237.07,21.7368 C1234.66,22.2516 1235.41,22.3015 1235.64,23.3975 C1230.01,25.0582 1226.34,22.8329 1219.3,22.9824 C1219.73,23.6531 1218.25,23.7605 1216.74,23.8608 L1216.37,23.8861 C1215.43,23.9505 1214.54,24.0302 1214.17,24.2611 C1208.54,23.082 1195.9,22.4343 1191.17,24.4438 C1190.75,24.4398 1190.34,24.4358 1189.92,24.432 L1188.67,24.4207 C1188.47,24.4188 1188.26,24.4169 1188.05,24.415 L1186.18,24.3979 C1184.31,24.3805 1182.45,24.3614 1180.6,24.3363 L1179.38,24.3187 C1164.67,24.0951 1151.26,23.4267 1145.76,20.0761 C1119.19,21.9029 1094.94,17.9671 1072.3,19.7606 C1072.3,21.0061 1078.15,22.0524 1082.07,22.6502 C1089.16,23.7463 1098.09,23.2979 1103.66,24.6265 C1102.44,24.9752 1103.09,25.7225 1102.98,26.0547 C1102.2,25.7225 1099.88,25.8682 1097.48,26.0405 L1096.76,26.0926 C1094.23,26.2744 1091.78,26.4359 1091.1,26.0547 L1089.99,26.1876 L1090.01,26.168 L1091.38,25.7 C1090.93,25.827 1090.48,25.9731 1090.04,26.1378 L1090.35,25.8222 C1088.61,25.4015 1086.78,25.6011 1085.17,26.3868 L1085.17,25.4402 C1076.1,25.5398 1067.02,24.942 1056.94,25.025 C1049.58,25.025 1041.36,25.5232 1033.22,25.4402 C1029.47,25.4402 1024.67,24.5767 1019.83,24.7427 L1019.57,24.752 L1019.05,24.7693 C1018.61,24.7831 1018.17,24.7951 1017.73,24.805 L1016.93,24.8205 C1016.39,24.8292 1015.86,24.8347 1015.33,24.8363 L1014.81,24.8365 L1014.28,24.8342 L1013.76,24.8289 C1007.12,24.743 1001.74,23.9321 1005.62,21.222 C1001.85,20.8143 998.101,20.1765 994.407,19.3122 L993.676,19.4451 L994.025,18.731 L994.407,19.0797 C998.376,18.803 1002.36,18.9645 1006.3,19.5613 C1007.64,19.8104 1006.3,19.9101 1007.81,20.4747 C1010.98,21.209 1014.28,21.209 1017.46,20.4747 C1018.04,19.7938 1016.4,19.8768 1016.68,19.3122 C1019.25,20.292 1022.77,19.2292 1023.32,18.2494 C1017.44,17.0426 1011.45,16.4361 1005.45,16.4392 C1003.8,15.6753 1000.87,15.3911 997.891,15.1537 L996.996,15.0834 C995.803,14.9905 994.62,14.8981 993.527,14.7785 C991.866,14.5958 990.637,14.0644 989.042,13.9149 C987.132,13.7322 984.624,13.9149 983.096,13.782 C982.582,13.782 982.166,13.151 981.585,13.1012 C977.394,12.6293 973.169,12.5459 968.963,12.8521 C958.611,11.3853 948.188,10.4706 937.739,10.1119 C935.015,12.8022 926.23,10.5769 918.49,10.9423 C918.49,10.4939 917.402,10.4274 916.298,10.3693 L915.858,10.3456 C914.913,10.2914 914.063,10.206 914.006,9.84619 C912.212,9.84619 912.345,10.3112 910.302,10.1451 C908.315,9.84035 905.403,9.80238 902.275,9.7984 L899.697,9.79803 L898.762,9.7962 C894.087,9.78068 889.508,9.65379 887.25,8.68372 L887.568,8.68323 C888.391,8.67978 889.371,8.65047 889.459,8.40137 L888.346,8.30176 L888.711,7.9364 C887.222,7.95225 885.735,8.06314 884.26,8.26849 C883.447,7.106 879.56,7.00637 876.056,6.75726 C875.044,7.63939 873.725,8.08696 872.385,8.00281 C870.316,7.23299 868.302,6.32302 866.357,5.27924 C866.172,8.01819 861.597,9.47166 856.581,10.7796 L855.938,10.9459 L855.293,11.1111 C854.862,11.221 854.43,11.3306 854,11.4405 L854,10.0621 C852.04,10.444 850.014,11.0087 851.608,11.7062 C849.174,12.2956 846.639,12.341 844.185,11.8391 C843.22,12.1773 843.553,12.2142 844.054,12.2697 L844.194,12.2855 L844.366,12.3078 C844.766,12.3657 845.133,12.472 844.965,12.769 C843.636,12.221 842.515,12.3871 841.361,12.6237 L840.825,12.7356 C839.835,12.9413 838.794,13.1268 837.558,12.9019 C839.368,14.5626 825.185,16.024 829.453,14.712 C826.713,15.0442 821.398,15.3597 821.996,13.4333 C820.169,13.7654 818.375,12.9683 818.292,13.4333 C819.887,13.9141 818.868,13.9804 817.786,14.0655 L817.583,14.0818 L817.382,14.0991 C817.184,14.1172 816.994,14.1379 816.831,14.164 C820.152,15.0442 819.239,15.8247 819.903,16.9374 C816.216,18.1165 813.575,16.0406 809.523,17.3692 C809.523,16.7332 807.914,16.186 806.256,15.5944 L805.783,15.424 C804.918,15.1091 804.08,14.7785 803.494,14.4131 C803.826,14.7951 799.458,14.8615 799.774,14.4131 C798.844,13.3503 801.783,13.4499 801.186,12.5033 C799.408,12.5033 799.608,12.9517 797.498,12.8022 L797.897,13.2673 C796.668,13.1344 795.406,13.0846 794.276,13.0181 L795.273,12.7192 L794.841,12.6237 C792.606,12.1358 790.429,11.7203 790.772,10.9091 C788.397,11.1582 788.447,10.5769 787.035,10.5105 C787.035,10.9091 786.487,11.125 785.574,11.2412 C784.705,10.6375 783.601,10.4832 782.601,10.826 L781.488,10.9755 L780.375,10.8593 C778.637,10.835 776.901,10.713 775.177,10.4939 C778.299,10.3112 776.755,8.36819 779.562,8.83319 C778.037,8.6115 776.666,7.78543 775.758,6.54138 C772.016,7.03616 771.589,6.44972 771.374,5.85022 L771.323,5.70068 L771.288,5.60248 C771.186,5.32741 771.036,5.08257 770.51,4.98035 L769.786,5.09113 C768.102,5.34905 766.501,5.61972 766.109,6.25909 L766.491,6.59119 L765.361,6.49158 C765.461,6.7905 765.611,7.05619 766.873,6.93994 L767.985,7.03961 C766.707,7.40497 766.325,8.16889 767.77,8.51764 C768.185,8.51764 768.899,8.60069 769.53,8.66711 L768.434,8.79993 C768.434,9.2151 768.284,9.54729 767.72,9.76318 C768.176,9.8536 768.681,9.92834 769.182,10.0046 L769.61,10.0707 C770.885,10.2724 772.043,10.516 772.221,11.0917 C770.741,11.4017 770.368,11.2535 770.031,11.1157 L769.904,11.0654 C769.646,10.9695 769.334,10.9124 768.517,11.0917 L768.899,11.4405 L767.77,11.3574 C765.86,11.6896 768.401,12.7524 767.089,12.7856 C765.777,12.8189 765.345,12.5697 765.577,12.1047 C762.804,11.8888 764.431,13.0015 761.89,12.8687 C761.636,12.445 759.544,12.3321 757.128,12.2499 C757.398,12.1916 757.565,12.0866 757.476,11.9371 C756.877,11.7939 756.272,11.7137 755.665,11.6971 C755.369,11.9429 755.505,12.1115 755.807,12.2072 L755.69,12.2032 C755.597,12.2002 755.505,12.1972 755.412,12.1941 L754.856,12.1748 C754.209,12.1514 753.572,12.1241 752.972,12.0881 C751.593,12.5697 753.42,12.5033 752.972,13.2673 C751.744,13.0483 750.493,12.9924 749.251,13.1012 C749.251,13.4666 748.628,13.6534 747.956,13.8288 L747.589,13.9243 C746.979,14.085 746.415,14.2615 746.328,14.5792 C746.59,14.9996 747.056,15.0784 747.536,15.1112 L747.855,15.1296 C748.119,15.1446 748.374,15.1656 748.587,15.2435 C746.188,15.8471 747.132,16.9218 749.763,17.0867 L749.795,17.089 L749.676,17.0854 C748.185,17.0715 748.547,17.6031 747.192,17.6183 C746.395,17.0536 742.591,17.0537 742.01,17.718 C740.665,16.9042 740.449,17.1865 738.29,17.5519 C735.383,16.6385 731.165,17.5518 727.86,16.5554 C728.004,16.8246 727.653,16.9491 727.238,17.0546 L727.008,17.111 C726.777,17.167 726.55,17.2241 726.398,17.3027 C728.591,17.6349 726.73,18.0335 727.943,18.4487 C727.536,18.5002 726.961,18.5005 726.358,18.4919 L725.954,18.4853 L725.573,18.4791 C724.501,18.4638 723.538,18.4783 723.492,18.7642 C726.332,19.0133 723.409,19.744 725.036,20.4249 C724.066,20.6367 723.074,20.737 722.08,20.7238 C723.385,21.6894 722.014,22.1629 720.464,22.684 L720.039,22.8276 L719.756,22.926 C719.569,22.9924 719.384,23.0607 719.207,23.1318 C722.628,23.5636 716.633,25.5232 721.532,25.9218 C718.31,26.0713 717.413,25.5897 716.35,26.0215 C716.35,27.1176 716.566,29.758 715.769,30.522 C714.689,30.0238 712.447,30.223 709.807,29.675 C707.166,29.127 705.621,28.0143 700.855,28.4295 C700.987,29.0108 701.037,29.5754 699.41,29.6252 C696.114,29.5409 692.847,28.9816 689.71,27.9645 C689.71,28.3797 689.162,28.5789 688.249,28.6952 C688.681,28.0309 685.143,27.267 686.688,26.3702 C685.027,26.1211 681.888,26.3702 681.456,25.7557 L681.456,25.0582 C684.927,24.8423 690.342,25.1911 692.567,24.6099 C688.498,23.2813 679.114,21.9527 669.448,21.2885 C668.535,22.3181 667.256,21.77 664.283,22.0856 C661.709,20.6408 658.57,19.6278 658.204,18.4321 C652.043,18.183 645.433,18.3324 639.653,18.05 C639.52,18.05 639.122,17.6183 638.889,17.5851 C632.561,16.954 626.914,17.8342 626.2,15.4594 C627.495,15.1827 628.731,14.6825 629.854,13.9813 C628.193,13.7488 628.509,12.8355 626.848,12.6196 C624.257,13.0514 623.709,12.7358 620.919,13.2008 C618.942,11.5401 620.553,8.70032 618.494,7.57104 C618.217,7.41657 617.475,7.26547 616.676,7.10248 L616.25,7.01501 C614.685,6.68953 613.177,6.3089 614.707,5.76086 C610.904,4.91391 608.762,4.34927 607.964,3.51892 C606.461,3.80301 604.988,4.22553 603.563,4.78107 C602.592,4.73309 602.07,4.53351 601.61,4.31451 L601.401,4.21252 C600.673,3.85416 599.948,3.49816 597.584,3.7016 C597.584,4.4157 596.953,4.91392 595.408,5.16302 L592.436,5.16302 C587.084,2.45752 581.206,0.955432 575.213,0.762146 C575.213,1.36 573.493,1.27459 571.623,1.20312 L571.154,1.18597 C569.897,1.14311 568.632,1.13223 567.822,1.35999 C568.885,0.928201 567.274,-0.05161 566.261,-0.5 C565.414,-0.035003 562.59,-0.616253 561.096,0.0646362 C562.624,0.0646362 562.607,0.6791 563.354,0.978027 C562.602,1.05964 561.86,1.2268 561.145,1.47626 C563.487,4.1666 554.502,6.6078 545.733,6.00995 C544.286,6.4528 543.266,7.09722 542.272,7.73938 L541.713,8.099 L541.363,8.31787 C539.833,9.25646 538.087,10.0491 534.755,9.99567 C533.094,11.3574 532.181,12.9683 528.975,13.8817 C527.181,14.0146 527.314,13.4831 525.255,13.7156 C523.594,14.5294 523.91,15.9576 519.409,15.941 C520.903,17.4854 521.153,18.2328 518.03,19.2624 L518.429,19.6111 L515.24,19.6111 L516.552,19.3288 C516.369,19.0797 515.306,18.7974 515.057,19.1295 L515.157,19.6277 L515.838,20.0595 L514.493,20.1924 L513.612,19.8602 C511.536,20.1425 513.845,20.8567 513.612,21.2719 C504.81,22.4011 493.566,22.6835 484,22.9326 C484,22.6336 483.037,22.617 483.236,22.235 C484.548,21.3881 486.79,20.8069 487.604,19.7938 C483.677,20.1116 482.236,19.586 480.873,19.0328 L480.559,18.905 C479.246,18.3736 477.835,17.8746 474.184,18.1331 C474.066,18.6459 472.782,18.8256 471.502,19.0018 L471.099,19.0577 C470.899,19.086 470.703,19.115 470.514,19.1461 C469.752,18.79 468.775,18.4986 467.797,18.2063 L467.379,18.0807 C465.224,17.4298 463.217,16.7279 463.688,15.2601 C461.363,15.011 461.745,13.5994 460.632,12.9517 C458.273,11.673 452.809,11.1416 451.614,9.63031 C441.649,11.1582 431.684,11.9387 424.907,9.63031 C419.925,10.5935 422.084,12.221 416.869,13.0846 C416.653,13.6326 417.018,13.998 417.65,14.2471 C411.92,15.1272 419.061,16.2399 415.557,17.8342 C412.385,17.037 409.943,17.4356 404.429,17.5685 C404.512,18.9137 401.207,19.2292 399.331,20.0263 C397.262,19.4569 395.133,19.5383 392.994,19.6599 L391.924,19.7213 C390.676,19.7901 389.426,19.8381 388.186,19.744 C386.658,20.8401 385.629,20.6407 381.543,20.8234 C380.995,21.9195 382.39,21.4711 383.071,21.7368 C380.663,22.2516 381.41,22.3015 381.643,23.3975 C376.012,25.0582 372.342,22.8329 365.3,22.9824 C365.728,23.6531 364.249,23.7605 362.743,23.8608 L362.367,23.8861 C361.431,23.9505 360.545,24.0302 360.168,24.2611 C354.538,23.082 341.899,22.4343 337.166,24.4438 C336.751,24.4398 336.336,24.4358 335.921,24.432 L334.675,24.4207 C334.467,24.4188 334.259,24.4169 334.051,24.415 L332.182,24.3979 C330.314,24.3805 328.45,24.3614 326.604,24.3363 L325.376,24.3187 C310.672,24.0951 297.264,23.4267 291.758,20.0761 C265.185,21.9029 240.937,17.9671 218.3,19.7606 C218.3,21.0061 224.146,22.0524 228.065,22.6502 C235.157,23.7463 244.092,23.2979 249.656,24.6265 C248.444,24.9752 249.092,25.7225 248.975,26.0547 C248.203,25.7225 245.882,25.8682 243.479,26.0405 L242.758,26.0926 C240.234,26.2744 237.782,26.4359 237.1,26.0547 L235.988,26.1876 L236.008,26.168 L237.38,25.7 C236.927,25.827 236.479,25.9731 236.038,26.1378 L236.353,25.8222 C234.613,25.4015 232.78,25.6011 231.171,26.3868 L231.171,25.4402 C222.103,25.5398 213.018,24.942 202.937,25.025 C195.58,25.025 187.359,25.5232 179.22,25.4402 C175.467,25.4402 170.667,24.5767 165.834,24.7427 L165.573,24.752 L165.049,24.7693 C164.611,24.7831 164.169,24.7951 163.726,24.805 L162.927,24.8205 C162.394,24.8292 161.862,24.8347 161.333,24.8363 L160.806,24.8365 L160.282,24.8342 L159.756,24.8289 C153.12,24.743 147.744,23.9321 151.617,21.222 C147.845,20.8143 144.101,20.1765 140.407,19.3122 L139.676,19.4451 L140.025,18.731 L140.407,19.0797 C144.376,18.803 148.364,18.9645 152.298,19.5613 C153.644,19.8104 152.298,19.9101 153.81,20.4747 C156.984,21.209 160.285,21.209 163.459,20.4747 C164.04,19.7938 162.396,19.8768 162.678,19.3122 C165.253,20.292 168.774,19.2292 169.322,18.2494 C163.442,17.0426 157.454,16.4361 151.451,16.4392 C149.802,15.6753 146.875,15.3911 143.891,15.1537 L142.996,15.0834 C141.803,14.9905 140.621,14.8981 139.527,14.7785 C137.866,14.5958 136.637,14.0644 135.042,13.9149 C133.132,13.7322 130.624,13.9149 129.096,13.782 C128.582,13.782 128.166,13.151 127.585,13.1012 C123.394,12.6293 119.169,12.5459 114.963,12.8521 C104.611,11.3853 94.1884,10.4706 83.7393,10.1119 C81.0155,12.8022 72.2296,10.5769 64.4901,10.9423 C64.4901,10.4939 63.4023,10.4274 62.2979,10.3693 L61.8577,10.3456 C60.9131,10.2914 60.0634,10.206 60.0059,9.84619 C58.2122,9.84619 58.3451,10.3112 56.3022,10.1451 C54.3151,9.84035 51.4031,9.80238 48.2747,9.7984 L45.6973,9.79803 L44.7617,9.7962 C40.0869,9.78068 35.5078,9.65379 33.2499,8.68372 L33.5681,8.68323 C34.3908,8.67978 35.3708,8.65047 35.4587,8.40137 L34.3459,8.30176 L34.7114,7.9364 C33.2222,7.95225 31.7355,8.06314 30.2604,8.26849 C29.4466,7.106 25.5603,7.00637 22.0559,6.75726 C21.0441,7.63939 19.7252,8.08696 18.3855,8.00281 C16.3163,7.23299 14.3019,6.32302 12.3566,5.27924 C12.1721,8.01819 7.59716,9.47166 2.58057,10.7796 L1.93799,10.9459 L1.2926,11.1111 C0.861694,11.221 0.430005,11.3306 0,11.4405 L0,54.5 L1708,54.5 Z M42,8.34998 L35,8.65002 C37.3113,8.65002 39.6061,8.52998 42,8.34998 Z M515,19.95 L510,19.05 C511.637,19.5229 513.311,19.8243 515,19.95 Z M520.5,10.7 C522.351,11.7574 524.423,12.1131 526.444,11.72 C527.106,10.38 521.692,9.47995 520.5,10.7 Z M620.691,0.739441 L617.691,0.739441 L617.951,1.17944 L617.191,1.46942 C618.061,2.28942 620.891,1.78944 620.691,0.739441 Z M635.741,5.04944 C634.831,4.77944 630.861,4.56943 630.691,5.34943 C632.183,5.71772 633.706,5.95199 635.241,6.04944 C635.391,5.72944 635.951,5.58944 635.741,5.04944 Z M636.241,10.6594 C636.101,11.2094 634.891,11.2194 634.241,10.9094 C634.301,11.5194 634.981,11.8394 636.241,11.9094 C635.941,11.4494 637.711,10.8694 636.241,10.6594 Z M651.941,16.6594 C653.481,16.8294 653.421,16.2394 654.941,16.4094 C655.111,15.1494 651.501,15.6594 651.941,16.6594 Z M652.411,7.74945 C652.181,8.50945 653.491,8.51947 654.931,8.45947 C655.041,7.27947 654.201,7.65945 652.411,7.74945 Z M655.651,11.4294 C654.822,11.2588 653.977,11.1816 653.131,11.1995 L655.651,11.4294 Z M663.941,11.9694 C662.961,11.9185 662.669,12.1876 662.427,12.4853 L662.324,12.6138 C662.221,12.7423 662.11,12.8685 661.941,12.9694 C663.221,12.9694 663.941,12.6094 663.941,11.9694 Z M665.941,6.93945 L664.431,6.93945 L664.461,7.41943 L665.941,7.41943 L665.941,6.93945 Z M668.031,15.3494 L668.031,16.0695 L669.541,16.0695 C669.631,15.5395 669.131,15.2994 668.031,15.3494 Z M670.5,6.41943 C672.12,6.20943 671.5,7.04947 672.5,7.13947 C673.85,6.65947 671.11,5.24943 670.5,6.41943 Z M677.331,10.8494 L672.791,9.41943 C672.971,9.62943 673.13,9.85945 673.26,9.99945 C674.74,10.1495 675.941,10.6594 677.331,10.8494 Z M677.551,1.91943 C678.661,2.43943 679.611,1.66943 681.551,1.91943 C682.181,0.839434 676.941,0.869434 677.551,1.91943 Z M686.681,15.7394 C685.941,15.6194 685.411,15.3895 684.681,15.2695 C684.141,15.8795 686.371,16.3294 686.681,15.7394 Z M685.161,14.3094 C686.161,14.3094 685.811,14.9594 687.161,14.7794 C687.561,14.2394 685.321,13.7994 685.161,14.3094 Z M690.211,14.7595 C690.211,15.1795 690.601,15.3794 691.211,15.4794 C691.941,15.1294 691.941,14.5395 690.211,14.7595 Z M692.941,7.16943 L691.171,5.96942 C690.941,6.56942 691.941,6.94943 692.941,7.16943 Z M695.388,24.8234 C694.261,25.2834 695.774,26.1034 697.577,26.1834 C698.656,25.7434 697.577,24.7234 695.388,24.8234 Z M696.241,9.91943 C696.901,9.91943 696.701,10.3394 697.241,10.3994 C697.821,9.89941 696.451,9.24943 696.241,9.91943 Z M702.761,23.5994 C700.811,23.4594 700.811,24.7994 702.761,24.5994 L702.761,23.5994 Z M716.191,6.87946 L715.431,6.75946 L715.681,6.39941 C713.891,6.78941 711.531,5.82941 711.681,7.39941 C711.761,7.83941 713.391,7.53945 713.681,7.86945 L714.191,7.98944 L714.691,8.10944 C714.816,7.84944 715.078,7.64697 715.366,7.45697 L715.715,7.23206 C715.889,7.11974 716.056,7.00546 716.191,6.87946 Z M766.5,7.40002 L764.625,6.59998 L764.5,6.73999 C764.917,6.91999 765.528,7.08002 766.5,7.40002 Z M770,4.1889 C768.247,4.1489 767.169,4.3089 767,4.8089 C768.026,4.86231 769.05,4.65077 770,4.1889 Z M780.511,8.84259 C781.505,8.84259 781.022,9.54255 782.427,9.36255 C782.967,8.74255 780.312,8.32259 780.511,8.84259 Z M896,8.34998 L889,8.65002 C891.311,8.65002 893.606,8.52998 896,8.34998 Z M1369,19.95 L1364,19.05 C1365.64,19.5229 1367.31,19.8243 1369,19.95 Z M1374.5,10.7 C1376.35,11.7574 1378.42,12.1131 1380.44,11.72 C1381.11,10.38 1375.69,9.47995 1374.5,10.7 Z M1474.69,0.739441 L1471.69,0.739441 L1471.95,1.17944 L1471.19,1.46942 C1472.06,2.28942 1474.89,1.78944 1474.69,0.739441 Z M1489.74,5.04944 C1488.83,4.77944 1484.86,4.56943 1484.69,5.34943 C1486.18,5.71772 1487.71,5.95199 1489.24,6.04944 C1489.39,5.72944 1489.95,5.58944 1489.74,5.04944 Z M1490.24,10.6594 C1490.1,11.2094 1488.89,11.2194 1488.24,10.9094 C1488.3,11.5194 1488.98,11.8394 1490.24,11.9094 C1489.94,11.4494 1491.71,10.8694 1490.24,10.6594 Z M1505.94,16.6594 C1507.48,16.8294 1507.42,16.2394 1508.94,16.4094 C1509.11,15.1494 1505.5,15.6594 1505.94,16.6594 Z M1506.41,7.74945 C1506.18,8.50945 1507.49,8.51947 1508.93,8.45947 C1509.04,7.27947 1508.2,7.65945 1506.41,7.74945 Z M1509.65,11.4294 C1508.82,11.2588 1507.98,11.1816 1507.13,11.1995 L1509.65,11.4294 Z M1517.94,11.9694 C1516.96,11.9185 1516.67,12.1876 1516.43,12.4853 L1516.32,12.6138 C1516.22,12.7423 1516.11,12.8685 1515.94,12.9694 C1517.22,12.9694 1517.94,12.6094 1517.94,11.9694 Z M1519.94,6.93945 L1518.43,6.93945 L1518.46,7.41943 L1519.94,7.41943 L1519.94,6.93945 Z M1522.03,15.3494 L1522.03,16.0695 L1523.54,16.0695 C1523.63,15.5395 1523.13,15.2994 1522.03,15.3494 Z M1524.5,6.41943 C1526.12,6.20943 1525.5,7.04947 1526.5,7.13947 C1527.85,6.65947 1525.11,5.24943 1524.5,6.41943 Z M1531.33,10.8494 L1526.79,9.41943 C1526.97,9.62943 1527.13,9.85945 1527.26,9.99945 C1528.74,10.1495 1529.94,10.6594 1531.33,10.8494 Z M1531.55,1.91943 C1532.66,2.43943 1533.61,1.66943 1535.55,1.91943 C1536.18,0.839434 1530.94,0.869434 1531.55,1.91943 Z M1540.68,15.7394 C1539.94,15.6194 1539.41,15.3895 1538.68,15.2695 C1538.14,15.8795 1540.37,16.3294 1540.68,15.7394 Z M1539.16,14.3094 C1540.16,14.3094 1539.81,14.9594 1541.16,14.7794 C1541.56,14.2394 1539.32,13.7994 1539.16,14.3094 Z M1544.21,14.7595 C1544.21,15.1795 1544.6,15.3794 1545.21,15.4794 C1545.94,15.1294 1545.94,14.5395 1544.21,14.7595 Z M1546.94,7.16943 L1545.17,5.96942 C1544.94,6.56942 1545.94,6.94943 1546.94,7.16943 Z M1549.39,24.8234 C1548.26,25.2834 1549.77,26.1034 1551.58,26.1834 C1552.66,25.7434 1551.58,24.7234 1549.39,24.8234 Z M1550.24,9.91943 C1550.9,9.91943 1550.7,10.3394 1551.24,10.3994 C1551.82,9.89941 1550.45,9.24943 1550.24,9.91943 Z M1556.76,23.5994 C1554.81,23.4594 1554.81,24.7994 1556.76,24.5994 L1556.76,23.5994 Z M1570.19,6.87946 L1569.43,6.75946 L1569.68,6.39941 C1567.89,6.78941 1565.53,5.82941 1565.68,7.39941 C1565.76,7.83941 1567.39,7.53945 1567.68,7.86945 L1568.19,7.98944 L1568.69,8.10944 C1568.82,7.84944 1569.08,7.64697 1569.37,7.45697 L1569.72,7.23206 C1569.89,7.11974 1570.06,7.00546 1570.19,6.87946 Z M1620.5,7.40002 L1618.62,6.59998 L1618.5,6.73999 C1618.92,6.91999 1619.53,7.08002 1620.5,7.40002 Z M1624,4.1889 C1622.25,4.1489 1621.17,4.3089 1621,4.8089 C1622.03,4.86231 1623.05,4.65077 1624,4.1889 Z M1634.51,8.84259 C1635.5,8.84259 1635.02,9.54255 1636.43,9.36255 C1636.97,8.74255 1634.31,8.32259 1634.51,8.84259 Z" id="Shape" fill="#FAFAFA" fill-rule="nonzero" mask="url(#mask-2)"></path></g></g></svg>