<svg xmlns="http://www.w3.org/2000/svg" width="1440" height="94" viewBox="0 0 1440 94" fill="none"><g clip-path="url(#clip0_4327_56227)"><mask id="mask0_4327_56227" style="mask-type:luminance" maskUnits="userSpaceOnUse" x="0" y="0" width="1440" height="94"><path d="M1440 0H0V94H1440V0Z" fill="white"></path></mask><g mask="url(#mask0_4327_56227)"><path d="M1573.5 -0.5V43.9379C1571.54 43.556 1569.51 42.9913 1571.11 42.2938C1568.67 41.7044 1566.14 41.659 1563.68 42.1609C1562.72 41.8227 1563.05 41.7858 1563.55 41.7303L1563.69 41.7145L1563.87 41.6922C1564.27 41.6343 1564.63 41.528 1564.47 41.231C1563.14 41.779 1562.02 41.6129 1560.86 41.3763L1560.33 41.2644C1559.33 41.0587 1558.29 40.8732 1557.06 41.0981C1558.87 39.4374 1544.68 37.976 1548.95 39.288C1546.21 38.9558 1540.9 38.6403 1541.5 40.5667C1539.67 40.2346 1537.88 41.0317 1537.79 40.5667C1539.39 40.0859 1538.37 40.0196 1537.29 39.9345L1537.08 39.9182L1536.88 39.9009C1536.68 39.8828 1536.49 39.8621 1536.33 39.836C1539.65 38.9558 1538.74 38.1753 1539.4 37.0626C1535.72 35.8835 1533.08 37.9594 1529.02 36.6308C1529.02 37.2668 1527.41 37.814 1525.76 38.4056L1525.28 38.576C1524.42 38.8909 1523.58 39.2215 1522.99 39.5869C1523.33 39.2049 1518.96 39.1385 1519.27 39.5869C1518.34 40.6497 1521.28 40.5501 1520.69 41.4967C1518.91 41.4967 1519.11 41.0483 1517 41.1978L1517.4 40.7327C1516.17 40.8656 1514.91 40.9154 1513.78 40.9819L1514.77 41.2808L1514.34 41.3763C1512.11 41.8642 1509.93 42.2797 1510.27 43.0909C1507.9 42.8418 1507.95 43.4231 1506.54 43.4895C1506.54 43.0909 1505.99 42.875 1505.07 42.7588C1504.21 43.3625 1503.1 43.5168 1502.1 43.174L1500.99 43.0245L1499.88 43.1407C1498.14 43.165 1496.4 43.287 1494.68 43.5061C1497.8 43.6888 1496.25 45.6318 1499.06 45.1668C1497.54 45.3885 1496.17 46.2146 1495.26 47.4586C1491.52 46.9638 1491.09 47.5503 1490.87 48.1498L1490.82 48.2993L1490.79 48.3975C1490.69 48.6726 1490.54 48.9174 1490.01 49.0197L1489.29 48.9089C1487.6 48.6509 1486 48.3803 1485.61 47.7409L1485.99 47.4088L1484.86 47.5084C1484.96 47.2095 1485.11 46.9438 1486.37 47.0601L1487.49 46.9604C1486.21 46.595 1485.82 45.8311 1487.27 45.4824C1487.68 45.4824 1488.4 45.3993 1489.03 45.3329L1487.93 45.2001C1487.93 44.7849 1487.78 44.4527 1487.22 44.2368C1487.68 44.1464 1488.18 44.0717 1488.68 43.9954L1489.11 43.9293C1490.38 43.7276 1491.54 43.484 1491.72 42.9083C1490.24 42.5983 1489.87 42.7465 1489.53 42.8843L1489.4 42.9346C1489.15 43.0305 1488.83 43.0876 1488.02 42.9083L1488.4 42.5595L1487.27 42.6426C1485.36 42.3104 1487.9 41.2476 1486.59 41.2144C1485.28 41.1811 1484.84 41.4303 1485.08 41.8953C1482.3 42.1112 1483.93 40.9985 1481.39 41.1313C1481.14 41.555 1479.04 41.6679 1476.63 41.7501C1476.9 41.8084 1477.07 41.9134 1476.98 42.0629C1476.38 42.2061 1475.77 42.2863 1475.17 42.3029C1474.87 42.0571 1475 41.8885 1475.31 41.7928L1475.19 41.7968C1475.1 41.7998 1475 41.8028 1474.91 41.8059L1474.36 41.8252C1473.71 41.8486 1473.07 41.8759 1472.47 41.9119C1471.09 41.4303 1472.92 41.4967 1472.47 40.7327C1471.24 40.9517 1469.99 41.0076 1468.75 40.8988C1468.75 40.5334 1468.13 40.3466 1467.46 40.1712L1467.09 40.0757C1466.48 39.915 1465.91 39.7385 1465.83 39.4208C1466.09 39.0004 1466.56 38.9216 1467.04 38.8888L1467.36 38.8704C1467.62 38.8554 1467.87 38.8344 1468.09 38.7565C1465.69 38.1529 1466.63 37.0782 1469.26 36.9133L1469.29 36.911L1469.18 36.9146C1467.69 36.9285 1468.05 36.3969 1466.69 36.3817C1465.89 36.9464 1462.09 36.9463 1461.51 36.282C1460.16 37.0958 1459.95 36.8135 1457.79 36.4481C1454.88 37.3615 1450.66 36.4482 1447.36 37.4446C1447.5 37.1754 1447.15 37.0509 1446.74 36.9454L1446.51 36.889C1446.28 36.833 1446.05 36.7759 1445.9 36.6973C1448.09 36.3651 1446.23 35.9665 1447.44 35.5513C1447.04 35.4998 1446.46 35.4995 1445.86 35.5081L1445.45 35.5147L1445.07 35.5209C1444 35.5362 1443.04 35.5217 1442.99 35.2358C1445.83 34.9867 1442.91 34.256 1444.54 33.5751C1443.57 33.3633 1442.57 33.263 1441.58 33.2762C1442.89 32.3106 1441.51 31.8371 1439.96 31.316L1439.54 31.1724L1439.26 31.074C1439.07 31.0076 1438.88 30.9393 1438.71 30.8682C1442.13 30.4364 1436.13 28.4768 1441.03 28.0782C1437.81 27.9287 1436.91 28.4103 1435.85 27.9785C1435.85 26.8824 1436.07 24.242 1435.27 23.478C1434.19 23.9762 1431.95 23.777 1429.31 24.325C1426.67 24.873 1425.12 25.9857 1420.35 25.5705C1420.49 24.9892 1420.54 24.4246 1418.91 24.3748C1415.61 24.4591 1412.35 25.0184 1409.21 26.0355C1409.21 25.6203 1408.66 25.4211 1407.75 25.3048C1408.18 25.9691 1404.64 26.733 1406.19 27.6298C1404.53 27.8789 1401.39 27.6298 1400.96 28.2443V28.9418C1404.43 29.1577 1409.84 28.8089 1412.07 29.3901C1408 30.7187 1398.61 32.0473 1388.95 32.7115C1388.03 31.6819 1386.76 32.23 1383.78 31.9144C1381.21 33.3592 1378.07 34.3722 1377.7 35.5679C1371.54 35.817 1364.93 35.6676 1359.15 35.95C1359.02 35.95 1358.62 36.3817 1358.39 36.4149C1352.06 37.046 1346.41 36.1658 1345.7 38.5406C1346.99 38.8173 1348.23 39.3175 1349.35 40.0187C1347.69 40.2512 1348.01 41.1645 1346.35 41.3804C1343.76 40.9486 1343.21 41.2642 1340.42 40.7992C1338.44 42.4599 1340.05 45.2997 1337.99 46.429C1337.72 46.5834 1336.98 46.7345 1336.18 46.8975L1335.75 46.985C1334.19 47.3105 1332.68 47.6911 1334.21 48.2391C1330.4 49.0861 1328.26 49.6507 1327.46 50.4811C1325.96 50.197 1324.49 49.7745 1323.06 49.2189C1322.09 49.2669 1321.57 49.4665 1321.11 49.6855L1320.9 49.7875C1320.17 50.1458 1319.45 50.5018 1317.08 50.2984C1317.08 49.5843 1316.45 49.0861 1314.91 48.837H1311.94C1306.58 51.5425 1300.71 53.0446 1294.71 53.2379C1294.71 52.64 1292.99 52.7254 1291.12 52.7969L1290.65 52.814C1289.4 52.8569 1288.13 52.8678 1287.32 52.64C1288.38 53.0718 1286.77 54.0516 1285.76 54.5C1284.91 54.035 1282.09 54.6163 1280.6 53.9354C1282.12 53.9354 1282.11 53.3209 1282.85 53.022C1282.1 52.9404 1281.36 52.7732 1280.65 52.5237C1282.99 49.8334 1274 47.3922 1265.23 47.9901C1263.79 47.5472 1262.77 46.9028 1261.77 46.2606L1261.21 45.901L1260.86 45.6821C1259.33 44.7435 1257.59 43.9509 1254.25 44.0043C1252.59 42.6426 1251.68 41.0317 1248.48 40.1183C1246.68 39.9854 1246.81 40.5169 1244.75 40.2844C1243.09 39.4706 1243.41 38.0424 1238.91 38.059C1240.4 36.5146 1240.65 35.7672 1237.53 34.7376L1237.93 34.3889H1234.74L1236.05 34.6712C1235.87 34.9203 1234.81 35.2026 1234.56 34.8705L1234.66 34.3723L1235.34 33.9405L1233.99 33.8076L1233.11 34.1398C1231.04 33.8575 1233.34 33.1433 1233.11 32.7281C1224.31 31.5989 1213.07 31.3165 1203.5 31.0674C1203.5 31.3664 1202.54 31.383 1202.74 31.765C1204.05 32.6119 1206.29 33.1931 1207.1 34.2062C1203.18 33.8884 1201.74 34.414 1200.37 34.9672L1200.06 35.095C1198.75 35.6264 1197.33 36.1254 1193.68 35.8669C1193.57 35.3541 1192.28 35.1744 1191 34.9982L1190.6 34.9423C1190.4 34.914 1190.2 34.885 1190.01 34.8539C1189.25 35.21 1188.27 35.5014 1187.3 35.7937L1186.88 35.9193C1184.72 36.5702 1182.72 37.2721 1183.19 38.7399C1180.86 38.989 1181.24 40.4006 1180.13 41.0483C1177.77 42.327 1172.31 42.8584 1171.11 44.3697C1161.15 42.8418 1151.18 42.0613 1144.41 44.3697C1139.42 43.4065 1141.58 41.779 1136.37 40.9154C1136.15 40.3674 1136.52 40.002 1137.15 39.7529C1131.42 38.8728 1138.56 37.7601 1135.06 36.1658C1131.88 36.963 1129.44 36.5644 1123.93 36.4315C1124.01 35.0863 1120.71 34.7708 1118.83 33.9737C1116.76 34.5431 1114.63 34.4617 1112.49 34.3401L1111.42 34.2787C1110.18 34.2099 1108.93 34.1619 1107.69 34.256C1106.16 33.1599 1105.13 33.3593 1101.04 33.1766C1100.49 32.0805 1101.89 32.5289 1102.57 32.2632C1100.16 31.7484 1100.91 31.6985 1101.14 30.6025C1095.51 28.9418 1091.84 31.1671 1084.8 31.0176C1085.23 30.3469 1083.75 30.2395 1082.24 30.1392L1081.87 30.1139C1080.93 30.0495 1080.04 29.9698 1079.67 29.7389C1074.04 30.918 1061.4 31.5657 1056.67 29.5562C1056.25 29.5602 1055.84 29.5642 1055.42 29.568L1054.17 29.5793C1053.97 29.5812 1053.76 29.5831 1053.55 29.585L1051.68 29.6021C1049.81 29.6195 1047.95 29.6386 1046.1 29.6637L1044.88 29.6813C1030.17 29.9049 1016.76 30.5733 1011.26 33.9239C984.685 32.0971 960.437 36.0329 937.8 34.2394C937.8 32.9939 943.646 31.9476 947.565 31.3498C954.657 30.2537 963.593 30.7021 969.156 29.3735C967.944 29.0248 968.592 28.2775 968.475 27.9453C967.703 28.2775 965.382 28.1318 962.98 27.9595L962.258 27.9074C959.734 27.7256 957.282 27.5641 956.6 27.9453L955.488 27.8124L955.508 27.832L956.88 28.3C956.427 28.173 955.979 28.0269 955.538 27.8622L955.853 28.1778C954.113 28.5985 952.28 28.3989 950.671 27.6132V28.5598C941.603 28.4602 932.518 29.058 922.437 28.975C915.08 28.975 906.858 28.4768 898.72 28.5598C894.967 28.5598 890.167 29.4233 885.334 29.2573L885.073 29.248L884.549 29.2307C884.111 29.2169 883.669 29.2049 883.226 29.195L882.427 29.1795C881.894 29.1708 881.362 29.1653 880.833 29.1637L880.306 29.1635L879.782 29.1658L879.256 29.1711C872.62 29.257 867.244 30.0679 871.117 32.778C867.345 33.1857 863.601 33.8235 859.907 34.6878L859.176 34.5549L859.525 35.269L859.907 34.9203C863.876 35.197 867.864 35.0355 871.798 34.4387C873.144 34.1896 871.798 34.0899 873.31 33.5253C876.484 32.791 879.785 32.791 882.959 33.5253C883.54 34.2062 881.896 34.1232 882.179 34.6878C884.753 33.708 888.274 34.7708 888.822 35.7506C882.942 36.9574 876.954 37.5639 870.951 37.5608C869.302 38.3247 866.375 38.6089 863.391 38.8463L862.496 38.9166C861.303 39.0095 860.12 39.1019 859.027 39.2215C857.366 39.4042 856.137 39.9356 854.542 40.0851C852.632 40.2678 850.124 40.0851 848.596 40.218C848.082 40.218 847.666 40.849 847.085 40.8988C842.894 41.3707 838.669 41.4541 834.463 41.1479C824.111 42.6147 813.688 43.5294 803.239 43.8881C800.515 41.1978 791.73 43.4231 783.99 43.0577C783.99 43.5061 782.902 43.5726 781.798 43.6307L781.358 43.6544C780.413 43.7086 779.563 43.794 779.506 44.1538C777.712 44.1538 777.845 43.6888 775.802 43.8549C773.815 44.1596 770.903 44.1976 767.775 44.2016L765.197 44.202L764.262 44.2038C759.587 44.2193 755.008 44.3462 752.75 45.3163L753.068 45.3168C753.891 45.3202 754.871 45.3495 754.959 45.5986L753.846 45.6982L754.211 46.0636C752.722 46.0478 751.235 45.9369 749.76 45.7315C748.947 46.894 745.06 46.9936 741.556 47.2427C740.544 46.3606 739.225 45.913 737.885 45.9972C735.816 46.767 733.802 47.677 731.857 48.7208C731.672 45.9818 727.097 44.5283 722.081 43.2204L721.438 43.0541L720.793 42.8889C720.362 42.779 719.93 42.6694 719.5 42.5595V43.9379C717.54 43.556 715.514 42.9913 717.108 42.2938C714.674 41.7044 712.139 41.659 709.685 42.1609C708.72 41.8227 709.053 41.7858 709.554 41.7303L709.694 41.7145L709.866 41.6922C710.266 41.6343 710.633 41.528 710.465 41.231C709.136 41.779 708.015 41.6129 706.861 41.3763L706.325 41.2644C705.335 41.0587 704.294 40.8732 703.058 41.0981C704.868 39.4374 690.685 37.976 694.953 39.288C692.213 38.9558 686.898 38.6403 687.496 40.5667C685.669 40.2346 683.875 41.0317 683.792 40.5667C685.387 40.0859 684.368 40.0196 683.286 39.9345L683.083 39.9182L682.882 39.9009C682.684 39.8828 682.494 39.8621 682.331 39.836C685.652 38.9558 684.739 38.1753 685.403 37.0626C681.716 35.8835 679.075 37.9594 675.023 36.6308C675.023 37.2668 673.414 37.814 671.756 38.4056L671.283 38.576C670.418 38.8909 669.58 39.2215 668.994 39.5869C669.326 39.2049 664.958 39.1385 665.274 39.5869C664.344 40.6497 667.283 40.5501 666.686 41.4967C664.908 41.4967 665.108 41.0483 662.998 41.1978L663.397 40.7327C662.168 40.8656 660.906 40.9154 659.776 40.9819L660.773 41.2808L660.341 41.3763C658.106 41.8642 655.929 42.2797 656.272 43.0909C653.897 42.8418 653.947 43.4231 652.535 43.4895C652.535 43.0909 651.987 42.875 651.074 42.7588C650.205 43.3625 649.101 43.5168 648.101 43.174L646.988 43.0245L645.875 43.1407C644.137 43.165 642.401 43.287 640.677 43.5061C643.799 43.6888 642.255 45.6318 645.062 45.1668C643.537 45.3885 642.166 46.2146 641.258 47.4586C637.516 46.9638 637.089 47.5503 636.874 48.1498L636.823 48.2993L636.788 48.3975C636.686 48.6726 636.536 48.9174 636.01 49.0197L635.286 48.9089C633.602 48.6509 632.001 48.3803 631.609 47.7409L631.991 47.4088L630.861 47.5084C630.961 47.2095 631.111 46.9438 632.373 47.0601L633.485 46.9604C632.207 46.595 631.825 45.8311 633.27 45.4824C633.685 45.4824 634.399 45.3993 635.03 45.3329L633.934 45.2001C633.934 44.7849 633.784 44.4527 633.22 44.2368C633.676 44.1464 634.181 44.0717 634.682 43.9954L635.11 43.9293C636.385 43.7276 637.543 43.484 637.721 42.9083C636.241 42.5983 635.868 42.7465 635.531 42.8843L635.404 42.9346C635.146 43.0305 634.834 43.0876 634.017 42.9083L634.399 42.5595L633.27 42.6426C631.36 42.3104 633.901 41.2476 632.589 41.2144C631.277 41.1811 630.845 41.4303 631.077 41.8953C628.304 42.1112 629.931 40.9985 627.39 41.1313C627.136 41.555 625.044 41.6679 622.628 41.7501C622.898 41.8084 623.065 41.9134 622.976 42.0629C622.377 42.2061 621.772 42.2863 621.165 42.3029C620.869 42.0571 621.005 41.8885 621.307 41.7928L621.19 41.7968C621.097 41.7998 621.005 41.8028 620.912 41.8059L620.356 41.8252C619.709 41.8486 619.072 41.8759 618.472 41.9119C617.093 41.4303 618.92 41.4967 618.472 40.7327C617.244 40.9517 615.993 41.0076 614.751 40.8988C614.751 40.5334 614.128 40.3466 613.456 40.1712L613.089 40.0757C612.479 39.915 611.915 39.7385 611.828 39.4208C612.09 39.0004 612.556 38.9216 613.036 38.8888L613.355 38.8704C613.619 38.8554 613.874 38.8344 614.087 38.7565C611.688 38.1529 612.632 37.0782 615.263 36.9133L615.295 36.911L615.176 36.9146C613.685 36.9285 614.047 36.3969 612.692 36.3817C611.895 36.9464 608.091 36.9463 607.51 36.282C606.165 37.0958 605.949 36.8135 603.79 36.4481C600.883 37.3615 596.665 36.4482 593.36 37.4446C593.504 37.1754 593.153 37.0509 592.738 36.9454L592.508 36.889C592.277 36.833 592.05 36.7759 591.898 36.6973C594.091 36.3651 592.23 35.9665 593.443 35.5513C593.036 35.4998 592.461 35.4995 591.858 35.5081L591.454 35.5147L591.073 35.5209C590.001 35.5362 589.038 35.5217 588.992 35.2358C591.832 34.9867 588.909 34.256 590.536 33.5751C589.566 33.3633 588.574 33.263 587.58 33.2762C588.885 32.3106 587.514 31.8371 585.964 31.316L585.539 31.1724L585.256 31.074C585.069 31.0076 584.884 30.9393 584.707 30.8682C588.128 30.4364 582.133 28.4768 587.032 28.0782C583.81 27.9287 582.913 28.4103 581.85 27.9785C581.85 26.8824 582.066 24.242 581.269 23.478C580.189 23.9762 577.947 23.777 575.307 24.325C572.666 24.873 571.121 25.9857 566.355 25.5705C566.487 24.9892 566.537 24.4246 564.91 24.3748C561.614 24.4591 558.347 25.0184 555.21 26.0355C555.21 25.6203 554.662 25.4211 553.749 25.3048C554.181 25.9691 550.643 26.733 552.188 27.6298C550.527 27.8789 547.388 27.6298 546.956 28.2443V28.9418C550.427 29.1577 555.842 28.8089 558.067 29.3901C553.998 30.7187 544.614 32.0473 534.948 32.7115C534.035 31.6819 532.756 32.23 529.783 31.9144C527.209 33.3592 524.07 34.3722 523.704 35.5679C517.543 35.817 510.933 35.6676 505.153 35.95C505.02 35.95 504.622 36.3817 504.389 36.4149C498.061 37.046 492.414 36.1658 491.7 38.5406C492.995 38.8173 494.231 39.3175 495.354 40.0187C493.693 40.2512 494.009 41.1645 492.348 41.3804C489.757 40.9486 489.209 41.2642 486.419 40.7992C484.442 42.4599 486.053 45.2997 483.994 46.429C483.717 46.5834 482.975 46.7345 482.176 46.8975L481.75 46.985C480.185 47.3105 478.677 47.6911 480.207 48.2391C476.404 49.0861 474.262 49.6507 473.464 50.4811C471.961 50.197 470.488 49.7745 469.063 49.2189C468.092 49.2669 467.57 49.4665 467.11 49.6855L466.901 49.7875C466.173 50.1458 465.448 50.5018 463.084 50.2984C463.084 49.5843 462.453 49.0861 460.908 48.837H457.936C452.584 51.5425 446.706 53.0446 440.713 53.2379C440.713 52.64 438.993 52.7254 437.123 52.7969L436.654 52.814C435.397 52.8569 434.132 52.8678 433.322 52.64C434.385 53.0718 432.774 54.0516 431.761 54.5C430.914 54.035 428.09 54.6163 426.596 53.9354C428.124 53.9354 428.107 53.3209 428.854 53.022C428.102 52.9404 427.36 52.7732 426.645 52.5237C428.987 49.8334 420.002 47.3922 411.233 47.9901C409.786 47.5472 408.766 46.9028 407.772 46.2606L407.213 45.901L406.863 45.6821C405.333 44.7435 403.587 43.9509 400.255 44.0043C398.594 42.6426 397.681 41.0317 394.475 40.1183C392.681 39.9854 392.814 40.5169 390.755 40.2844C389.094 39.4706 389.41 38.0424 384.909 38.059C386.403 36.5146 386.653 35.7672 383.53 34.7376L383.929 34.3889H380.74L382.052 34.6712C381.869 34.9203 380.806 35.2026 380.557 34.8705L380.657 34.3723L381.338 33.9405L379.993 33.8076L379.112 34.1398C377.036 33.8575 379.345 33.1433 379.112 32.7281C370.31 31.5989 359.066 31.3165 349.5 31.0674C349.5 31.3664 348.537 31.383 348.736 31.765C350.048 32.6119 352.29 33.1931 353.104 34.2062C349.177 33.8884 347.736 34.414 346.373 34.9672L346.059 35.095C344.746 35.6264 343.335 36.1254 339.684 35.8669C339.566 35.3541 338.282 35.1744 337.002 34.9982L336.599 34.9423C336.399 34.914 336.203 34.885 336.014 34.8539C335.252 35.21 334.275 35.5014 333.297 35.7937L332.879 35.9193C330.724 36.5702 328.717 37.2721 329.188 38.7399C326.863 38.989 327.245 40.4006 326.132 41.0483C323.773 42.327 318.309 42.8584 317.114 44.3697C307.149 42.8418 297.184 42.0613 290.407 44.3697C285.425 43.4065 287.584 41.779 282.369 40.9154C282.153 40.3674 282.518 40.002 283.15 39.7529C277.42 38.8728 284.561 37.7601 281.057 36.1658C277.885 36.963 275.443 36.5644 269.929 36.4315C270.012 35.0863 266.707 34.7708 264.831 33.9737C262.762 34.5431 260.633 34.4617 258.494 34.3401L257.424 34.2787C256.176 34.2099 254.926 34.1619 253.686 34.256C252.158 33.1599 251.129 33.3593 247.043 33.1766C246.495 32.0805 247.89 32.5289 248.571 32.2632C246.163 31.7484 246.91 31.6985 247.143 30.6025C241.512 28.9418 237.842 31.1671 230.8 31.0176C231.228 30.3469 229.749 30.2395 228.243 30.1392L227.867 30.1139C226.931 30.0495 226.045 29.9698 225.668 29.7389C220.038 30.918 207.399 31.5657 202.666 29.5562C202.251 29.5602 201.836 29.5642 201.421 29.568L200.175 29.5793C199.967 29.5812 199.759 29.5831 199.551 29.585L197.682 29.6021C195.814 29.6195 193.95 29.6386 192.104 29.6637L190.876 29.6813C176.172 29.9049 162.764 30.5733 157.258 33.9239C130.685 32.0971 106.437 36.0329 83.7998 34.2394C83.7998 32.9939 89.6459 31.9476 93.5654 31.3498C100.657 30.2537 109.592 30.7021 115.156 29.3735C113.944 29.0248 114.592 28.2775 114.475 27.9453C113.703 28.2775 111.382 28.1318 108.979 27.9595L108.258 27.9074C105.734 27.7256 103.282 27.5641 102.6 27.9453L101.488 27.8124L101.508 27.832L102.88 28.3C102.427 28.173 101.979 28.0269 101.538 27.8622L101.853 28.1778C100.113 28.5985 98.2801 28.3989 96.6713 27.6132V28.5598C87.6031 28.4602 78.5184 29.058 68.4371 28.975C61.0796 28.975 52.8585 28.4768 44.7205 28.5598C40.967 28.5598 36.1671 29.4233 31.3341 29.2573L31.0735 29.248L30.5492 29.2307C30.1108 29.2169 29.6689 29.2049 29.2257 29.195L28.4271 29.1795C27.8945 29.1708 27.3619 29.1653 26.8331 29.1637L26.3058 29.1635L25.7819 29.1658L25.2556 29.1711C18.6203 29.257 13.2438 30.0679 17.1174 32.778C13.3452 33.1857 9.60124 33.8235 5.90674 34.6878L5.17603 34.5549L5.52478 35.269L5.90674 34.9203C9.87625 35.197 13.8642 35.0355 17.7983 34.4387C19.1436 34.1896 17.7983 34.0899 19.3097 33.5253C22.4843 32.791 25.7845 32.791 28.9591 33.5253C29.5404 34.2062 27.8961 34.1232 28.1785 34.6878C30.7528 33.708 34.2737 34.7708 34.8218 35.7506C28.9416 36.9574 22.9541 37.5639 16.9513 37.5608C15.3015 38.3247 12.3747 38.6089 9.39136 38.8463L8.49597 38.9166C7.30299 39.0095 6.12055 39.1019 5.02661 39.2215C3.36578 39.4042 2.13664 39.9356 0.542236 40.0851C-1.36772 40.2678 -3.8756 40.0851 -5.40356 40.218C-5.91842 40.218 -6.3335 40.849 -6.91479 40.8988C-11.1056 41.3707 -15.331 41.4541 -19.5371 41.1479C-29.889 42.6147 -40.3116 43.5294 -50.7607 43.8881C-53.4845 41.1978 -62.2704 43.4231 -70.0099 43.0577C-70.0099 43.5061 -71.0977 43.5726 -72.2021 43.6307L-72.6423 43.6544C-73.5869 43.7086 -74.4366 43.794 -74.4941 44.1538C-76.2878 44.1538 -76.1549 43.6888 -78.1978 43.8549C-80.1849 44.1596 -83.0969 44.1976 -86.2253 44.2016L-88.8027 44.202L-89.7383 44.2038C-94.4131 44.2193 -98.9922 44.3462 -101.25 45.3163L-100.932 45.3168C-100.109 45.3202 -99.1292 45.3495 -99.0413 45.5986L-100.154 45.6982L-99.7886 46.0636C-101.278 46.0478 -102.765 45.9369 -104.24 45.7315C-105.053 46.894 -108.94 46.9936 -112.444 47.2427C-113.456 46.3606 -114.775 45.913 -116.115 45.9972C-118.184 46.767 -120.198 47.677 -122.143 48.7208C-122.328 45.9818 -126.903 44.5283 -131.919 43.2204L-132.562 43.0541L-133.207 42.8889C-133.638 42.779 -134.07 42.6694 -134.5 42.5595V-0.5L1573.5 -0.5ZM-92.5 45.65L-99.5 45.35C-97.1887 45.35 -94.8939 45.47 -92.5 45.65ZM380.5 34.05L375.5 34.95C377.137 34.4771 378.811 34.1757 380.5 34.05ZM386 43.3C387.851 42.2426 389.923 41.8869 391.944 42.28C392.606 43.62 387.192 44.52 386 43.3ZM486.191 53.2606H483.191L483.451 52.8206L482.691 52.5306C483.561 51.7106 486.391 52.2106 486.191 53.2606ZM501.241 48.9506C500.331 49.2206 496.361 49.4306 496.191 48.6506C497.683 48.2823 499.206 48.048 500.741 47.9506C500.891 48.2706 501.451 48.4106 501.241 48.9506ZM501.741 43.3406C501.601 42.7906 500.391 42.7806 499.741 43.0906C499.801 42.4806 500.481 42.1606 501.741 42.0906C501.441 42.5506 503.211 43.1306 501.741 43.3406ZM517.441 37.3406C518.981 37.1706 518.921 37.7606 520.441 37.5906C520.611 38.8506 517.001 38.3406 517.441 37.3406ZM517.911 46.2505C517.681 45.4905 518.991 45.4805 520.431 45.5405C520.541 46.7205 519.701 46.3405 517.911 46.2505ZM521.151 42.5706C520.322 42.7412 519.477 42.8184 518.631 42.8005L521.151 42.5706ZM529.441 42.0306C528.461 42.0815 528.169 41.8124 527.927 41.5147L527.824 41.3862C527.721 41.2577 527.61 41.1315 527.441 41.0306C528.721 41.0306 529.441 41.3906 529.441 42.0306ZM531.441 47.0605H529.931L529.961 46.5806H531.441V47.0605ZM533.531 38.6506V37.9305H535.041C535.131 38.4605 534.631 38.7006 533.531 38.6506ZM536 47.5806C537.62 47.7906 537 46.9505 538 46.8605C539.35 47.3405 536.61 48.7506 536 47.5806ZM542.831 43.1506L538.291 44.5806C538.471 44.3706 538.63 44.1405 538.76 44.0005C540.24 43.8505 541.441 43.3406 542.831 43.1506ZM543.051 52.0806C544.161 51.5606 545.111 52.3306 547.051 52.0806C547.681 53.1606 542.441 53.1306 543.051 52.0806ZM552.181 38.2606C551.441 38.3806 550.911 38.6105 550.181 38.7305C549.641 38.1205 551.871 37.6706 552.181 38.2606ZM550.661 39.6906C551.661 39.6906 551.311 39.0406 552.661 39.2206C553.061 39.7606 550.821 40.2006 550.661 39.6906ZM555.711 39.2405C555.711 38.8205 556.101 38.6206 556.711 38.5206C557.441 38.8706 557.441 39.4605 555.711 39.2405ZM558.441 46.8306L556.671 48.0306C556.441 47.4306 557.441 47.0506 558.441 46.8306ZM560.888 29.1766C559.761 28.7166 561.274 27.8966 563.077 27.8166C564.156 28.2566 563.077 29.2766 560.888 29.1766ZM561.741 44.0806C562.401 44.0806 562.201 43.6606 562.741 43.6006C563.321 44.1006 561.951 44.7506 561.741 44.0806ZM568.261 30.4006C566.311 30.5406 566.311 29.2006 568.261 29.4006V30.4006ZM581.691 47.1205L580.931 47.2405L581.181 47.6006C579.391 47.2106 577.031 48.1706 577.181 46.6006C577.261 46.1606 578.891 46.4606 579.181 46.1306L579.691 46.0106L580.191 45.8906C580.316 46.1506 580.578 46.353 580.866 46.543L581.215 46.7679C581.389 46.8803 581.556 46.9945 581.691 47.1205ZM632 46.6L630.125 47.4L630 47.26C630.417 47.08 631.028 46.92 632 46.6ZM635.5 49.8111C633.747 49.8511 632.669 49.6911 632.5 49.1911C633.526 49.1377 634.55 49.3492 635.5 49.8111ZM646.011 45.1574C647.005 45.1574 646.522 44.4575 647.927 44.6375C648.467 45.2575 645.812 45.6774 646.011 45.1574ZM761.5 45.65L754.5 45.35C756.811 45.35 759.106 45.47 761.5 45.65ZM1234.5 34.05L1229.5 34.95C1231.14 34.4771 1232.81 34.1757 1234.5 34.05ZM1240 43.3C1241.85 42.2426 1243.92 41.8869 1245.94 42.28C1246.61 43.62 1241.19 44.52 1240 43.3ZM1340.19 53.2606H1337.19L1337.45 52.8206L1336.69 52.5306C1337.56 51.7106 1340.39 52.2106 1340.19 53.2606ZM1355.24 48.9506C1354.33 49.2206 1350.36 49.4306 1350.19 48.6506C1351.68 48.2823 1353.21 48.048 1354.74 47.9506C1354.89 48.2706 1355.45 48.4106 1355.24 48.9506ZM1355.74 43.3406C1355.6 42.7906 1354.39 42.7806 1353.74 43.0906C1353.8 42.4806 1354.48 42.1606 1355.74 42.0906C1355.44 42.5506 1357.21 43.1306 1355.74 43.3406ZM1371.44 37.3406C1372.98 37.1706 1372.92 37.7606 1374.44 37.5906C1374.61 38.8506 1371 38.3406 1371.44 37.3406ZM1371.91 46.2505C1371.68 45.4905 1372.99 45.4805 1374.43 45.5405C1374.54 46.7205 1373.7 46.3405 1371.91 46.2505ZM1375.15 42.5706C1374.32 42.7412 1373.48 42.8184 1372.63 42.8005L1375.15 42.5706ZM1383.44 42.0306C1382.46 42.0815 1382.17 41.8124 1381.93 41.5147L1381.82 41.3862C1381.72 41.2577 1381.61 41.1315 1381.44 41.0306C1382.72 41.0306 1383.44 41.3906 1383.44 42.0306ZM1385.44 47.0605H1383.93L1383.96 46.5806H1385.44V47.0605ZM1387.53 38.6506V37.9305H1389.04C1389.13 38.4605 1388.63 38.7006 1387.53 38.6506ZM1390 47.5806C1391.62 47.7906 1391 46.9505 1392 46.8605C1393.35 47.3405 1390.61 48.7506 1390 47.5806ZM1396.83 43.1506L1392.29 44.5806C1392.47 44.3706 1392.63 44.1405 1392.76 44.0005C1394.24 43.8505 1395.44 43.3406 1396.83 43.1506ZM1397.05 52.0806C1398.16 51.5606 1399.11 52.3306 1401.05 52.0806C1401.68 53.1606 1396.44 53.1306 1397.05 52.0806ZM1406.18 38.2606C1405.44 38.3806 1404.91 38.6105 1404.18 38.7305C1403.64 38.1205 1405.87 37.6706 1406.18 38.2606ZM1404.66 39.6906C1405.66 39.6906 1405.31 39.0406 1406.66 39.2206C1407.06 39.7606 1404.82 40.2006 1404.66 39.6906ZM1409.71 39.2405C1409.71 38.8205 1410.1 38.6206 1410.71 38.5206C1411.44 38.8706 1411.44 39.4605 1409.71 39.2405ZM1412.44 46.8306L1410.67 48.0306C1410.44 47.4306 1411.44 47.0506 1412.44 46.8306ZM1414.89 29.1766C1413.76 28.7166 1415.27 27.8966 1417.08 27.8166C1418.16 28.2566 1417.08 29.2766 1414.89 29.1766ZM1415.74 44.0806C1416.4 44.0806 1416.2 43.6606 1416.74 43.6006C1417.32 44.1006 1415.95 44.7506 1415.74 44.0806ZM1422.26 30.4006C1420.31 30.5406 1420.31 29.2006 1422.26 29.4006V30.4006ZM1435.69 47.1205L1434.93 47.2405L1435.18 47.6006C1433.39 47.2106 1431.03 48.1706 1431.18 46.6006C1431.26 46.1606 1432.89 46.4606 1433.18 46.1306L1433.69 46.0106L1434.19 45.8906C1434.32 46.1506 1434.58 46.353 1434.87 46.543L1435.22 46.7679C1435.39 46.8803 1435.56 46.9945 1435.69 47.1205ZM1486 46.6L1484.12 47.4L1484 47.26C1484.42 47.08 1485.03 46.92 1486 46.6ZM1489.5 49.8111C1487.75 49.8511 1486.67 49.6911 1486.5 49.1911C1487.53 49.1377 1488.55 49.3492 1489.5 49.8111ZM1500.01 45.1574C1501 45.1574 1500.52 44.4575 1501.93 44.6375C1502.47 45.2575 1499.81 45.6774 1500.01 45.1574Z" fill="#191919"></path></g></g><defs><clipPath id="clip0_4327_56227"><rect width="1440" height="94" fill="white"></rect></clipPath></defs></svg>