<svg xmlns="http://www.w3.org/2000/svg" xmlns:xlink="http://www.w3.org/1999/xlink" width="150px" height="40px" viewBox="0 0 150 40"><title>GettyImages-1022219186 [Converted]</title><g id="Page-1" stroke="none" stroke-width="1" fill="none" fill-rule="evenodd"><g id="Home--Barber" transform="translate(-645.000000, -25.000000)" fill="#000000" fill-rule="nonzero"><g id="nav" transform="translate(80.000000, 4.000000)"><path d="M599.368132,21.6405758 C599.36863,21.4707819 599.298869,21.3085037 599.17571,21.1929667 C599.052552,21.0774298 598.887204,21.0191484 598.719635,21.0322103 L593.361816,21.0322103 C593.022127,21.0322103 592.790521,21.2193997 592.697879,21.6561749 C590.515635,33.0955269 588.338539,44.8000638 586.166589,56.7697857 C586.043066,57.3001557 586.166589,57.5341424 586.660682,57.4561468 L590.767829,56.800984 C591.122958,56.800984 591.308243,56.5046007 591.385445,56.0834246 C591.740574,53.8683501 592.095703,51.6532756 592.466273,49.4538002 C594.736012,49.1730161 597.098393,48.9234302 599.321811,48.6894435 C599.6615,50.7641259 600.016629,52.8076102 600.356318,54.92909 C600.356318,55.3034688 600.634245,55.4906582 600.973934,55.45946 L605.06564,54.9758873 C605.528852,54.9758873 605.683256,54.663905 605.606054,54.1959315 C603.516453,43.5469348 601.437146,32.6951496 599.368132,21.6405758 Z M593.439018,44.2124971 C594.28824,38.9867931 595.137462,33.8234857 595.986684,28.6913764 C596.789585,33.7610892 597.530724,38.7840046 598.379947,43.7601227 L593.439018,44.2124971 Z M577.998617,21.0322103 L568.734376,21.0322103 C568.348366,21.0322103 568.11676,21.2817962 568.11676,21.8433643 L568.11676,38.3160311 L565.291166,40.7494933 C565.106361,40.9095252 565,41.1431523 565,41.3890571 C565,41.6349619 565.106361,41.8685889 565.291166,42.0286208 L568.11676,44.4464838 L568.11676,60.295186 C568.11676,60.7943577 568.348366,61.0439436 568.734376,60.965948 C571.822456,60.2795869 574.874509,59.6400231 577.890534,59.0472567 C581.488147,58.3296973 583.449078,55.6934467 583.464519,51.3568924 C583.464519,48.5334523 583.464519,45.6944132 583.464519,42.855374 C583.62922,41.3283635 582.561907,39.9459473 581.055816,39.7355507 L581.055816,39.641956 C582.544646,39.1415067 583.534889,37.7168552 583.4954,36.1321549 C583.4954,33.3087148 583.4954,30.4696757 583.4954,27.6306365 C583.572602,23.3564786 581.59623,21.0478094 577.983176,21.0322103 L577.998617,21.0322103 Z M578.384627,50.8109233 C578.384627,52.0900508 577.844213,52.7920111 576.840587,52.9480022 L573.351056,53.5407686 C573.351056,50.2649542 573.351056,46.9891398 573.351056,43.7133254 L576.840587,43.3077484 C577.875093,43.1829554 578.384627,43.791321 578.384627,45.0236512 C578.384627,46.9579416 578.384627,48.8766329 578.369186,50.8109233 L578.384627,50.8109233 Z M578.384627,35.0246176 C578.384627,36.2101504 577.844213,36.9121107 576.840587,36.9901063 L573.351056,37.2864895 C573.351056,34.010675 573.351056,30.7348606 573.351056,27.4590462 L576.840587,27.3498524 C577.890534,27.3498524 578.384627,27.9582179 578.384627,29.1905481 C578.50815,31.1404377 578.415508,33.0747281 578.415508,35.0246176 L578.384627,35.0246176 Z M682.977906,37.754463 C682.977906,34.2446618 682.977906,30.7504597 682.977906,27.2406586 C682.977906,23.1848883 681.016975,21.0010121 677.403921,21.0010121 L667.722789,21.0010121 C667.550567,20.9908389 667.382641,21.0577539 667.263665,21.1839634 C667.144688,21.3101729 667.086719,21.4828856 667.105173,21.6561749 L667.244137,53.2131872 C667.226883,53.3906506 667.283747,53.5673335 667.401009,53.7006096 C667.518271,53.8338857 667.685284,53.9116522 667.861753,53.9151474 L671.891698,54.258328 C672.060616,54.2913956 672.234852,54.2387381 672.358048,54.1173878 C672.481243,53.9960376 672.537759,53.8213999 672.509314,53.6499625 C672.509314,50.1557604 672.509314,46.6563587 672.509314,43.1517572 L675.180503,43.3233475 C676.060606,46.9423425 676.940709,50.5769366 677.820812,54.2427289 C677.898014,54.6327068 678.083298,54.8666935 678.469309,54.8978918 L682.483813,55.3814644 C682.916144,55.3814644 683.14775,55.194275 683.024227,54.663905 C682.113243,50.7953242 681.2177,46.9735407 680.306716,43.1829554 C682.066922,42.4653961 683.008787,40.6402995 683.008787,37.754463 L682.977906,37.754463 Z M676.184129,37.8792559 L672.37035,37.6920665 C672.37035,33.9794768 672.37035,30.251288 672.37035,26.5386983 L676.19957,26.5386983 C677.203196,26.5386983 677.74361,27.1470639 677.74361,28.2546011 L677.74361,36.2101504 C677.75905,37.3800842 677.218636,37.9416524 676.21501,37.8792559 L676.184129,37.8792559 Z M691.362044,21.0322103 L687.347539,21.0322103 C686.930648,21.0322103 686.729923,21.2973953 686.745364,21.7341705 C686.745364,32.934336 686.796832,44.1293018 686.899768,55.3190679 C686.878114,55.505462 686.931242,55.6928544 687.047287,55.8394027 C687.163333,55.9859511 687.332633,56.0794505 687.517384,56.0990237 L691.531888,56.676191 C691.917898,56.676191 692.134064,56.5046007 692.134064,56.0678255 C692.134064,44.6284735 692.082596,33.1891216 691.97966,21.7497696 C692.010541,21.2973953 691.778935,21.0322103 691.392924,21.0322103 L691.362044,21.0322103 Z M619.502416,21.0322103 L609.852165,21.0322103 C609.676911,21.0212866 609.506027,21.0902325 609.386434,21.2201162 C609.266841,21.3499999 609.211112,21.5271681 609.234549,21.7029723 C609.234549,32.4247649 609.183081,43.1309584 609.080145,53.8215527 C609.080145,54.2427289 609.311751,54.4767156 609.697761,54.4299183 L613.712265,54.0711386 C613.889896,54.0673263 614.058199,53.9900526 614.177858,53.8573692 C614.297518,53.7246857 614.358052,53.5482139 614.345322,53.3691784 L614.345322,42.9801669 C615.225424,42.9801669 616.120968,42.8709731 617.001071,42.8397749 L619.548737,53.0727952 C619.563682,53.2324819 619.643729,53.3786834 619.76968,53.4763373 C619.895631,53.5739912 620.056126,53.6142889 620.212674,53.587566 L624.242619,53.3535793 C624.435056,53.3937762 624.6336,53.3220306 624.757149,53.1676501 C624.880697,53.0132696 624.908559,52.8021069 624.829354,52.6204208 L622.189045,42.1378146 C624.148992,41.0887867 625.275469,38.9363758 625.030079,36.7093222 C625.030079,33.4335077 625.030079,30.1420942 625.030079,26.8662798 C625.076401,23.0600954 623.14635,21.0478094 619.533296,21.0322103 L619.502416,21.0322103 Z M619.749462,35.7109787 C619.779489,36.1432642 619.630169,36.5686873 619.337287,36.8852922 C619.044405,37.2018971 618.63436,37.3811473 618.205422,37.3800842 L614.376202,37.5360753 L614.376202,26.4763019 L618.189982,26.4763019 C618.6115,26.4316153 619.030462,26.5815426 619.330157,26.8843181 C619.629852,27.1870936 619.778254,27.6103624 619.734022,28.0362135 C619.795783,30.5944686 619.795783,33.1527237 619.780343,35.7109787 L619.749462,35.7109787 Z M714.954977,60.2483887 C714.090315,54.8510944 713.241092,49.562994 712.37643,44.33729 L714.630729,42.0754182 C714.804665,41.9020884 714.894602,41.6604082 714.876773,41.4142419 C714.858944,41.1680756 714.735144,40.9421955 714.538086,40.7962906 L711.450006,38.4408241 C710.492701,32.793944 709.540543,27.2198598 708.593532,21.7185714 C708.51633,21.2349988 708.284724,21.0322103 707.945035,21.0322103 L702.587216,21.0322103 C702.232086,21.0322103 702.00048,21.2193997 701.923278,21.6873732 C699.864558,33.6674945 697.805838,45.2940358 695.747118,56.5669972 C695.672099,56.7473101 695.687469,56.9530663 695.788423,57.1199628 C695.889378,57.2868593 696.063603,57.3945388 696.256651,57.4093495 L700.363798,58.1269088 C700.703487,58.1269088 700.888771,57.9865168 700.965973,57.5809398 L701.98504,50.9513153 C704.254779,51.2788968 706.61716,51.6376765 708.809697,52.0120553 C709.164826,54.4143192 709.519956,56.8477813 709.890525,59.2968426 C709.967727,59.7492169 710.153012,60.030001 710.492701,60.0923975 C711.851456,60.3887807 713.194771,60.6695648 714.538086,60.9815471 C714.908656,61.0751418 715.047619,60.8099568 714.985858,60.2483887 L714.954977,60.2483887 Z M702.803381,45.6476158 C703.606282,40.2815198 704.409183,34.8530273 705.212084,29.3621384 C706.045865,34.9154238 706.879647,40.5519045 707.713429,46.2715805 C706.107627,46.0531928 704.470944,45.8348052 702.834262,45.6476158 L702.803381,45.6476158 Z M663.059788,48.2370691 C659.848184,48.0602791 656.626287,47.9250868 653.394097,47.8314921 C653.394097,45.132845 653.394097,42.4341978 653.394097,39.7199516 L660.790049,39.9227401 C661.176059,39.9227401 661.407665,39.7043525 661.407665,39.2675772 C661.407665,37.9260532 661.407665,36.5845292 661.407665,35.2430052 C661.407665,34.7906309 661.176059,34.541045 660.774609,34.541045 L653.409537,34.3850538 C653.409537,31.717605 653.409537,29.0501561 653.409537,26.3671081 L663.044348,26.4451036 C663.50756,26.4451036 663.661964,26.1799187 663.661964,25.7587425 C663.661964,24.4016194 663.661964,23.0444963 663.661964,21.6873732 C663.661964,21.2817962 663.50756,21.0322004 663.044348,21.0322004 L648.854619,21.0322004 C648.691768,21.0312457 648.53625,21.1005419 648.427144,21.2226861 C648.318038,21.3448302 648.265715,21.508211 648.283324,21.6717741 C648.283324,31.9047943 648.283324,42.1274152 648.283324,52.3396367 C648.26575,52.5073465 648.319717,52.6746794 648.431713,52.7997372 C648.54371,52.924795 648.703131,52.9957368 648.870059,52.9947996 C653.625703,53.0883943 658.381346,53.3067819 663.13699,53.6031651 C663.600202,53.6031651 663.754606,53.4003766 663.754606,52.9947996 C663.754606,51.6376765 663.754606,50.2805533 663.754606,48.9234302 C663.708285,48.4710559 663.553881,48.2526682 663.090669,48.2370691 L663.059788,48.2370691 Z M641.952759,37.0213045 L641.952759,36.9277098 C643.35267,36.7395731 644.396915,35.5310219 644.392343,34.1042697 L644.392343,26.7726851 C644.392343,23.0288972 642.415971,21.0322103 638.802917,21.0322103 L629.538677,21.0322103 C629.36491,21.0161993 629.193428,21.0812936 629.073092,21.2089456 C628.952755,21.3365976 628.89676,21.5128097 628.92106,21.6873732 C628.92106,31.9515917 628.92106,42.2262096 628.92106,52.511227 C628.900938,52.6821402 628.959508,52.852937 629.079976,52.9746428 C629.200443,53.0963486 629.369502,53.1555206 629.538677,53.1351916 C632.626757,53.0103987 635.714837,52.9480022 638.802917,52.916804 C642.462292,52.916804 644.438664,50.9357162 644.423313,47.1763292 L644.423313,39.8447445 C644.418963,38.4101533 643.361501,37.2016027 641.952759,37.0213045 Z M639.250689,46.0687919 C639.294921,46.494643 639.146519,46.9179118 638.846824,47.2206873 C638.547129,47.5234628 638.128167,47.6733901 637.706649,47.6287036 L634.186237,47.6287036 C634.186237,44.9300565 634.186237,42.2470085 634.186237,39.5639604 L637.706649,39.5639604 C638.129585,39.513138 638.552232,39.6610679 638.853401,39.9653324 C639.15457,40.2695969 639.300994,40.696589 639.250689,41.1238721 L639.250689,46.0687919 Z M639.250689,32.793944 C639.300994,33.2212271 639.15457,33.6482192 638.853401,33.9524837 C638.552232,34.2567482 638.129585,34.404678 637.706649,34.3538556 L634.186237,34.3538556 C634.186237,31.6552085 634.186237,28.9721605 634.186237,26.2735134 L637.691208,26.2735134 C638.115575,26.2162459 638.542116,26.3620715 638.844854,26.6679212 C639.147591,26.9737709 639.291933,27.4046961 639.235249,27.833425 L639.250689,32.793944 Z" id="GettyImages-1022219186-[Converted]"></path></g></g></g></svg>