<svg xmlns="http://www.w3.org/2000/svg" xmlns:xlink="http://www.w3.org/1999/xlink" width="150px" height="164px" viewBox="0 0 150 164"><title>GettyImages-1022219186 [Converted]</title><g id="Page-1" stroke="none" stroke-width="1" fill="none" fill-rule="evenodd"><g id="Home--Barber" transform="translate(-425.000000, -7394.000000)" fill="#DFDAD7" fill-rule="nonzero"><g id="Footer-Copy" transform="translate(0.000000, 7272.000000)"><g id="Group-35" transform="translate(223.263145, 114.000000)"><g id="GettyImages-1022219186-[Converted]" transform="translate(201.736855, 8.000000)"><path d="M105,29.0999039 C104.800205,30.6788025 101.557377,31.294573 98.2069672,30.2209219 C99.3482033,30.1020869 100.460877,29.7815942 101.495902,29.2735827 C99.0571689,29.3523867 96.6333368,28.8554487 94.4108607,27.820996 C95.2331523,27.9454553 96.0719015,27.886215 96.869877,27.6473171 C94.9208188,27.0628534 93.0996898,26.0979127 91.5061475,24.8052996 C92.009527,24.9266901 92.5262231,24.9797721 93.0430328,24.9631895 C91.6829628,24.114584 90.4109714,23.125253 89.2469262,22.0106491 L89.1239754,21.8843372 C88.9702869,21.7106583 88.7858607,21.5369795 88.6168033,21.3633006 C88.0134726,20.7290216 87.3374205,20.1723348 86.6034836,19.7054571 C85.1850341,18.5862247 83.4432069,17.9860388 81.6547131,18.0002466 C79.2568343,18.0922788 76.9334485,18.8806126 74.9538934,20.2738606 C72.959303,18.8965262 70.6247583,18.1299261 68.2223361,18.0634025 C64.8411885,18.0634025 62.7510246,20.2580716 60.5379098,22.5158966 C58.0020492,25.1368683 57.1260246,25.1210793 57.1567623,25.1368683 C57.642903,25.1477388 58.1284004,25.0946782 58.6014344,24.9789785 C57.2289068,26.5173292 55.3846442,27.525967 53.3760246,27.836785 C54.1685047,28.0783859 55.0039718,28.1323674 55.8196721,27.9946748 C53.6525685,29.1479721 51.2132507,29.6513608 48.7807377,29.4472616 C49.6858655,30.0825694 50.7583266,30.4186119 51.8545082,30.4103897 C48.5809426,31.4998298 45.3995902,31.0577382 45,29.5104175 C45.7069672,33.1734623 50.9016393,34.1208015 50.9016393,34.1208015 C49.3958502,34.2661468 47.8780794,34.0387545 46.4754098,33.4576641 C47.7202869,34.8313059 49.9795082,36.0154798 54.0829918,35.999847 C60.7991803,35.999847 69.4518443,33.6629209 74.9538934,27.4420603 C80.5635246,33.6155539 89.170082,35.826012 95.8862705,35.810223 C99.6209016,35.810223 101.818648,34.7997279 103.109631,33.583976 C101.790389,34.0658049 100.385344,34.2489297 98.9907787,34.1208015 C98.9907787,34.1208015 104.646516,33.1103064 105,29.0999039 Z M74.9846311,25.8631617 C68.8031179,32.4867259 59.982517,35.7930317 51.1014344,34.8155169 C51.1014344,34.8155169 61.8596311,34.3260583 69.2827869,28.942014 C65.9174784,30.4945083 62.3416437,31.5113996 58.6782787,31.9577104 C62.6371064,30.7141668 66.4195408,28.9411225 69.9282787,26.684189 C67.3482276,27.5670462 64.6399388,27.9889341 61.9211066,27.9315189 C65.1303749,27.3548432 68.2382049,26.2905806 71.142418,24.7737216 C72.4292412,23.9331217 73.6291164,22.9596781 74.7233607,21.8685482 L74.9231557,21.6475024 L74.9231557,21.6475024 L74.9231557,21.6475024 L75,21.7580253 L75,21.6001354 L75.3995902,22.073805 C76.494691,23.1088154 77.6834874,24.0340382 78.9497951,24.8368776 C81.8200168,26.2970768 84.878581,27.3285184 88.0327869,27.8999409 C85.3093176,28.0399734 82.5862546,27.615784 80.0256148,26.652611 C83.5418083,28.8952803 87.3223882,30.6674554 91.2756148,31.9261324 C87.7220155,31.4890919 84.2485873,30.5265333 80.9631148,29.0683259 C88.3401639,34.1839574 98.2838115,34.8628838 98.2838115,34.8628838 C89.5709828,35.8017148 80.9370647,32.4667106 74.9846311,25.8631617 L74.9846311,25.8631617 Z" id="Shape"></path><polygon id="Path" points="24.5611448 39 23 39 23 17 41 17 41 18.5299026 24.5611448 18.5299026"></polygon><polygon id="Path" points="74.8991195 164 74.4645575 163.70844 23 128.87468 23 112.578005 24.5520072 111.780051 24.5520072 128.061381 74.8991195 162.143223 125.447993 128.061381 125.447993 110 127 110.890026 127 128.87468 126.674078 129.104859"></polygon><polygon id="Path" points="126 39 124.438855 39 124.438855 18.5299026 108 18.5299026 108 17 126 17"></polygon><path d="M67.310698,88.9461892 C66.8640369,88.9946096 66.5401409,89.3928053 66.5851639,89.8381572 C66.5222407,90.169453 66.6746577,90.5044743 66.9662087,90.6757159 C67.2577598,90.8469575 67.6258002,90.8176252 67.8863157,90.6023847 C68.1468313,90.3871441 68.2438457,90.0322435 68.1288534,89.7151273 C68.104267,89.2830866 67.7450683,88.9454965 67.310698,88.9461892 L67.310698,88.9461892 Z M71.6330286,89.7612635 C71.6330286,88.2233895 69.4409895,87.1468777 64.8716686,86.6855155 C63.9917656,86.6855155 63.0192412,86.5624856 61.9849693,86.5471068 C61.1062846,86.2374093 60.2544293,85.8568043 59.4378816,85.40908 C60.0090467,83.6866611 58.6814738,81.7643186 57.1223474,82.1795446 C56.4660813,82.3141314 55.9158988,82.7570533 55.6460531,83.3680286 C55.3762074,83.9790039 55.4201266,84.6823458 55.7639007,85.2552926 C56.0722706,85.8116873 56.4927099,86.2986067 56.9988523,86.6855155 C52.1207935,86.9623328 46.4091424,87.6697549 40.450501,88.5309643 C26.4338005,90.5763368 18.144188,93.1445864 13.6057409,95.1899589 C11.7507452,96.10372 10.1933148,97.5219873 9.1136045,99.2807038 C8.08920662,101.44236 8.08920662,103.947208 9.1136045,106.108865 C6.64283767,104.656657 5.6171575,101.617409 6.70544891,98.973129 C7.06557296,98.2589627 7.5284138,97.6009925 8.07933255,97.020029 C11.5526339,93.7904935 16.8937995,92.283377 21.3396252,91.1145927 C27.756834,89.5565402 34.2774761,88.4567296 40.8518603,87.8235423 C32.4746135,88.0923548 24.1697376,89.4626681 16.1528285,91.8989084 C13.2845593,92.638399 10.5995474,93.9575263 8.26457528,95.774351 C6.04095826,97.3904566 4.81465548,100.037436 5.02282737,102.771678 C4.97682276,104.710927 6.05112822,106.504656 7.78603154,107.3853 C12.6949641,110.107337 27.3445773,102.125771 35.171083,99.4344912 C44.0657467,96.2515884 53.2777812,94.029437 62.6487558,92.8062541 C65.3502124,92.4064069 71.6175917,92.9446628 71.6330286,89.7612635 Z M56.3350658,85.4398375 C55.3625414,83.9019635 56.6592406,83.1637839 56.6592406,83.1637839 C56.2733182,83.9173422 57.6472018,85.1015052 58.5425417,85.53211 C59.4378816,85.9627147 60.1634157,86.2549107 60.8272022,86.5317281 C59.7466195,86.5317281 58.6042893,86.5317281 57.3847746,86.6240005 C56.9790922,86.2820697 56.6254879,85.8831733 56.3350658,85.4398375 Z M42.0559381,95.9281384 C39.3699184,96.7124542 36.5295297,97.6505573 33.7817624,98.5732817 C29.9997232,99.8343385 24.5196255,102.387209 20.8302077,103.60213 C16.6931199,104.970838 14.1151584,105.370685 12.2781679,104.524854 C10.569222,103.25983 10.1432097,100.888538 11.3056436,99.1115377 C12.849333,96.2818494 19.2247706,94.3595069 31.0957427,91.5298187 C42.2566177,88.8539179 66.6006008,85.6858974 70.2745818,88.961569 C70.552409,89.2403907 70.7125883,89.6145686 70.7222518,90.0073234 C70.3672032,92.6832242 63.204484,90.9454265 56.0726386,92.4371644 C52.33691,93.2061014 46.3010841,94.6978392 42.0559381,95.9281384 L42.0559381,95.9281384 Z M14.5473915,99.5267636 C14.1779737,99.5653571 13.8394514,99.7497141 13.6074125,100.03867 C13.3753736,100.327626 13.2691427,100.697116 13.3124399,101.064638 C13.3398965,101.443194 13.5188723,101.794887 13.8091546,102.040697 C14.0994369,102.286508 14.476682,102.405821 14.8561294,102.371831 C15.640481,102.303883 16.221033,101.615353 16.1528285,100.833957 C16.084624,100.05256 15.3934907,99.4741948 14.6091391,99.5421424 L14.5473915,99.5267636 Z M76.2949708,98.8808566 C75.2761357,98.1119195 73.3619608,96.5894242 71.2316693,95.1899589 C70.7237755,94.7648527 70.0178064,94.6635284 69.4101157,94.9285203 C69.4101157,94.9285203 75.5848736,99.1576739 77.9930292,100.956986 C78.1937089,100.541761 77.3138059,99.6497936 76.2949708,98.8500991 L76.2949708,98.8808566 Z M135.433715,99.5267636 C134.649363,99.4588161 133.95823,100.037181 133.890025,100.818578 C133.821821,101.599975 134.402373,102.288504 135.186725,102.356452 C135.566172,102.390443 135.943417,102.271129 136.233699,102.025318 C136.523982,101.779508 136.702957,101.427815 136.730414,101.049259 C136.769049,100.67936 136.656637,100.309534 136.418512,100.023125 C136.180388,99.7367162 135.836587,99.5578241 135.464589,99.5267636 L135.433715,99.5267636 Z M68.0053583,98.9269928 C66.7086591,99.9573684 65.3810861,101.049259 64.0535132,102.171907 C58.0794349,107.185376 37.3168114,122.76404 36.2671025,123.302296 C35.9738015,123.456084 35.896617,124.194263 36.0972967,125.08623 C42.8277828,120.949349 66.9710863,101.464485 67.6194359,101.341455 C68.2677855,101.218425 71.0618634,106.416439 71.0618634,106.416439 C68.1134165,104.524854 64.8871055,109.169234 59.9627361,111.752862 C55.0383666,114.336491 47.8602105,121.856695 45.1124432,123.210024 C42.9752419,124.246666 40.912123,125.428491 38.9376853,126.747134 C38.4017714,127.127263 37.6829194,127.127263 37.1470055,126.747134 C36.9522351,126.58855 36.7714757,126.413616 36.6067142,126.224257 C36.8618441,126.757642 37.1559354,127.271648 37.4866172,127.762131 C38.7215688,129.038566 40.7592389,129.653716 43.8466179,127.90054 C50.7623467,123.948203 70.9229314,107.123861 71.4323489,106.031971 C71.9417665,104.94008 71.1390479,100.91085 68.0053583,98.9269928 L68.0053583,98.9269928 Z M143.059541,97.0046502 C140.97556,94.2210982 137.023715,92.7754966 133.936336,91.8220147 C125.917708,89.3930915 117.61381,88.0229396 109.237304,87.7466486 C115.993097,88.4183145 122.693568,89.5591156 129.289831,91.1607289 C133.378457,91.987138 137.281156,93.5506753 140.805754,95.774351 C141.838901,96.6212181 142.689531,97.6674228 143.306531,98.8500991 C144.394823,101.494379 143.369142,104.533627 140.898376,105.985835 C141.922774,103.824179 141.922774,101.31933 140.898376,99.1576739 C139.818665,97.3989574 138.261235,95.9806901 136.406239,95.066929 C131.867792,93.0676927 123.57818,90.4533069 109.561479,88.4079344 C103.602838,87.5467249 97.8911867,86.8700604 93.0131279,86.5624856 C93.5192703,86.1755768 93.9397095,85.6886574 94.2480795,85.1322627 C94.5918535,84.5593159 94.6357727,83.855974 94.365927,83.2449987 C94.0960813,82.6340234 93.5458989,82.1911015 92.8896327,82.0565146 C91.3459433,81.6412887 90.0029334,83.5943887 90.5740985,85.2860501 C89.7575509,85.7337744 88.9056955,86.1143793 88.0270109,86.4240769 C86.9927389,86.4240769 86.0202145,86.4240769 85.1403115,86.5624856 C80.5092431,87.0238478 78.3635147,88.1003596 78.3788689,89.6382336 C78.3788689,92.8216329 84.6617678,92.283377 87.3632244,92.5448155 C96.734199,93.7679985 105.946233,95.9901498 114.840897,99.1730526 C122.667403,101.864332 137.317016,109.845898 142.225949,107.123861 C143.960852,106.243217 145.035157,104.449488 144.989153,102.510239 C145.096524,100.493824 144.40342,98.5162528 143.059541,97.0046502 L143.059541,97.0046502 Z M91.7318656,85.2860501 C92.8124483,84.6555218 93.7077882,83.9173422 93.2755551,83.1637839 C93.2755551,83.1637839 94.5568174,83.871206 93.5997299,85.4398375 C93.3093078,85.8831733 92.9557035,86.2820697 92.550021,86.6240005 C91.9325453,86.6240005 89.4626421,86.6240005 88.8297294,86.6240005 C89.833721,86.2614854 90.804657,85.8138619 91.7318656,85.2860501 L91.7318656,85.2860501 Z M137.702938,104.524854 C135.865948,105.370685 133.287986,104.970838 129.150899,103.60213 C125.492355,102.387209 119.981383,99.8343385 116.199344,98.5732817 C113.451577,97.6505573 110.611188,96.7124542 107.925168,95.9281384 C103.680022,94.6978392 97.6441963,93.2061014 93.9084678,92.4371644 C86.7766224,90.8992903 79.6139032,92.6832242 79.2588546,90.0073234 C79.2685181,89.6145686 79.4286974,89.2403907 79.7065246,88.961569 C83.3187579,85.6858974 107.724489,88.8539179 118.885364,91.5298187 C130.756336,94.3595069 137.162647,96.2818494 138.675463,99.1115377 C139.837897,100.888538 139.411884,103.25983 137.702938,104.524854 L137.702938,104.524854 Z M85.9275932,102.171907 C79.9535149,97.1430589 73.76332,92.575573 72.9451646,91.9911809 C72.4751179,92.6640466 71.8291534,93.1958904 71.0773003,93.5290549 C72.8062326,94.6209455 78.7957478,98.619418 79.4595342,99.8958534 C80.1233207,101.172289 77.8386603,104.617127 78.5178836,106.04735 C79.0273012,107.13924 99.1878858,123.963582 106.103615,127.915918 C109.190994,129.669095 111.228664,129.053945 112.463615,127.77751 C112.794297,127.287027 113.088389,126.773021 113.343518,126.239636 C113.174852,126.425279 112.994382,126.599932 112.803227,126.762513 C112.267313,127.142641 111.548461,127.142641 111.012547,126.762513 C109.03811,125.443869 106.974991,124.262045 104.837789,123.225402 C102.090022,121.872073 94.9427397,114.367248 89.9874965,111.768241 C85.0322533,109.169234 81.836816,104.540233 78.8883691,106.431818 C78.8883691,106.431818 81.7441947,101.218425 82.3307967,101.356834 C82.9173987,101.495242 107.12245,120.964728 113.852936,125.101609 C114.053616,124.209642 113.976431,123.471462 113.68313,123.317675 C112.664295,122.76404 91.9016715,107.185376 85.9275932,102.171907 L85.9275932,102.171907 Z M82.6704084,88.9461903 C82.2154263,88.9197751 81.8234929,89.2622812 81.7905054,89.7151273 C81.76904,89.9315012 81.8352425,90.1474505 81.9743918,90.3149558 C82.1135411,90.4824611 82.3141018,90.5876363 82.5314763,90.6070943 C82.7495832,90.623996 82.965166,90.5514829 83.1283516,90.4063304 C83.2915372,90.2611779 83.3881872,90.0559618 83.3959424,89.8381572 C83.4409655,89.3928053 83.1170695,88.9946096 82.6704084,88.9461903 Z" id="Shape"></path><path d="M80.2053515,144.32848 C77.2960655,147.037931 72.7780467,147.037931 69.8687606,144.32848 C70.1088976,145.371277 70.7436886,146.281424 71.6407477,146.86911 L70.3817043,146.86911 C70.0959164,146.877491 69.868637,147.110873 69.8687606,147.395826 L69.8687606,147.488776 C69.8687606,147.771117 70.0984133,148 70.3817043,148 L79.7079517,148 C79.9938632,148.000123 80.2280299,147.773606 80.236439,147.488776 L80.236439,147.380334 C80.2280299,147.095504 79.9938632,146.868987 79.7079517,146.86911 L78.4333645,146.86911 C79.3226312,146.273494 79.9550416,145.36676 80.2053515,144.32848 L80.2053515,144.32848 Z M82.8788758,121.091015 C82.8788758,121.091015 82.8788758,120.982573 82.7856133,120.827657 L82.7856133,120.827657 C82.7810937,120.597829 82.6926752,120.377524 82.5369134,120.207991 C82.5294129,120.295618 82.5294129,120.383722 82.5369134,120.471349 C82.4870296,120.409768 82.4452415,120.34209 82.4125634,120.269957 C82.3598986,120.23477 82.3171016,120.186784 82.2882134,120.130533 C82.3041801,120.004235 82.2707865,119.876655 82.194951,119.774225 C82.1567375,119.733453 82.1032657,119.710308 82.0472854,119.710308 C81.9913051,119.710308 81.9378333,119.733453 81.8996198,119.774225 C81.8996198,119.774225 81.8996198,119.851683 81.8996198,119.882666 C81.8046195,119.900612 81.7063768,119.879441 81.6273017,119.823982 C81.5482266,119.768523 81.4950632,119.683507 81.4799387,119.588325 C81.432482,119.662439 81.3909056,119.740133 81.3555887,119.8207 C81.2312387,119.8207 81.1068888,119.944633 80.9980825,119.960125 C80.969687,119.808233 80.9172183,119.661813 80.8426451,119.526359 C80.8249408,119.506351 80.7994646,119.494889 80.7726982,119.494889 C80.7459319,119.494889 80.7204557,119.506351 80.7027514,119.526359 L80.7027514,119.72775 L80.3141577,119.495375 C80.2680884,119.325455 80.1703484,119.173925 80.0343703,119.061609 C80.0343703,119.061609 80.0343703,119.061609 79.9566516,119.061609 C79.8536156,119.122833 79.7805028,119.223727 79.7545829,119.340459 L79.5680579,119.247509 C79.5330232,119.028707 79.4359451,118.824451 79.2882705,118.658827 C79.2461375,118.768141 79.2199644,118.882917 79.2105518,118.999643 C79.0862018,118.999643 78.9773956,118.736285 78.8530456,118.627843 C78.7286957,118.519402 78.5110832,118.132111 78.3090145,118.534893 C78.2433884,118.450097 78.1327771,118.41335 78.0292271,118.441944 C78.0292271,118.441944 78.0292271,118.287027 77.9515084,118.194077 C77.9515084,118.302519 77.8582459,118.395469 77.8271584,118.488418 L77.7494397,118.488418 C77.6250897,118.348994 77.5007398,118.41096 77.3763898,118.488418 C77.3415974,118.418239 77.2877434,118.359198 77.2209524,118.31801 L77.1432336,118.31801 C77.0034606,118.363189 76.9012109,118.48308 76.8789899,118.627843 L76.3038714,118.627843 C76.2566746,118.52106 76.1938126,118.421862 76.1173464,118.333502 C76.1173464,118.333502 76.1173464,118.333502 76.0240839,118.333502 L75.899734,118.581368 C75.775384,118.457435 75.651034,118.581368 75.5422278,118.581368 C75.4852977,118.472692 75.4118982,118.373413 75.3246154,118.287027 L75.3246154,118.287027 C75.2321843,118.368923 75.167098,118.477037 75.1380904,118.59686 L75.044828,118.59686 L75.044828,118.519402 C74.9742591,118.37093 74.8446488,118.258603 74.6873218,118.209569 L74.6873218,118.209569 C74.6263243,118.296758 74.588855,118.39812 74.5785156,118.50391 L74.4386219,118.50391 C74.3932616,118.519256 74.3440884,118.519256 74.2987282,118.50391 C74.2210094,118.379977 74.1122032,118.271535 74.0344845,118.147602 C73.9567658,118.023669 73.8945908,118.147602 73.8635033,118.147602 C73.8238838,118.214261 73.7974983,118.287893 73.7857846,118.364485 L73.7080658,118.364485 C73.7118253,118.312914 73.7118253,118.26114 73.7080658,118.209569 C73.6614703,118.098545 73.5486655,118.02984 73.4282784,118.039161 L73.4282784,118.039161 C73.3117293,118.059341 73.2228373,118.154263 73.210666,118.271535 L73.210666,118.271535 L73.0707723,118.271535 C72.966549,118.226358 72.8567928,118.195104 72.7443536,118.178586 C72.7280819,118.122679 72.7017475,118.070187 72.6666349,118.023669 C72.6312324,117.99211 72.5776874,117.99211 72.5422849,118.023669 C72.4178756,118.139699 72.3221122,118.282862 72.2624975,118.441944 C72.1939483,118.562003 72.0911561,118.659058 71.9671663,118.720793 C71.9114135,118.580663 71.8697592,118.435361 71.8428164,118.287027 C71.7794814,118.443173 71.727534,118.60367 71.6873789,118.767268 C71.6313976,118.752127 71.572379,118.752127 71.5163977,118.767268 C71.5163977,118.627843 71.3920477,118.488418 71.3454165,118.348994 C71.2987853,118.209569 71.2210665,118.348994 71.2210665,118.348994 C71.2210665,118.348994 71.2210665,118.643335 71.1122603,118.813743 L71.0034541,118.906693 L70.9101916,119.015134 C70.8686301,118.908886 70.8109662,118.809619 70.7392104,118.720793 C70.6194921,118.949415 70.5356194,119.194965 70.4905105,119.4489 L70.4905105,119.4489 L70.4905105,119.4489 C70.4312528,119.273176 70.3585001,119.102262 70.272898,118.937676 C70.272898,118.860218 70.1174606,118.937676 70.1174606,118.937676 C70.0851637,119.105068 70.043651,119.270562 69.9931106,119.433409 C69.8623637,119.387338 69.7197201,119.387338 69.5889732,119.433409 L69.5889732,119.433409 L69.4490795,119.092593 C69.4490795,119.092593 69.4490795,119.092593 69.4490795,119.092593 C69.4490795,119.092593 69.3402733,119.464392 69.2936421,119.650292 C69.2470108,119.836191 68.9205922,119.836191 68.7962422,119.650292 C68.6563485,119.944633 68.5319985,119.944633 68.4231923,120.068566 C68.3143861,120.192499 68.2366674,120.409382 68.1744924,120.564299 C68.0426288,120.931556 67.9845323,121.321076 68.0035112,121.71068 C68.0074093,122.094922 68.0703131,122.476304 68.1900361,122.84157 L71.5474852,132.523848 C71.5474852,132.523848 70.2262668,127.024314 69.4646233,123.87951 C69.3091858,123.259845 69.1848358,122.717637 69.0915734,122.330346 C68.9983109,121.943055 68.9516797,121.679697 68.9516797,121.741664 C68.9516797,121.478306 69.0449421,122.051497 69.2159233,122.407804 C69.3869045,122.764112 69.604517,123.39927 69.8532169,124.06541 C70.8946479,126.729973 71.7961851,126.218749 71.4075915,123.21337 C71.4075915,122.84157 71.2987853,122.485263 71.252154,122.159938 C71.2055228,121.834614 71.1588915,121.571256 71.1278041,121.338881 C71.0967166,121.106506 71.1278041,120.936098 71.1278041,120.827657 C71.1845894,120.95556 71.2212876,121.091411 71.2366103,121.230439 C71.2366103,121.447322 71.2987853,121.695189 71.4231352,121.974038 C71.500854,122.26838 71.5785727,122.578212 71.6562914,122.919029 L73.1951222,132.678764 C73.1951222,132.678764 72.6044599,122.872554 72.4645662,120.424874 C72.4645662,120.300941 72.4645662,120.146024 72.4645662,120.022091 C72.4645662,119.898158 72.4645662,120.223483 72.5422849,120.440366 C72.7909848,122.206413 73.6769783,127.101772 74.2831844,127.008823 C74.6717856,125.553784 74.8600355,124.052832 74.8427593,122.547229 C74.8427593,121.834614 74.8427593,121.183964 74.920478,120.626265 C74.9981967,120.068566 74.920478,119.836191 74.920478,119.309476 C74.920478,119.309476 74.920478,119.123576 74.920478,118.999643 L74.920478,118.999643 C74.9137512,119.107981 74.9137512,119.216629 74.920478,119.324967 C74.920478,119.696767 74.920478,120.022091 74.920478,120.641757 C74.920478,121.261423 74.920478,121.850105 74.920478,122.547229 L75.3090716,133.189988 L77.3142148,121.524781 C77.3142148,121.199456 77.423021,120.920607 77.4696523,120.657249 C77.5162835,120.393891 77.5629148,120.161516 77.5940022,119.960125 C77.6123577,119.824525 77.6383044,119.690055 77.671721,119.557342 C77.671721,119.557342 77.671721,119.72775 77.671721,119.929141 C77.671721,120.130533 77.671721,120.130533 77.671721,120.502332 C77.671721,120.874132 77.671721,121.091015 77.671721,121.400847 C77.3763898,125.041384 78.4489083,126.32719 79.3970767,122.950012 C79.4903392,122.609196 79.5680579,122.283871 79.6457767,122.005022 C79.7234954,121.726172 79.8012141,121.524781 79.8478454,121.276914 C79.9085792,121.223696 79.9518964,121.153541 79.9721953,121.075523 L79.9721953,121.369864 C79.9721953,121.633222 79.8944766,121.881088 79.8478454,122.190921 C79.8012141,122.500754 79.7390391,122.872554 79.6924079,123.244353 C79.2416393,126.23424 78.2779271,130.432476 78.2779271,130.432476 C78.2779271,130.432476 79.9566516,126.884889 80.9048201,124.235818 L81.4799387,122.686654 C81.6198324,122.237396 81.6975511,121.958547 81.7130948,122.036005 C81.7286386,122.113463 81.7130948,122.407804 81.5887449,122.640179 C81.4643949,122.872554 81.3866762,123.554186 81.2467825,124.189343 C80.5628577,127.287672 79.3504455,132.849172 79.3504455,132.849172 L82.7700696,123.182387 C82.8886449,122.842273 82.9618101,122.48809 82.987682,122.128955 C83.0218038,121.75876 82.9848773,121.385475 82.8788758,121.029048 L82.8788758,121.091015 Z M76.6613775,136.133401 L79.6613204,136.133401 C79.9446114,136.133401 80.174264,135.904518 80.174264,135.622176 L80.174264,135.513735 C80.174264,135.231394 79.9446114,135.002511 79.6613204,135.002511 L70.335073,135.002511 C70.0492852,135.010892 69.8220057,135.244273 69.8221294,135.529227 L69.8221294,135.622176 C69.8132868,135.76167 69.8639402,135.898402 69.961615,135.998699 C70.0592898,136.098997 70.1949089,136.153538 70.335073,136.148892 L73.3661034,136.148892 C72.4055382,136.357707 71.5031857,136.77563 70.7236667,137.372732 C68.3754462,139.013439 67.4840513,142.058487 68.5786298,144.70028 C68.0728123,142.8946 68.4849525,140.956513 69.6822357,139.510579 C69.7560202,139.434195 69.8338501,139.361797 69.9153919,139.293696 C70.8399423,138.579535 71.8961602,138.053196 73.024141,137.744532 C72.2780412,138.00789 71.7961851,138.410672 71.7961851,138.85993 C71.7961851,139.650004 73.2262097,140.285161 74.982653,140.285161 C76.7390962,140.285161 78.0914021,139.650004 78.0914021,138.85993 C78.0914021,138.410672 77.609546,138.00789 76.8634462,137.744532 C77.7481964,137.942155 78.5836252,138.316311 79.319358,138.844438 C80.9960531,140.180504 81.8312794,142.305848 81.5110262,144.42143 C81.5110262,144.42143 81.5110262,144.42143 81.5110262,144.42143 C82.2619308,142.126028 81.6067937,139.60495 79.8323016,137.961415 C78.9925848,137.055527 77.9160008,136.401012 76.7235525,136.071434 L76.6613775,136.133401 Z" id="Shape"></path><path d="M46.8500377,9.86844229 L47.5197187,9.11895095 L46.9123336,8.26238942 L44,10.357906 L44.5762371,11.1532846 L45.5262497,10.7861868 L49.4508917,16.2620623 C49.6352013,16.4335891 49.7227865,16.682599 49.685576,16.9292829 C49.6483654,17.1759668 49.4910328,17.3893408 49.264004,17.5010173 L48.641045,17.9292981 L49.24843,19 L49.4041698,18.9235213 C49.4041698,18.9235213 49.8402411,18.6940852 50.0894248,18.525832 C50.6387388,18.1778301 51.02087,17.625912 51.1484552,16.9962579 C51.2302909,16.3465533 51.0453571,15.6915848 50.6345139,15.1760646 L46.8500377,9.86844229 Z M52.1451897,5.27971982 C51.1288891,5.7344136 50.3702419,6.60835802 50.0738508,7.6658555 C49.825455,8.79502164 50.0025286,9.97434932 50.572218,10.9850314 C51.0263547,12.0299205 51.8507993,12.8776765 52.8927405,13.3711671 C53.2647565,13.5354356 53.6684886,13.6189134 54.0763627,13.6159778 C54.7136072,13.6031635 55.3384558,13.4405632 55.898518,13.141731 C56.9199106,12.6137421 57.6695081,11.6898008 57.9654366,10.5940819 C58.2613651,9.49836308 58.07658,8.33100281 57.4559156,7.37523641 C56.3034413,5.00439647 54.2476765,4.20901791 52.1451897,5.24912834 L52.1451897,5.27971982 Z M55.2599849,11.8874802 C54.0140668,12.4993098 52.9394624,11.9180717 52.0361718,10.1437656 C51.1173072,8.35416387 51.3197689,7.17639177 52.6435569,6.51867489 C53.9673449,5.860958 55.0263753,6.44219618 55.898518,8.18591072 C56.6149209,9.37897856 57.0042703,11.0309186 55.3222808,11.8568887 L55.2599849,11.8874802 Z M66.6289877,1.56285462 L66.3486561,0.553335677 L63.0469731,1.48637591 L63.2961567,2.43471189 L64.3240392,2.43471189 L65.5388093,6.94695565 L60.5395629,2.11350132 L57.8919869,2.87828839 L58.1411706,3.81132863 L59.169053,3.81132863 L60.7264506,9.53193597 L59.82316,10.006104 L60.1034916,11.0003272 L63.5297664,10.1131742 L63.2650088,9.10365521 L62.1281085,9.10365521 L60.9756343,4.60670719 L65.8658628,9.27190837 L65.9437327,9.34838707 L67.6568701,8.90481057 L65.787993,1.9605439 L66.6289877,1.56285462 Z M72.329063,3.45952657 C71.4101984,3.21479471 70.6159256,3.01595007 70.5536297,2.35823318 C70.5536297,1.92995242 70.8495353,1.4098972 71.8462698,1.3334185 C72.2174165,1.31262616 72.5896916,1.34352399 72.9520221,1.42519295 L73.4503893,2.66414801 L74.5405677,2.57237356 L74.4471238,0.29330807 L74.3069581,0.29330807 C73.4682494,0.0799019972 72.6033965,-0.017907924 71.7372519,0.00268898066 C71.0054993,0.0332415268 70.3023121,0.290218063 69.728209,0.736884576 C69.1603712,1.23230702 68.8753377,1.96929517 68.9650841,2.71003524 C69.089676,4.36197533 70.5224818,4.75966461 71.7372519,5.06557944 C72.6405426,5.3103113 73.4192414,5.50915594 73.4659633,6.16687283 C73.5126853,6.82458972 72.7339864,7.26816622 71.9085657,7.32934919 C71.5227705,7.36060547 71.1346896,7.30839346 70.7716654,7.17639177 L70.4290379,5.93743671 L69.1519719,6.02921116 L69.3232856,8.35416387 L69.4478774,8.35416387 C70.1311762,8.55003353 70.8385931,8.65296369 71.5503642,8.6600787 L71.9708616,8.6600787 C72.8984488,8.63674751 73.7783547,8.2514416 74.4159759,7.5893768 C74.8677253,7.06856587 75.0817078,6.38831234 75.007787,5.70800058 C74.992213,4.1325392 73.5438332,3.73484992 72.391359,3.42893509 L72.329063,3.45952657 Z M81.1283597,0.109759172 C79.9842246,-0.0186386395 78.839445,0.345105582 77.9886969,1.10736099 C77.1379488,1.86961639 76.6643382,2.95592143 76.6897764,4.08665198 C76.5028607,5.2077402 76.7292736,6.35754551 77.3283095,7.32934919 C77.962686,8.15737409 78.9378087,8.66702825 79.9914594,8.72126167 L80.4431047,8.72126167 C81.5581637,8.72944231 82.6301927,8.29906679 83.420142,7.52610371 C84.2100913,6.75314063 84.6522703,5.70186806 84.6480784,4.60670719 C84.8117366,3.50480288 84.5686771,2.38174745 83.9628234,1.44048869 C83.3019887,0.582875876 82.284863,0.0609502412 81.1906556,0.0179847222 L81.1283597,0.109759172 Z M81.9070585,6.82458972 C81.4566029,7.263557 80.8214655,7.46770661 80.1939211,7.37523641 C78.8234112,7.222279 78.2160261,6.16687283 78.4184878,4.19372217 C78.4484967,3.38741641 78.7374175,2.61109442 79.2439086,1.97583964 C79.6056558,1.61884912 80.1018426,1.42502778 80.6144185,1.44048869 L80.925898,1.44048869 C82.3431299,1.57815036 82.9660889,2.63355653 82.7636272,4.499637 C82.7709363,5.33067704 82.4909131,6.13956079 81.9693544,6.79399823 L81.9070585,6.82458972 Z M92.2014569,3.61248399 L93.0735996,4.1325392 L91.6407938,8.5836 L90.0833961,1.86876945 L87.4202462,1.10398237 L87.1243406,2.03702261 L87.9964833,2.55707782 L86.205476,8.17061497 L85.1931675,8.09413627 L84.866114,9.07306373 L88.2612409,10.1284699 L88.5882944,9.14954243 L87.5915599,8.59889574 L88.9932178,4.22431365 L90.5506154,10.7555953 L90.5506154,10.8626655 L92.2326049,11.3827207 L94.4441095,4.53022848 L95.456418,4.60670719 L95.7834715,3.61248399 L92.4817885,2.66414801 L92.2014569,3.61248399 Z M99.4433559,5.61622613 C99.5893262,5.36027576 99.6284118,5.05866152 99.5523738,4.77496035 C99.4545357,4.54738771 99.2701448,4.36629108 99.0384326,4.27020088 C98.8090671,4.15226872 98.5396882,4.13484066 98.2965531,4.22220337 C98.053418,4.30956607 97.85909,4.49361216 97.7613665,4.72907312 C97.6634441,4.92863717 97.6256202,5.15152625 97.6523487,5.37149427 C97.6708572,5.44689282 97.6708572,5.52553184 97.6523487,5.60093039 C97.3768548,5.92261898 97.0307634,6.17885758 96.6400402,6.35042173 L96.4843004,6.42690044 L96.9203718,7.39053215 L97.0916855,7.31405345 C98.0790454,7.03622531 98.9342794,6.42387102 99.5056518,5.58563465 L99.4433559,5.61622613 Z M105.906556,9.65430191 C105.367895,8.99071126 104.732978,8.40836516 104.022105,7.92588311 C103.418976,7.51718556 102.698779,7.30820177 101.96634,7.32934919 C101.211324,7.39207307 100.535919,7.81523713 100.159759,8.46123406 C99.2564682,9.86844229 100.159759,11.0462144 100.954032,11.9945504 C101.530269,12.7134502 102.028636,13.3252799 101.670435,13.8759266 C101.556631,14.0680507 101.363354,14.2020444 101.140919,14.2430244 C100.654309,14.3087012 100.160226,14.1942025 99.7548355,13.9218138 C99.4287758,13.719331 99.1479644,13.4539438 98.9294147,13.141731 L99.412208,11.9486631 L98.3220296,11.2603548 L97.0449636,13.2335054 L97.1228335,13.3405756 C97.6386083,14.0094776 98.2650864,14.5885701 98.9761366,15.0536987 C99.5801561,15.4540373 100.287897,15.6768928 101.016328,15.6961198 L101.234363,15.6961198 C102.050907,15.6345049 102.784497,15.1827725 103.196684,14.4877562 C104.053253,13.1723225 103.196684,12.0098461 102.371264,11.0768059 C101.545843,10.1437656 101.281085,9.71548487 101.639287,9.16483818 C101.997488,8.61419148 102.433559,8.56830426 103.290128,9.08835947 C103.596332,9.29120929 103.873878,9.532938 104.115549,9.80725932 L103.772921,11.0921016 L104.691786,11.6733398 L106,9.77666784 L105.906556,9.65430191 Z" id="Shape"></path><path d="M34.3681322,44.6405758 C34.3686302,44.4707819 34.2988687,44.3085037 34.1757103,44.1929667 C34.0525518,44.0774298 33.8872044,44.0191484 33.7196353,44.0322103 L28.3618161,44.0322103 C28.0221272,44.0322103 27.7905212,44.2193997 27.6978788,44.6561749 C25.5156354,56.0955269 23.3385388,67.8000638 21.166589,79.7697857 C21.0430658,80.3001557 21.166589,80.5341424 21.6606819,80.4561468 L25.7678286,79.800984 C26.1229579,79.800984 26.3082427,79.5046007 26.3854447,79.0834246 C26.7405739,76.8683501 27.0957032,74.6532756 27.4662728,72.4538002 C29.7360118,72.1730161 32.0983932,71.9234302 34.321811,71.6894435 C34.6614998,73.7641259 35.0166291,75.8076102 35.3563179,77.92909 C35.3563179,78.3034688 35.6342451,78.4906582 35.973934,78.45946 L40.0656403,77.9758873 C40.5288524,77.9758873 40.6832564,77.663905 40.6060544,77.1959315 C38.5164534,66.5469348 36.437146,55.6951496 34.3681322,44.6405758 Z M28.4390181,67.2124971 C29.2882401,61.9867931 30.1374622,56.8234857 30.9866843,51.6913764 C31.7895852,56.7610892 32.5307244,61.7840046 33.3799465,66.7601227 L28.4390181,67.2124971 Z M12.9986167,44.0322103 L3.73437585,44.0322103 C3.34836581,44.0322103 3.11675979,44.2817962 3.11675979,44.8433643 L3.11675979,61.3160311 L0.291166338,63.7494933 C0.1063605,63.9095252 0,64.1431523 0,64.3890571 C0,64.6349619 0.1063605,64.8685889 0.291166338,65.0286208 L3.11675979,67.4464838 L3.11675979,83.295186 C3.11675979,83.7943577 3.34836581,84.0439436 3.73437585,83.965948 C6.82245613,83.2795869 9.8745088,82.6400231 12.8905339,82.0472567 C16.4881474,81.3296973 18.4490784,78.6934467 18.4645188,74.3568924 C18.4645188,71.5334523 18.4645188,68.6944132 18.4645188,65.855374 C18.6292203,64.3283635 17.5619068,62.9459473 16.0558162,62.7355507 L16.0558162,62.641956 C17.5446456,62.1415067 18.5348886,60.7168552 18.4953996,59.1321549 C18.4953996,56.3087148 18.4953996,53.4696757 18.4953996,50.6306365 C18.5726016,46.3564786 16.5962302,44.0478094 12.9831763,44.0322103 L12.9986167,44.0322103 Z M13.3846267,73.8109233 C13.3846267,75.0900508 12.8442127,75.7920111 11.8405866,75.9480022 L8.35105586,76.5407686 C8.35105586,73.2649542 8.35105586,69.9891398 8.35105586,66.7133254 L11.8405866,66.3077484 C12.8750935,66.1829554 13.3846267,66.791321 13.3846267,68.0236512 C13.3846267,69.9579416 13.3846267,71.8766329 13.3691863,73.8109233 L13.3846267,73.8109233 Z M13.3846267,58.0246176 C13.3846267,59.2101504 12.8442127,59.9121107 11.8405866,59.9901063 L8.35105586,60.2864895 C8.35105586,57.010675 8.35105586,53.7348606 8.35105586,50.4590462 L11.8405866,50.3498524 C12.8905339,50.3498524 13.3846267,50.9582179 13.3846267,52.1905481 C13.5081499,54.1404377 13.4155075,56.0747281 13.4155075,58.0246176 L13.3846267,58.0246176 Z M117.977906,60.754463 C117.977906,57.2446618 117.977906,53.7504597 117.977906,50.2406586 C117.977906,46.1848883 116.016975,44.0010121 112.403921,44.0010121 L102.722789,44.0010121 C102.550567,43.9908389 102.382641,44.0577539 102.263665,44.1839634 C102.144688,44.3101729 102.086719,44.4828856 102.105173,44.6561749 L102.244137,76.2131872 C102.226883,76.3906506 102.283747,76.5673335 102.401009,76.7006096 C102.518271,76.8338857 102.685284,76.9116522 102.861753,76.9151474 L106.891698,77.258328 C107.060616,77.2913956 107.234852,77.2387381 107.358048,77.1173878 C107.481243,76.9960376 107.537759,76.8213999 107.509314,76.6499625 C107.509314,73.1557604 107.509314,69.6563587 107.509314,66.1517572 L110.180503,66.3233475 C111.060606,69.9423425 111.940709,73.5769366 112.820812,77.2427289 C112.898014,77.6327068 113.083298,77.8666935 113.469309,77.8978918 L117.483813,78.3814644 C117.916144,78.3814644 118.14775,78.194275 118.024227,77.663905 C117.113243,73.7953242 116.2177,69.9735407 115.306716,66.1829554 C117.066922,65.4653961 118.008787,63.6402995 118.008787,60.754463 L117.977906,60.754463 Z M111.184129,60.8792559 L107.37035,60.6920665 C107.37035,56.9794768 107.37035,53.251288 107.37035,49.5386983 L111.19957,49.5386983 C112.203196,49.5386983 112.74361,50.1470639 112.74361,51.2546011 L112.74361,59.2101504 C112.75905,60.3800842 112.218636,60.9416524 111.21501,60.8792559 L111.184129,60.8792559 Z M126.362044,44.0322103 L122.347539,44.0322103 C121.930648,44.0322103 121.729923,44.2973953 121.745364,44.7341705 C121.745364,55.934336 121.796832,67.1293018 121.899768,78.3190679 C121.878114,78.505462 121.931242,78.6928544 122.047287,78.8394027 C122.163333,78.9859511 122.332633,79.0794505 122.517384,79.0990237 L126.531888,79.676191 C126.917898,79.676191 127.134064,79.5046007 127.134064,79.0678255 C127.134064,67.6284735 127.082596,56.1891216 126.97966,44.7497696 C127.010541,44.2973953 126.778935,44.0322103 126.392924,44.0322103 L126.362044,44.0322103 Z M54.5024156,44.0322103 L44.8521648,44.0322103 C44.6769114,44.0212866 44.5060268,44.0902325 44.386434,44.2201162 C44.2668413,44.3499999 44.211112,44.5271681 44.2345487,44.7029723 C44.2345487,55.4247649 44.1830807,66.1309584 44.0801447,76.8215527 C44.0801447,77.2427289 44.3117507,77.4767156 44.6977607,77.4299183 L48.7122651,77.0711386 C48.8898956,77.0673263 49.0581988,76.9900526 49.1778581,76.8573692 C49.2975175,76.7246857 49.3580524,76.5482139 49.3453216,76.3691784 L49.3453216,65.9801669 C50.2254244,65.9801669 51.1209677,65.8709731 52.0010706,65.8397749 L54.5487368,76.0727952 C54.5636819,76.2324819 54.6437286,76.3786834 54.7696799,76.4763373 C54.8956312,76.5739912 55.056126,76.6142889 55.2126741,76.587566 L59.2426188,76.3535793 C59.4350557,76.3937762 59.6336004,76.3220306 59.7571487,76.1676501 C59.880697,76.0132696 59.9085593,75.8021069 59.8293541,75.6204208 L57.1890455,65.1378146 C59.1489919,64.0887867 60.2754689,61.9363758 60.0300793,59.7093222 C60.0300793,56.4335077 60.0300793,53.1420942 60.0300793,49.8662798 C60.0764005,46.0600954 58.1463503,44.0478094 54.5332964,44.0322103 L54.5024156,44.0322103 Z M54.749462,58.7109787 C54.7794891,59.1432642 54.6301689,59.5686873 54.337287,59.8852922 C54.0444052,60.2018971 53.6343601,60.3811473 53.2054219,60.3800842 L49.3762024,60.5360753 L49.3762024,49.4763019 L53.1899815,49.4763019 C53.6114997,49.4316153 54.0304619,49.5815426 54.3301568,49.8843181 C54.6298517,50.1870936 54.7782535,50.6103624 54.7340216,51.0362135 C54.7957832,53.5944686 54.7957832,56.1527237 54.7803428,58.7109787 L54.749462,58.7109787 Z M149.954977,83.2483887 C149.090315,77.8510944 148.241092,72.562994 147.37643,67.33729 L149.630729,65.0754182 C149.804665,64.9020884 149.894602,64.6604082 149.876773,64.4142419 C149.858944,64.1680756 149.735144,63.9421955 149.538086,63.7962906 L146.450006,61.4408241 C145.492701,55.793944 144.540543,50.2198598 143.593532,44.7185714 C143.51633,44.2349988 143.284724,44.0322103 142.945035,44.0322103 L137.587216,44.0322103 C137.232086,44.0322103 137.00048,44.2193997 136.923278,44.6873732 C134.864558,56.6674945 132.805838,68.2940358 130.747118,79.5669972 C130.672099,79.7473101 130.687469,79.9530663 130.788423,80.1199628 C130.889378,80.2868593 131.063603,80.3945388 131.256651,80.4093495 L135.363798,81.1269088 C135.703487,81.1269088 135.888771,80.9865168 135.965973,80.5809398 L136.98504,73.9513153 C139.254779,74.2788968 141.61716,74.6376765 143.809697,75.0120553 C144.164826,77.4143192 144.519956,79.8477813 144.890525,82.2968426 C144.967727,82.7492169 145.153012,83.030001 145.492701,83.0923975 C146.851456,83.3887807 148.194771,83.6695648 149.538086,83.9815471 C149.908656,84.0751418 150.047619,83.8099568 149.985858,83.2483887 L149.954977,83.2483887 Z M137.803381,68.6476158 C138.606282,63.2815198 139.409183,57.8530273 140.212084,52.3621384 C141.045865,57.9154238 141.879647,63.5519045 142.713429,69.2715805 C141.107627,69.0531928 139.470944,68.8348052 137.834262,68.6476158 L137.803381,68.6476158 Z M98.0597879,71.2370691 C94.8481845,71.0602791 91.6262874,70.9250868 88.3940967,70.8314921 C88.3940967,68.132845 88.3940967,65.4341978 88.3940967,62.7199516 L95.7900489,62.9227401 C96.176059,62.9227401 96.407665,62.7043525 96.407665,62.2675772 C96.407665,60.9260532 96.407665,59.5845292 96.407665,58.2430052 C96.407665,57.7906309 96.176059,57.541045 95.7746085,57.541045 L88.4095371,57.3850538 C88.4095371,54.717605 88.4095371,52.0501561 88.4095371,49.3671081 L98.0443475,49.4451036 C98.5075596,49.4451036 98.6619636,49.1799187 98.6619636,48.7587425 C98.6619636,47.4016194 98.6619636,46.0444963 98.6619636,44.6873732 C98.6619636,44.2817962 98.5075596,44.0322004 98.0443475,44.0322004 L83.8546187,44.0322004 C83.6917678,44.0312457 83.5362501,44.1005419 83.427144,44.2226861 C83.3180378,44.3448302 83.2657152,44.508211 83.2833238,44.6717741 C83.2833238,54.9047943 83.2833238,65.1274152 83.2833238,75.3396367 C83.2657495,75.5073465 83.319717,75.6746794 83.4317133,75.7997372 C83.5437096,75.924795 83.7031305,75.9957368 83.8700591,75.9947996 C88.6257027,76.0883943 93.3813463,76.3067819 98.1369899,76.6031651 C98.600202,76.6031651 98.754606,76.4003766 98.754606,75.9947996 C98.754606,74.6376765 98.754606,73.2805533 98.754606,71.9234302 C98.7082848,71.4710559 98.5538808,71.2526682 98.0906687,71.2370691 L98.0597879,71.2370691 Z M76.9527592,60.0213045 L76.9527592,59.9277098 C78.3526704,59.7395731 79.3969148,58.5310219 79.3923427,57.1042697 L79.3923427,49.7726851 C79.3923427,46.0288972 77.4159713,44.0322103 73.8029174,44.0322103 L64.5386765,44.0322103 C64.3649099,44.0161993 64.193428,44.0812936 64.0730916,44.2089456 C63.9527552,44.3365976 63.8967598,44.5128097 63.9210605,44.6873732 C63.9210605,54.9515917 63.9210605,65.2262096 63.9210605,75.511227 C63.9009383,75.6821402 63.9595082,75.852937 64.0799757,75.9746428 C64.2004432,76.0963486 64.3695023,76.1555206 64.5386765,76.1351916 C67.6267568,76.0103987 70.7148371,75.9480022 73.8029174,75.916804 C77.4622925,75.916804 79.4386639,73.9357162 79.4233133,70.1763292 L79.4233133,62.8447445 C79.4189635,61.4101533 78.3615013,60.2016027 76.9527592,60.0213045 Z M74.250689,69.0687919 C74.2949209,69.494643 74.1465191,69.9179118 73.8468242,70.2206873 C73.5471293,70.5234628 73.1281671,70.6733901 72.7066489,70.6287036 L69.1862373,70.6287036 C69.1862373,67.9300565 69.1862373,65.2470085 69.1862373,62.5639604 L72.7066489,62.5639604 C73.1295845,62.513138 73.5522321,62.6610679 73.8534008,62.9653324 C74.1545696,63.2695969 74.3009943,63.696589 74.250689,64.1238721 L74.250689,69.0687919 Z M74.250689,55.793944 C74.3009943,56.2212271 74.1545696,56.6482192 73.8534008,56.9524837 C73.5522321,57.2567482 73.1295845,57.404678 72.7066489,57.3538556 L69.1862373,57.3538556 C69.1862373,54.6552085 69.1862373,51.9721605 69.1862373,49.2735134 L72.6912085,49.2735134 C73.1155752,49.2162459 73.5421159,49.3620715 73.8448537,49.6679212 C74.1475915,49.9737709 74.2919334,50.4046961 74.2352486,50.833425 L74.250689,55.793944 Z" id="Shape"></path></g></g></g></g></g></svg>