<svg xmlns="http://www.w3.org/2000/svg" xmlns:xlink="http://www.w3.org/1999/xlink" width="538px" height="650px" viewBox="0 0 538 650"><title>guus-baggermans-cg599DTeS8w-unsplash</title><defs><path d="M48.812252,1.6297905 C49.346091,1.70986021 50.0326461,1.73845653 50.7329284,1.76080252 L51.2002917,1.77527014 C52.5216067,1.81645037 53.7816997,1.87118585 54.043874,2.24425141 L54.043874,2.94174757 C50.5727343,3.15763924 45.1584208,2.80889116 42.9329055,3.39013797 C47.0019448,4.7187021 56.3856476,6.04726622 66.0516919,6.71154829 C66.9651497,5.68191109 68.2439907,6.22994379 71.2168806,5.91440981 C73.7911708,7.3592233 76.9301439,8.37225345 77.295527,9.56796117 C83.4572151,9.81706694 90.0673279,9.66760347 95.8470245,9.94992335 C95.9798911,9.94992335 96.3784909,10.3817067 96.6110074,10.4149208 C102.938779,11.0459888 108.585609,10.165815 109.299767,12.5406234 C108.005198,12.8173015 106.768756,13.3174602 105.645935,14.018651 C107.306768,14.2511497 106.99121,15.1645376 108.652042,15.3804292 C111.24294,14.9486459 111.791015,15.2641799 114.581214,14.7991824 C116.557604,16.4598876 114.946597,19.2996934 117.006029,20.4289729 C117.283043,20.5834498 118.02483,20.7345096 118.823618,20.8974972 L119.24959,20.9849835 C120.814579,21.310471 122.323199,21.6911088 120.792727,22.2391415 C124.596033,23.0861012 126.738506,23.6507409 127.535706,24.4810935 C129.038563,24.1970087 130.511911,23.7744959 131.936912,23.2189576 C132.908499,23.2669335 133.42961,23.4665 133.88972,23.6854966 L134.099166,23.7874704 C134.826991,24.1458387 135.55199,24.5018523 137.915908,24.2984159 C137.915908,23.5843127 138.547025,23.0861012 140.091599,22.8369954 L143.064489,22.8369954 C148.415696,25.5425026 154.294078,27.0445779 160.28732,27.2378641 C160.28732,26.6400102 162.006451,26.7254179 163.876655,26.7968815 L164.346446,26.8140534 C165.602775,26.8569186 166.868171,26.8677641 167.678024,26.6400102 C166.615091,27.0717936 168.226099,28.0516096 169.239207,28.5 C170.086231,28.0350026 172.909646,28.6162494 174.404395,27.9353602 C172.876429,27.9353602 172.893038,27.3208993 172.145663,27.0219724 C172.898505,26.9403638 173.639591,26.7732144 174.35457,26.5237609 C172.012797,23.8334185 180.9979,21.3921819 189.767095,21.9900358 C191.213864,21.5471811 192.234411,20.9027783 193.228129,20.2606149 L193.786898,19.9009775 L194.136878,19.6821077 C195.667288,18.7435186 197.41267,17.9508845 200.745196,18.0043434 C202.406029,16.6425652 203.319487,15.0316811 206.524893,14.1182933 C208.318592,13.9854369 208.185725,14.5168625 210.245158,14.2843638 C211.90599,13.4706183 211.590432,12.0424119 216.091287,12.0590189 C214.596538,10.5145631 214.347413,9.76724578 217.469778,8.73760858 L217.071179,8.3888605 L220.259977,8.3888605 L218.947919,8.67118038 C219.130611,8.92028615 220.193543,9.20260603 220.442668,8.870465 L220.343018,8.37225345 L219.662077,7.94047011 L221.007351,7.80761369 L221.887592,8.13975473 C223.963633,7.85743485 221.655076,7.14333163 221.887592,6.72815534 C230.690004,5.59887583 241.933839,5.31655595 251.500233,5.06745018 C251.500233,5.36637711 252.463516,5.38298416 252.264216,5.76494635 C251.801137,6.06387328 251.222202,6.32970103 250.631097,6.59309502 L250.039776,6.85681351 C249.15823,7.25458164 248.327067,7.66987285 247.896227,8.20618293 C251.823312,7.88845557 253.26434,8.41400461 254.627089,8.96722801 L254.941276,9.09501498 C256.253732,9.62641397 257.665055,10.1253941 261.315753,9.86688809 C261.434087,9.35414538 262.718233,9.1744663 263.998043,8.99825664 L264.400684,8.94234239 C264.600568,8.91405851 264.797272,8.88499617 264.986192,8.85385795 C265.748055,9.2100262 266.725066,9.50136005 267.70258,9.79369713 L268.120919,9.91923782 C270.27603,10.5701655 272.283253,11.2721273 271.812213,12.739908 C274.137378,12.9890138 273.755387,14.4006132 274.868145,15.0482882 C277.226527,16.3270312 282.690665,16.8584568 283.886464,18.3696985 C293.851459,16.8418498 303.816453,16.0613183 310.592649,18.3696985 C315.575146,17.4064895 313.416064,15.7789985 318.631077,14.9154318 C318.846986,14.3673991 318.481602,14.0020439 317.850486,13.7529382 C323.580358,12.8727644 316.438779,11.760092 319.943135,10.165815 C323.115325,10.9629535 325.556748,10.5643843 331.070712,10.4315278 C330.98767,9.08635667 334.292727,8.77082269 336.169467,7.97368421 C338.23839,8.54306884 340.366967,8.46172818 342.505615,8.34010452 L343.575549,8.2787619 C344.824249,8.20987339 346.073564,8.16189746 347.313652,8.25600409 C348.841618,7.15993868 349.871334,7.3592233 353.956982,7.17654573 C354.505056,6.08048033 353.109957,6.52887072 352.429016,6.26315789 C354.837223,5.74833929 354.089848,5.69851814 353.857332,4.60245273 C359.487553,2.94174757 363.157993,5.16709249 370.199922,5.01762902 C369.772157,4.34686616 371.250841,4.23945874 372.757147,4.1391297 L373.133211,4.11387299 C374.069375,4.04949028 374.955169,3.96976457 375.331894,3.73888605 C380.962116,4.91798671 393.60105,5.56566173 398.334422,3.55620848 L398.956654,3.56215259 L400.825393,3.57933381 C401.03313,3.58121256 401.240882,3.5830872 401.448632,3.58496374 L403.317846,3.60206563 C405.186043,3.61954238 407.049758,3.63862926 408.896088,3.6636961 L410.124258,3.6813412 C424.827994,3.90486432 438.235646,4.57325352 443.741579,7.92386306 C470.314897,6.09708738 494.563049,10.0329586 517.200194,8.23939704 C517.200194,6.99386817 511.354065,5.94762391 507.4345,5.34977006 C500.342746,4.25370465 491.407468,4.70209504 485.84368,3.37353091 C487.056087,3.02478283 486.408363,2.27746551 486.524621,1.94532448 C487.297101,2.27746551 489.618134,2.13178331 492.020468,1.95944863 L492.74214,1.90739982 C495.266258,1.72558866 497.718245,1.56413471 498.399572,1.94532448 L499.51233,1.81246806 L499.492,1.832 L498.12,2.3 C498.573484,2.17297108 499.021356,2.02692543 499.462431,1.86226671 L499.146947,2.1778232 C500.887278,2.5985749 502.719894,2.39888204 504.328744,1.61318344 L504.328744,2.55978539 C509.314286,2.50500341 514.304848,2.66105011 519.463269,2.79886382 C519.794719,4.34660467 519.753156,5.92956792 519.339039,7.47082847 C520.003321,8.91190198 519.50511,6.54803578 520.269034,6.87670167 C519.172969,8.89926099 520.933316,10.2897705 520.401891,12.5145858 C522.062596,11.1367172 523.524016,21.9321276 522.212059,18.6833917 C522.5442,20.769156 522.859734,24.8142746 520.933316,24.3591988 C521.265457,25.7497083 520.468319,27.1149358 520.933316,27.1781408 C521.564384,25.5853753 521.481349,27.4183197 521.664027,28.2905484 C522.5442,25.7623493 523.324732,26.457604 524.437404,25.9519642 C525.616505,28.7582653 523.540623,30.7681836 524.869188,33.8525865 C524.265607,33.8525865 523.741922,34.9559456 523.18439,36.1466326 L522.986023,36.5688467 C522.652452,37.2730656 522.302539,37.9661409 521.913132,38.441268 C522.295095,38.1884481 522.361523,41.5130299 521.913132,41.272851 C520.850281,41.9807468 520.949923,39.7432905 520.003321,40.1983664 C520.003321,41.5509529 520.451712,41.399261 520.302248,43.0046674 L520.767246,42.7012835 C520.634389,43.6367172 520.584568,44.5974329 520.51814,45.4570206 L520.219213,44.6985609 C519.687787,46.5062233 519.272611,48.4023726 518.409044,48.1242707 C518.556243,49.1924349 518.413505,49.6161694 518.258379,50.0057965 L518.186913,50.185425 C518.104868,50.3973516 518.031611,50.6266133 518.010475,50.9684947 C518.409044,50.9684947 518.624936,51.3856476 518.741185,52.0809024 C518.137427,52.7418229 517.98325,53.5820954 518.326009,54.3436406 L518.475473,55.1905873 L518.359223,56.037534 C518.334937,57.3605805 518.21296,58.6815417 517.993868,59.9941657 C517.811191,57.6176585 515.868166,58.7932711 516.333163,56.6569428 C516.111468,57.8171254 515.285436,58.8605046 514.04139,59.5517308 C514.525925,62.3409294 513.9735,62.7108036 513.387387,62.8785639 L513.273795,62.9091052 C512.933372,62.9967302 512.603415,63.0644405 512.480327,63.5462855 C512.779254,65.012641 513.02836,66.5548425 513.75907,66.8961494 L514.091211,66.6054065 L513.991569,67.4649942 C514.290496,67.3891482 514.556208,67.2753792 514.439959,66.3146636 L514.539601,65.4677168 C514.904957,66.4410735 515.668881,66.7318164 516.017629,65.6320498 C516.017629,65.3160249 516.100664,64.7724621 516.167092,64.2921042 L516.299949,65.12641 C516.715125,65.12641 517.047266,65.2401789 517.263158,65.6699728 C517.611906,64.3300272 517.728155,62.4465189 518.591722,62.2442629 C519.172969,64.3553092 518.143332,63.5083625 518.591722,65.063205 L518.94047,64.7724621 L518.857435,65.6320498 C519.189576,67.0857643 520.252427,65.1516919 520.285641,66.1503306 C520.318855,67.1489693 520.06975,67.4776352 519.604752,67.3006612 C519.50511,68.2749903 519.688475,68.5357389 519.901774,68.7241973 L520.063407,68.8620069 C520.258151,69.038368 520.424885,69.2887009 520.368677,70.1069623 C519.704394,70.4103462 519.804037,74.1520809 519.588145,76.895177 C520.06975,77.9443796 520.003321,76.5538701 520.767246,76.895177 C520.548252,77.8293477 520.492412,78.7814517 520.601175,79.72676 C520.963034,79.72676 521.14976,80.1919206 521.323738,80.6976858 L521.439617,81.036219 C521.596356,81.4831931 521.771535,81.887705 522.079203,81.9515753 C522.82652,81.5976274 522.494379,80.7506807 522.743485,80.2323998 C523.341339,82.0407275 524.401246,81.3530714 524.581761,79.3947325 L524.58796,79.2993308 L524.585157,79.4638147 C524.590687,80.5285784 525.103347,80.2816997 525.118293,81.2942435 C524.553654,81.9010113 524.553654,84.7957993 525.217936,85.2382342 C524.40419,86.2621548 524.68651,86.4264877 525.051865,88.0698172 C524.138477,90.2819914 525.051865,93.4928044 524.055442,96.0083625 C524.520439,95.8187476 524.553654,96.7541813 524.802759,97.1207701 C524.974981,96.2555642 525.165062,96.2196353 525.366058,96.2569668 L525.452847,96.2752472 C525.613111,96.3089026 525.7795,96.3211101 525.948646,95.9451575 C526.114716,96.9437962 525.749361,99.2697394 526.26418,99.3329444 C526.513286,97.1713341 527.243996,99.3961494 527.924885,98.1573318 C528.13671,98.8962595 528.237002,99.6511811 528.223812,100.407429 C529.235865,99.3664058 529.707299,100.56297 530.25956,101.808452 L530.379365,102.075292 C530.460362,102.252621 530.543915,102.427758 530.631834,102.594321 C530.815572,101.486217 531.275969,101.675975 531.77501,101.972342 L531.925644,102.063259 C532.556132,102.445479 533.209814,102.808142 533.421819,100.824582 C533.571283,103.276935 533.089678,103.959549 533.521461,104.768573 C534.617527,104.768573 537.258048,104.60424 538.021972,105.211007 C537.523761,106.032672 537.723045,107.739207 537.175013,109.749125 C537.047138,110.218106 536.888523,110.641663 536.725748,111.06155 L536.585828,111.421529 C536.096883,112.685123 535.638861,114.023046 535.929484,116.562622 C536.510731,116.461494 537.07537,116.423571 537.125192,117.662388 C537.040935,120.171157 536.481604,122.65755 535.464486,125.04473 C535.879663,125.04473 536.078947,125.461883 536.195197,126.157137 C535.530915,125.828471 534.76699,128.521004 533.87021,127.345391 C533.621104,128.60949 533.87021,130.998639 533.255749,131.327305 L532.558252,131.327305 C532.342361,128.685336 532.691109,124.564372 532.109862,122.870478 C530.781298,125.967522 529.452734,133.109685 528.788452,140.466744 C529.818089,141.161999 529.270056,142.135356 529.58559,144.398094 C528.140777,146.357448 527.127747,148.746597 525.932039,149.024699 C525.682933,153.714508 525.832397,158.745624 525.550077,163.144691 C525.550077,163.245819 525.118293,163.549203 525.085079,163.726177 C524.454011,168.542396 525.334185,172.840335 522.959377,173.383897 C522.682698,172.39857 522.18254,171.457484 521.481349,170.602878 C521.379631,171.155922 521.147586,171.421037 520.900641,171.650161 L520.688018,171.843615 C520.441981,172.07274 520.214023,172.337855 520.119571,172.890898 C520.297364,173.702897 520.348449,174.251271 520.379493,174.763714 L520.403682,175.199461 C520.436024,175.782887 520.481995,176.404352 520.700818,177.403734 C519.040112,178.908012 516.200307,177.681836 515.071027,179.249319 C514.917789,179.45847 514.767914,180.015719 514.606423,180.618108 L514.536457,180.878156 C514.206225,182.096364 513.820969,183.322018 513.260858,182.131466 C512.413899,185.026254 511.849259,186.656943 511.018906,187.263711 C511.302991,188.407572 511.725504,189.528972 512.281042,190.613574 C512.148186,192.661416 510.852836,192.07993 511.201584,195.164333 C511.915687,195.164333 512.413899,195.644691 512.663005,196.820303 L512.663005,199.083042 C509.957497,203.155975 508.455422,207.630153 508.262136,212.191754 C509.30838,212.191754 508.262136,216.19895 508.85999,217.816997 C508.428206,217.007974 507.44839,218.23415 507,219.005251 C507.464997,219.649942 506.883751,221.798911 507.56464,222.936601 C507.56464,221.773629 508.179101,221.78627 508.478028,221.217425 C508.559636,221.790431 508.726786,222.35449 508.976239,222.898678 C511.666582,221.116297 514.107818,227.955076 513.509964,234.629522 C513.989014,235.820692 514.703903,236.632259 515.396683,237.449004 L515.672004,237.776891 C516.672707,238.986842 517.551865,240.318294 517.495657,242.98522 C517.791695,243.260024 518.099507,243.507945 518.409365,243.75275 L518.781556,244.04654 C519.773366,244.834103 520.746306,245.687095 521.381707,247.384286 C521.514563,248.749514 520.983137,248.648386 521.215636,250.215869 C521.431039,250.550484 521.689497,250.779695 521.952815,250.999397 L522.128661,251.145509 C522.802285,251.708272 523.452215,252.348108 523.440981,254.6655 C524.985437,253.52781 525.732754,253.338195 526.762391,255.714702 L527.111139,255.411319 L527.111139,257.83839 L526.82882,256.839751 C526.579714,256.978802 526.297394,257.787826 526.629535,257.977441 L527.127747,257.901595 L527.55953,257.383314 L527.692386,258.407235 L527.360245,259.077207 C527.529637,260.025282 527.854471,259.771956 528.176914,259.45583 L528.284089,259.349691 C528.461846,259.174122 528.633453,259.018216 528.771845,259.077207 C529.901124,265.776935 530.183444,274.334889 530.43255,281.616103 C530.133623,281.616103 530.117016,282.34928 529.735054,282.197588 C528.888094,281.19895 528.306847,279.492415 527.293817,278.873007 C527.941492,284.965967 525.085079,283.196227 525.633112,289.086931 C526.280787,289.2007 526.397036,290.730261 526.646142,291.880591 C525.450434,293.827305 524.985437,297.619603 522.760092,297.07604 C522.510986,298.84578 521.099387,298.555037 520.451712,299.401984 C519.172969,301.197005 518.641543,305.355893 517.130301,306.266044 C518.65815,313.850642 519.438682,321.435239 517.130301,326.592765 C518.09351,330.385064 519.721002,328.741735 520.584568,332.711007 C521.132601,332.87534 521.497956,332.597238 521.747062,332.116881 C522.627236,336.478024 523.739908,331.042396 525.334185,333.709646 C524.537046,336.124076 524.935616,337.982303 525.068472,342.179113 C525.885183,342.140739 526.322347,343.052954 526.718189,344.09531 L526.856733,344.467268 C527.063627,345.029303 527.270093,345.60076 527.526316,346.059899 C526.956931,347.634606 527.038272,349.254717 527.159895,350.882494 L527.221238,351.696847 C527.290127,352.647262 527.338103,353.598146 527.243996,354.542007 C528.340061,355.704979 528.140777,356.48872 528.323454,359.598405 C529.41952,360.015558 528.971129,358.953715 529.236842,358.435434 C529.751661,360.268378 529.801482,359.699533 530.897547,359.522559 C532.558252,363.807857 530.332908,366.601517 530.482371,371.961299 C531.142124,371.641061 531.256863,372.724623 531.355922,373.851232 L531.387299,374.206847 C531.451482,374.914591 531.531635,375.58237 531.761114,375.867367 C530.582013,380.152664 529.934338,389.772462 531.943792,393.375146 C531.936581,393.941995 531.929732,394.509691 531.922968,395.077609 L531.90265,396.781408 L531.881173,398.482797 C531.712828,411.130422 531.309446,423.266277 527.576137,427.935628 C529.402913,448.161221 525.467041,466.617075 527.260603,483.846752 C528.506132,483.846752 529.552376,479.397122 530.15023,476.413847 C531.246295,471.016142 530.797905,464.215286 532.126469,459.980552 C532.475217,460.903345 533.222534,460.410346 533.554676,460.498833 C532.840572,461.762933 534.335207,468.475301 533.554676,469.537145 L533.687532,470.384092 L533.322177,470.10599 C532.901425,471.430598 533.101118,472.825447 533.886817,474.049981 L532.940215,474.049981 C533.039857,480.951964 532.442003,487.866589 532.525038,495.539673 C532.525038,501.139634 533.02325,507.396927 532.940215,513.591015 C532.940215,516.44788 532.076648,520.101128 532.242718,523.779658 C532.264732,524.240025 532.283675,524.707469 532.298671,525.177459 L532.31232,525.648131 C532.326633,526.197847 532.33518,526.748975 532.33657,527.294323 L532.335977,527.760182 C532.335576,527.837533 532.33502,527.914725 532.334306,527.991735 L532.328092,528.45146 C532.238147,533.480873 531.423952,537.539823 528.722024,534.60035 C528.31426,537.471521 527.676469,540.321051 526.812213,543.133022 L526.945069,543.689226 L526.230966,543.423765 L526.579714,543.133022 C526.302955,540.111732 526.464464,537.076426 527.061318,534.082069 C527.310424,533.058149 527.410066,534.082069 527.974706,532.931739 C528.708989,530.5155 528.708989,528.003558 527.974706,525.58732 C527.293817,525.144885 527.376852,526.396344 526.812213,526.181447 C527.792029,524.222093 526.729177,521.542201 525.749361,521.125049 C524.542573,525.600613 523.936072,530.157901 523.939193,534.72676 C523.132828,536.052192 522.86101,538.46057 522.614473,540.859443 L522.536865,541.615392 C522.45891,542.368476 522.37813,543.109145 522.278487,543.802995 C522.09581,545.067095 521.564384,546.002528 521.414921,547.216064 C521.232243,548.669778 521.414921,550.578569 521.282064,551.74154 C521.282064,552.133411 520.650996,552.449436 520.601175,552.891871 C520.129283,556.081566 520.045892,559.297643 520.352069,562.499028 C518.885339,570.378097 517.970657,578.311011 517.611906,586.2641 C520.302248,588.337223 518.076903,595.02431 518.442259,600.915014 C518.02836,600.915014 517.93992,601.620516 517.883046,602.39023 L517.855879,602.777469 C517.801364,603.550773 517.729433,604.281408 517.346193,604.328082 C517.346193,604.890235 517.425034,605.203767 517.506193,605.486662 L517.574541,605.726725 C517.66167,606.050363 517.723271,606.415334 517.64512,607.147025 C517.338074,608.670686 517.301858,610.908685 517.298348,613.309865 L517.298126,615.132735 C517.294937,618.95824 517.226253,622.845737 516.1837,624.692727 L516.18303,624.417044 C516.178681,623.798081 516.146057,623.077207 515.90138,623.011474 L515.801737,623.858421 L515.436382,623.580319 C515.452228,624.713812 515.563168,625.845378 515.768523,626.968106 C514.60603,627.587515 514.506387,630.545508 514.257282,633.212758 C515.139406,633.982866 515.586958,634.986702 515.50281,636.006418 C514.732996,637.581309 513.823034,639.114423 512.779254,640.595099 C515.490002,640.734083 516.941601,644.146235 518.239156,647.917996 C517.860458,647.8387 517.405092,647.7998 516.887703,647.823428 C515.849786,648.247045 517.051231,648.975968 518.656136,649.151102 C518.750934,649.433869 518.845571,649.717408 518.94047,650 L507.831631,649.999769 C507.737463,649.797416 507.813117,649.58772 508.187748,649.37021 C507.653909,649.29014 506.967354,649.261543 506.267072,649.239197 L505.799708,649.22473 C504.478393,649.18355 503.2183,649.128814 502.956126,648.755749 L502.956126,648.058252 C504.153071,647.983807 505.581071,647.976501 507.029704,647.97505 L507.899677,647.974393 C510.362076,647.971742 512.762482,647.950593 514.067095,647.609862 C509.998055,646.281298 500.614352,644.952734 490.948308,644.288452 C490.03485,645.318089 488.756009,644.770056 485.783119,645.08559 C483.208829,643.640777 480.069856,642.627747 479.704473,641.432039 C473.542785,641.182933 466.932672,641.332397 461.152975,641.050077 C461.020109,641.050077 460.621509,640.618293 460.388993,640.585079 C454.061221,639.954011 448.414391,640.834185 447.700233,638.459377 C448.994802,638.182698 450.231244,637.68254 451.354065,636.981349 C449.693232,636.74885 450.00879,635.835462 448.347958,635.619571 C445.75706,636.051354 445.208985,635.73582 442.418786,636.200818 C440.442396,634.540112 442.053403,631.700307 439.993971,630.571027 C439.716957,630.41655 438.97517,630.26549 438.176382,630.102503 L437.75041,630.015017 C436.185421,629.689529 434.676801,629.308891 436.207273,628.760858 C432.403967,627.913899 430.261494,627.349259 429.464294,626.518906 C427.961437,626.802991 426.488089,627.225504 425.063088,627.781042 C424.091501,627.733066 423.57039,627.5335 423.11028,627.314503 L422.900834,627.21253 C422.173009,626.854161 421.44801,626.498148 419.084092,626.701584 C419.084092,627.415687 418.452975,627.913899 416.908401,628.163005 L413.935511,628.163005 C408.584304,625.457497 402.705922,623.955422 396.71268,623.762136 C396.71268,624.35999 394.993549,624.274582 393.123345,624.203119 L392.653554,624.185947 C391.397225,624.143081 390.131829,624.132236 389.321976,624.35999 C390.384909,623.928206 388.773901,622.94839 387.760793,622.5 C386.913769,622.964997 384.090354,622.383751 382.595605,623.06464 C384.123571,623.06464 384.106962,623.679101 384.854337,623.978028 C384.101495,624.059636 383.360409,624.226786 382.64543,624.476239 C384.987203,627.166582 376.0021,629.607818 367.232905,629.009964 C365.786136,629.452819 364.765589,630.097222 363.771871,630.739385 L363.213102,631.099023 L362.863122,631.317892 C361.332712,632.256481 359.58733,633.049116 356.254804,632.995657 C354.593971,634.357435 353.680513,635.968319 350.475107,636.881707 C348.681408,637.014563 348.814275,636.483137 346.754842,636.715636 C345.09401,637.529382 345.409568,638.957588 340.908713,638.940981 C342.403462,640.485437 342.652587,641.232754 339.530222,642.262391 L339.928821,642.611139 L336.740023,642.611139 L338.052081,642.32882 C337.869389,642.079714 336.806457,641.797394 336.557332,642.129535 L336.656982,642.627747 L337.337923,643.05953 L335.992649,643.192386 L335.112408,642.860245 C333.036367,643.142565 335.344924,643.856668 335.112408,644.271845 C326.309996,645.401124 315.066161,645.683444 305.499767,645.93255 C305.499767,645.633623 304.536484,645.617016 304.735784,645.235054 C306.047841,644.388094 308.289965,643.806847 309.103773,642.793817 C305.176688,643.111544 303.73566,642.585995 302.372911,642.032772 L302.058724,641.904985 C300.746268,641.373586 299.334945,640.874606 295.684247,641.133112 C295.565913,641.645855 294.281767,641.825534 293.001957,642.001743 L292.599316,642.057658 C292.399432,642.085941 292.202728,642.115004 292.013808,642.146142 C291.251945,641.789974 290.274934,641.49864 289.29742,641.206303 L288.879081,641.080762 C286.72397,640.429834 284.716747,639.727873 285.187787,638.260092 C283.859121,638.117746 283.414425,637.59581 283.069669,637.053733 L282.943539,636.850211 C282.736025,636.511776 282.529269,636.183024 282.131855,635.951712 C279.773473,634.672969 274.309335,634.141543 273.113536,632.630301 C263.148541,634.15815 253.183547,634.938682 246.407351,632.630301 C241.424854,633.59351 243.583936,635.221002 238.368923,636.084568 C238.153014,636.632601 238.518398,636.997956 239.149514,637.247062 C236.007326,637.729738 236.735949,638.282333 237.457,638.945928 L237.583376,639.064194 C238.123825,639.581744 238.526434,640.165617 237.056865,640.834185 C233.884675,640.037046 231.443252,640.435616 225.929288,640.568472 C226.01233,641.913643 222.707273,642.229177 220.830533,643.026316 C218.76161,642.456931 216.633033,642.538272 214.494385,642.659895 L213.424451,642.721238 C212.175751,642.790127 210.926436,642.838103 209.686348,642.743996 C208.158382,643.840061 207.128666,643.640777 203.043018,643.823454 C202.494944,644.91952 203.890043,644.471129 204.570984,644.736842 C202.162777,645.251661 202.910152,645.301482 203.142668,646.397547 C197.512447,648.058252 193.842007,645.832908 186.800078,645.982371 C187.227843,646.653134 185.749159,646.760541 184.242853,646.86087 L183.866789,646.886127 C182.930625,646.95051 182.044831,647.030235 181.668106,647.261114 C176.037884,646.082013 163.39895,645.434338 158.665578,647.443792 C158.250917,647.439777 157.835912,647.435874 157.420703,647.432036 L156.174607,647.420666 C155.96687,647.418787 155.759118,647.416913 155.551368,647.415036 L153.682154,647.397934 C151.813957,647.380458 149.950242,647.361371 148.103912,647.336304 L146.875742,647.318659 C132.172006,647.095136 118.764354,646.426746 113.258421,643.076137 C86.6851031,644.902913 62.4369506,640.967041 39.7998055,642.760603 C39.7998055,643.746647 43.4637862,644.607791 46.9351998,645.22044 L47.4811552,645.31509 C48.2054626,645.43849 48.9122391,645.550588 49.5654998,645.65023 C56.657254,646.746295 65.5925321,646.297905 71.1563205,647.626469 C69.9439129,647.975217 70.5916375,648.722534 70.4753792,649.054676 C69.7028991,648.722534 67.3818656,648.868217 64.9795317,649.040551 L64.2578597,649.0926 C61.7337421,649.274411 59.2817554,649.435865 58.6004278,649.054676 L57.4876702,649.187532 L57.508,649.168 L58.88,648.7 C58.4265156,648.827029 57.9786438,648.973075 57.5375686,649.137733 L57.8530533,648.822177 C56.1127217,648.401425 54.2801057,648.601118 52.6712563,649.386817 L52.6712563,648.440215 C43.6031116,648.539857 34.5183586,647.942003 24.4371062,648.025038 C20.1864519,648.025038 15.6475393,648.191328 11.0029176,648.315755 C11.7052544,644.389317 12.4733832,640.738952 13.952757,640.595099 C13.4024,639.114423 12.9226021,637.581309 12.5167,636.006418 C12.4723315,634.986702 12.7083132,633.982866 13.1734334,633.212758 C13.164375,633.028809 13.1556914,632.843478 13.147173,632.657627 L13.1219036,632.099374 C13.0169314,629.774001 12.905003,627.502079 12.3765968,626.968106 C12.4848752,625.845378 12.5433706,624.713812 12.5517257,623.580319 L12.3590839,623.858421 L12.3065453,623.011474 C12.1576857,623.08732 12.1576857,624.035395 12.1576857,624.692727 C11.6393875,622.951279 11.5775762,619.395863 11.5707949,615.788751 L11.5699859,613.342034 C11.5682786,610.928682 11.5497382,608.677488 11.3871185,607.147025 C11.3459117,606.415334 11.3783924,606.050363 11.4243329,605.726725 L11.4603711,605.486662 C11.5031641,605.203767 11.5447345,604.890235 11.5447345,604.328082 C11.1069122,604.226954 11.4396572,600.915014 10.9668091,600.915014 C11.1594509,595.02431 9.98608724,588.337223 11.4046314,586.2641 C11.2154717,578.311011 10.7331849,570.378097 9.9598179,562.499028 C10.1212568,559.297643 10.0772874,556.081566 9.82847122,552.891871 C9.80220189,552.449436 9.46945696,552.133411 9.46945696,551.74154 C9.3994054,550.578569 9.4957263,548.669778 9.3994054,547.216064 C9.32059739,546.002528 9.04039114,545.067095 8.94407024,543.802995 C8.70764621,540.680669 8.67262043,536.610268 8.0684257,534.72676 C8.07007135,530.157901 7.7502796,525.600613 7.11397315,521.125049 C6.59734287,521.542201 6.03693037,524.222093 6.55356064,526.181447 C6.2558415,526.396344 6.29962373,525.144885 5.94060947,525.58732 C5.55344223,528.003558 5.55344223,530.5155 5.94060947,532.931739 C6.23832861,534.082069 6.29086728,533.058149 6.42221396,534.082069 C6.73691876,537.076426 6.82207843,540.111732 6.67615088,543.133022 L6.86003623,543.423765 L6.48350908,543.689226 L6.55356064,543.133022 C6.09786188,540.321051 5.76157191,537.471521 5.54656942,534.60035 C4.08799581,537.60981 3.67273479,533.283623 3.64244144,528.090647 L3.6407297,527.616351 C3.64027112,527.298801 3.64115329,526.978788 3.64322965,526.657751 L3.64722151,526.175607 C3.64883846,526.014757 3.65073565,525.853831 3.65289474,525.693008 L3.66013942,525.211034 L3.66884563,524.730764 L3.67890347,524.253279 C3.68246913,524.094701 3.68624175,523.936767 3.690203,523.779658 C3.77776745,520.101128 3.32243229,516.44788 3.32243229,513.591015 C3.27865007,507.396927 3.54134343,501.139634 3.54134343,495.539673 C3.58512566,487.866589 3.26989362,480.951964 3.32243229,474.049981 L2.82331491,474.049981 C3.23759235,472.825447 3.34288495,471.430598 3.12103405,470.10599 L2.92839225,470.384092 L2.99844381,469.537145 C2.798903,469.022312 2.88136958,467.179164 2.97637398,465.272712 L3.01206203,464.557296 C3.1001199,462.77369 3.16959252,461.073424 2.99844381,460.498833 C3.17357272,460.410346 3.56761277,460.903345 3.75149812,459.980552 C4.45201375,464.215286 4.21558972,471.016142 4.79351512,476.413847 C4.84868073,476.93592 4.91108682,477.5029 4.98002946,478.083082 L5.04070752,478.582873 L5.10448865,479.084694 C5.42010446,481.507915 5.8410049,483.846752 6.31713662,483.846752 C7.26283272,466.617075 5.18755516,448.161221 6.15076416,427.935628 C4.19698228,423.301123 3.972872,411.311139 3.8828448,398.765864 L3.87462512,397.569615 C3.86934753,396.771286 3.86440627,395.971589 3.85939293,395.172264 L3.84781902,393.375146 C4.90734891,389.772462 4.56584754,380.152664 3.94413992,375.867367 C4.06513807,375.58237 4.10740059,374.914591 4.14124217,374.206847 L4.15778676,373.851232 C4.21001744,372.724623 4.27051652,371.641061 4.61838621,371.961299 C4.69719422,366.601517 3.52383054,363.807857 4.39947508,359.522559 C4.97740047,359.699533 5.00366981,360.268378 5.27511962,358.435434 L5.27496,358.436331 L5.29270153,358.512953 C5.38946021,359.024562 5.22441714,359.902287 5.67957454,359.648156 L5.75672411,359.598405 C5.85304501,356.48872 5.74796767,355.704979 6.32589306,354.542007 C6.17703349,351.710424 6.70242022,348.815636 6.17703349,346.059899 C6.59734287,344.631466 6.76371533,342.115908 7.47298741,342.179113 C7.54303897,337.982303 7.75319366,336.124076 7.33288428,333.709646 C8.17350304,331.042396 8.76018488,336.478024 9.22427649,332.116881 C9.35562317,332.597238 9.54826497,332.87534 9.83722767,332.711007 C10.0579962,330.786512 10.3734534,330.181415 10.6977681,329.636472 L10.8196337,329.432478 C11.1244975,328.917246 11.4277166,328.316538 11.6585683,326.592765 C10.4414224,321.435239 10.8529753,313.850642 11.6585683,306.266044 C10.8617318,305.355893 10.5815255,301.197005 9.90727923,299.401984 C9.80334403,299.144217 9.66209876,298.991832 9.51217837,298.854669 L9.38221853,298.738726 C9.07713841,298.467076 8.77008347,298.153273 8.69013332,297.07604 C7.91818353,297.433648 7.54797509,295.914583 7.20549358,294.279037 L7.08275174,293.68825 C6.9462666,293.032988 6.8070367,292.392884 6.6411251,291.880591 C6.77247178,290.730261 6.8337669,289.2007 7.17526827,289.086931 C7.46423097,283.196227 5.95812236,284.965967 6.29962373,278.873007 C5.76548056,279.492415 5.45900497,281.19895 5.01242626,282.197588 C4.81102801,282.34928 4.80227157,281.616103 4.64465555,281.616103 C4.77600223,274.334889 4.9248618,265.776935 5.52030009,259.077207 C5.73921122,258.900233 6.11573838,260.657332 6.26459795,259.077207 L6.08946904,258.407235 L6.1595206,257.383314 L6.38718818,257.901595 L6.64988154,257.977441 C6.82501045,257.787826 6.67615088,256.978802 6.5448042,256.839751 L6.39594463,257.83839 L6.39594463,255.411319 L6.57982998,255.714702 C7.1227296,253.338195 7.51676964,253.52781 8.33111906,254.6655 C8.32528143,252.381693 8.65802635,251.727171 9.00763554,251.17003 L9.10315992,251.019347 C9.24634852,250.79349 9.38746479,250.560624 9.50448274,250.215869 C9.62707298,248.648386 9.34686673,248.749514 9.41691829,247.384286 C9.89852279,244.944574 10.747898,244.249319 11.4659265,242.98522 C11.4334762,240.06515 11.9922904,238.746112 12.5791057,237.434592 L12.7470425,237.0587 C13.0545396,236.364892 13.3550008,235.631506 13.5674734,234.629522 C13.2522414,227.955076 14.5394388,221.116297 15.957983,222.898678 C16.089513,222.35449 16.1776464,221.790431 16.2206764,221.217425 C16.2600804,221.359636 16.3098826,221.465505 16.3624213,221.562485 L16.4423239,221.704721 C16.5757229,221.94211 16.7022809,222.209743 16.7022809,222.936601 C16.8618428,222.430961 16.8899499,221.725562 16.8934572,221.041249 L16.8931449,220.535418 C16.8910309,219.875451 16.8910309,219.29178 17,219.005251 C16.763576,218.23415 16.2469457,217.007974 16.0192781,217.816997 C16.1339079,217.228616 16.1339079,216.324315 16.1140135,215.411656 L16.102847,214.956054 C16.0650143,213.520127 16.01689,212.191754 16.3345102,212.191754 C16.2325956,207.630153 15.4405923,203.155975 14.0140521,199.083042 L14.0140521,196.820303 C14.1453988,195.644691 14.4080922,195.164333 14.7846193,195.164333 C14.9685047,192.07993 14.2855019,192.661416 14.2154504,190.613574 C14.5083706,189.528972 14.73115,188.407572 14.8809402,187.263711 C14.5481953,186.802567 14.2963739,185.750007 13.9986284,184.000598 L13.902929,183.424866 C13.8379145,183.025438 13.7702727,182.594632 13.6988201,182.131466 C13.2347285,184.002334 12.9983045,179.906651 12.7443675,179.249319 C12.1489293,177.681836 10.6515771,178.908012 9.77593255,177.403734 C10.021113,175.280047 9.85474056,174.862894 10.0824081,172.890898 C9.96857435,171.626799 9.48696985,171.866978 9.36437962,170.602878 C8.99466084,171.457484 8.73094082,172.39857 8.58505598,173.383897 C7.33288428,172.840335 7.79697589,168.542396 7.46423097,163.726177 C7.44671807,163.549203 7.21905049,163.245819 7.21905049,163.144691 C7.07019092,158.745624 7.14899893,153.714508 7.01765225,149.024699 C6.38718818,148.746597 5.85304501,146.357448 5.09123426,144.398094 C5.25760673,142.135356 4.96864403,141.161999 5.51154364,140.466744 C5.16128583,133.109685 4.4607702,125.967522 3.76025456,122.870478 L3.75996,122.871331 L3.72578079,123.085146 C3.47875376,124.81641 3.62008699,128.469704 3.53611198,131.003419 L3.52383054,131.327305 L3.15605983,131.327305 C2.83207135,130.998639 2.96341803,128.60949 2.83207135,127.345391 C2.3592233,128.521004 1.95642681,125.828471 1.606169,126.157137 C1.66746411,125.461883 1.77254146,125.04473 1.99145259,125.04473 C1.45515401,122.65755 1.16023454,120.171157 1.11580805,117.662388 C1.14207739,116.423571 1.43979653,116.461494 1.74627212,116.562622 C1.96518326,112.934656 1.37850142,111.759043 1.08953872,109.749125 C0.800576021,107.739207 0.905653366,106.032672 0.642960004,105.211007 C1.04575649,104.60424 2.43803131,104.768573 3.01595671,104.768573 C3.24362429,103.959549 2.98968737,103.276935 3.06849538,100.824582 C3.27865007,104.553676 4.31191062,99.9902762 4.5395782,102.594321 C4.57434644,102.469398 4.60781939,102.339653 4.64040008,102.207778 L4.70449118,101.941984 C5.00966904,100.651293 5.25657656,99.3292264 5.80926279,100.407429 C5.80230812,99.6511811 5.85518927,98.8962595 5.9668788,98.1573318 C6.11272835,98.6606014 6.26291336,98.5922363 6.39864681,98.4785604 L6.46019847,98.4247937 C6.63129975,98.2741993 6.77274542,98.1845889 6.84252334,99.3329444 C6.95562743,99.306609 6.98816006,98.8874371 6.99396221,98.335125 L6.99466658,97.9898386 C6.9941193,97.8708025 6.99293354,97.7485185 6.99154,97.6250639 L6.98716685,97.2532665 C6.98165353,96.7583949 6.97970765,96.2780371 7.00889581,95.9451575 C7.089974,96.2869326 7.16985104,96.3079142 7.2471923,96.2836187 L7.31607874,96.2569668 C7.42205829,96.2196353 7.52228296,96.2555642 7.61309054,97.1207701 C7.74443722,96.7541813 7.76195011,95.8187476 8.00713058,96.0083625 C7.48174386,93.4928044 7.96334835,90.2819914 7.48174386,88.0698172 C7.67438566,86.4264877 7.82324523,86.2621548 7.3941794,85.2382342 C7.74443722,84.7957993 7.74443722,81.9010113 7.44671807,81.2942435 C7.45455279,80.287621 7.72175778,80.525734 7.72774776,79.4823607 L7.72596,79.3223308 L7.73004863,79.4035453 C7.82372028,81.2993712 8.35264153,81.9979549 8.67133202,80.3811008 L8.69888977,80.2323998 C8.83023645,80.7506807 8.65510754,81.5976274 9.04914758,81.9515753 C9.43443118,81.7998833 9.42567473,79.72676 9.82847122,79.72676 C9.88581926,78.7814517 9.8563762,77.8293477 9.74090677,76.895177 C10.1437033,76.5538701 10.1086775,77.9443796 10.3626144,76.895177 C10.2487806,74.1520809 10.3013193,70.4103462 9.95106146,70.1069623 C9.88100989,68.1728899 10.4676917,69.4117075 10.3538579,67.3006612 C10.1086775,67.4776352 9.97733079,67.1489693 9.99484368,66.1503306 C10.0123566,65.1516919 10.5727691,67.0857643 10.747898,65.6320498 L10.7041158,64.7724621 L10.8880011,65.063205 C10.9789334,64.4651886 10.9545812,64.2224666 10.9076105,64.0300898 L10.8774551,63.9182656 C10.804219,63.6600545 10.7229758,63.3809802 10.8880011,62.2442629 C11.3433363,62.4465189 11.4046314,64.3300272 11.5885167,65.6699728 C11.7023505,65.2401789 11.8774794,65.12641 12.0963906,65.12641 L12.1664421,64.2921042 C12.2014679,64.7724621 12.2452502,65.3160249 12.2452502,65.6320498 C12.4291355,66.7318164 12.831932,66.4410735 13.0245738,65.4677168 L13.0771125,66.3146636 C13.0158173,67.2753792 13.1559205,67.3891482 13.3135365,67.4649942 L13.2609978,66.6054065 L13.4361267,66.8961494 C13.8214103,66.5548425 13.952757,65.012641 14.110373,63.5462855 C13.9264877,62.181058 12.8669578,64.1404123 13.2872672,59.5517308 C12.6313157,58.8605046 12.1957714,57.8171254 12.0788777,56.6569428 C12.3240582,58.7932711 11.299554,57.6176585 11.2032331,59.9941657 C11.087712,58.6815417 11.0233966,57.3605805 11.0105914,56.037534 L10.9492962,55.1905873 L11.0281042,54.3436406 C11.2088318,53.5820954 11.1275387,52.7418229 10.8091931,52.0809024 C10.8704882,51.3856476 10.984322,50.9684947 11.1944767,50.9684947 C11.1828014,50.6103332 11.1409651,50.3757725 11.095237,50.1552574 L11.0557011,49.9671289 C10.9771739,49.5875305 10.9092668,49.1572206 10.984322,48.1242707 C10.5615108,48.3825082 10.342555,46.7660086 10.089084,45.0864469 L10.0298695,44.6985609 L9.87225345,45.4570206 C9.83722767,44.5974329 9.81095833,43.6367172 9.74090677,42.7012835 L9.98608724,43.0046674 C9.90727923,41.399261 10.1437033,41.5509529 10.1437033,40.1983664 C9.64458587,39.7432905 9.69712454,41.9807468 9.13671204,41.272851 C8.90028801,41.5130299 8.93531379,38.1884481 9.13671204,38.441268 C8.95192084,38.0136536 8.783997,37.4095012 8.62404153,36.7795713 L8.51848739,36.3574536 C8.20478052,35.0895704 7.91503693,33.8525865 7.57806476,33.8525865 C8.27858039,30.7681836 7.18402471,28.7582653 7.80573234,25.9519642 C8.39241418,26.457604 8.80396711,25.7623493 9.26805872,28.2905484 C9.36437962,27.4183197 9.32059739,25.5853753 9.65334231,27.1781408 C9.89852279,27.1149358 9.47821341,25.7497083 9.65334231,24.3591988 C8.63759465,24.8142746 8.80396711,20.769156 8.97909602,18.6833917 C8.28733683,21.9321276 9.05790403,11.1367172 9.93354857,12.5145858 C9.78828794,11.361228 9.96777577,10.4320857 10.093831,9.52286754 L9.92706914,9.52093585 C10.9990793,9.53617178 11.9620894,9.52172665 12.0082069,9.23582013 C10.5134578,9.10471183 10.615132,8.84019508 10.8095455,8.51974847 L10.8691481,8.42201407 C11.0271551,8.1578839 11.1484342,7.86304668 10.4679413,7.57692196 L10.46696,7.57333079 L10.9507134,7.47850593 C11.7651356,7.33301166 12.5919199,7.26519648 13.4199144,7.27618804 C12.1149747,6.31060661 13.4860935,5.83713618 15.0359092,5.31606573 L15.4611403,5.17236995 L15.7439912,5.07406 C15.931462,5.00764973 16.115999,4.93933864 16.2931544,4.86816556 C14.8268767,4.68311556 15.0902373,4.21744027 15.4843339,3.71429018 L15.5846564,3.58786265 C16.0906346,2.95322847 16.5926974,2.29170012 13.9679891,2.07818089 C17.1900039,1.92871742 18.0868534,2.41032192 19.1497861,1.97853858 C19.1497861,1.51128586 19.1105487,0.76335652 19.1272886,-0.000212817215 L45.6747942,-0.00147431035 C45.7130611,0.0107869421 45.7513088,0.0231162363 45.7895371,0.0355135411 L45.79196,-0.000669207484 L47.8002387,-0.000669207484 C48.605905,0.490049147 49.8449126,1.03022709 48.812252,1.6297905 Z M331.5,642.05 C333.136886,642.522942 334.811081,642.824297 336.5,642.95 L331.5,642.05 Z M473.440556,639.659444 C474.980556,639.829444 474.920556,639.239444 476.440556,639.409444 C476.610556,638.149444 473.000556,638.659444 473.440556,639.659444 Z M489.530556,638.349444 L489.530556,639.069444 L491.040556,639.069444 C491.130556,638.539444 490.630556,638.299444 489.530556,638.349444 Z M506.180556,638.269444 C505.640556,638.879444 507.870556,639.329444 508.180556,638.739444 C507.440556,638.619444 506.910556,638.389444 506.180556,638.269444 Z M511.710556,637.759444 C511.710556,638.179444 512.100556,638.379444 512.710556,638.479444 C513.440556,638.129444 513.440556,637.539444 511.710556,637.759444 Z M506.660556,637.309444 C507.660556,637.309444 507.310556,637.959444 508.660556,637.779444 C509.060556,637.239444 506.820556,636.799444 506.660556,637.309444 Z M483.926747,635.485267 L483.824087,635.613771 C483.720721,635.742336 483.609647,635.868535 483.440556,635.969444 C484.720556,635.969444 485.440556,635.609444 485.440556,634.969444 C484.460556,634.918535 484.168986,635.187543 483.926747,635.485267 Z M457.740556,633.659444 C457.600556,634.209444 456.390556,634.219444 455.740556,633.909444 C455.800556,634.519444 456.480556,634.839444 457.740556,634.909444 C457.440556,634.449444 459.210556,633.869444 457.740556,633.659444 Z M342,633.699963 C343.850565,634.75745 345.922903,635.113062 347.944068,634.719963 C348.606359,633.379963 343.192125,632.479963 342,633.699963 Z M474.630556,634.199444 L477.150556,634.429444 C476.321804,634.258753 475.476515,634.181603 474.630556,634.199444 Z M494.290556,632.419444 C494.470556,632.629444 494.630556,632.859444 494.760556,632.999444 C496.240556,633.149444 497.440556,633.659444 498.830556,633.849444 L494.290556,632.419444 Z M473.910556,630.749444 C473.680556,631.509444 474.990556,631.519444 476.430556,631.459444 C476.540556,630.279444 475.700556,630.659444 473.910556,630.749444 Z M487.440556,629.939444 L485.930556,629.939444 L485.960556,630.419444 L487.440556,630.419444 L487.440556,629.939444 Z M512.670556,628.969444 C512.440556,629.569444 513.440556,629.949444 514.440556,630.169444 L512.670556,628.969444 Z M492.000556,629.419444 C492.845774,629.309879 493.081237,629.486136 493.255156,629.692573 L493.339525,629.797123 C493.466,629.95417 493.609252,630.104226 494.000556,630.139444 C495.350556,629.659444 492.610556,628.249444 492.000556,629.419444 Z M452.190556,628.349444 C453.683366,628.717735 455.206078,628.951998 456.740556,629.049444 C456.783413,628.958015 456.85974,628.881281 456.942014,628.805712 L457.066445,628.691543 C457.229128,628.535974 457.360556,628.358015 457.240556,628.049444 C456.330556,627.779444 452.360556,627.569444 452.190556,628.349444 Z M499.050556,624.919444 C500.160556,625.439444 501.110556,624.669444 503.050556,624.919444 C503.680556,623.839444 498.440556,623.869444 499.050556,624.919444 Z M442.190556,623.739444 L439.190556,623.739444 L439.450556,624.179444 L438.690556,624.469444 C439.560556,625.289444 442.390556,624.789444 442.190556,623.739444 Z M114.809444,27.2605562 L117.809444,27.2605562 L117.549444,26.8205562 L118.309444,26.5305562 C117.439444,25.7105562 114.609444,26.2105562 114.809444,27.2605562 Z M53.9494438,26.0805562 C53.3194438,27.1605562 58.5594438,27.1305562 57.9494438,26.0805562 C56.8394438,25.5605562 55.8894438,26.3305562 53.9494438,26.0805562 Z M100.259444,21.9505562 C100.109444,22.2705562 99.5494438,22.4105562 99.7594438,22.9505562 C100.669444,23.2205562 104.639444,23.4305562 104.809444,22.6505562 C103.316634,22.2822652 101.793922,22.0480017 100.259444,21.9505562 Z M62.9994438,20.8605562 C61.6494438,21.3405562 64.3894438,22.7505562 64.9994438,21.5805562 C63.3794438,21.7905562 63.9994438,20.9505562 62.9994438,20.8605562 Z M42.5594438,20.8305562 L44.3294438,22.0305562 C44.5594438,21.4305562 43.5594438,21.0505562 42.5594438,20.8305562 Z M20.8094438,19.8905562 C20.6844438,20.1505562 20.4219438,20.3530562 20.1344438,20.5430562 L19.7846438,20.7679362 C19.6109438,20.8802562 19.4444438,20.9945562 19.3094438,21.1205562 L20.0694438,21.2405562 L19.8194438,21.6005562 C21.6094438,21.2105562 23.9694438,22.1705562 23.8194438,20.6005562 C23.7817968,20.3934973 23.4008971,20.3503139 22.9779214,20.3282337 L22.6575061,20.3133996 C22.2854646,20.2955043 21.9388556,20.2664385 21.8194438,20.1305562 L21.3094438,20.0105562 L20.8094438,19.8905562 Z M71.0394438,20.5805562 L69.5594438,20.5805562 L69.5594438,21.0605562 L71.0694438,21.0605562 L71.0394438,20.5805562 Z M80.5694438,19.5405562 C80.4594438,20.7205562 81.2994438,20.3405562 83.0894438,20.2505562 C83.3194438,19.4905562 82.0094438,19.4805562 80.5694438,19.5405562 Z M58.1694438,17.1505562 L62.7094438,18.5805562 C62.5294438,18.3705562 62.3694438,18.1405562 62.2394438,18.0005562 C60.7594438,17.8505562 59.5594438,17.3405562 58.1694438,17.1505562 Z M38.2594438,17.6005562 C37.6794438,18.1005562 39.0494438,18.7505562 39.2594438,18.0805562 C38.5994438,18.0805562 38.7994438,17.6605562 38.2594438,17.6005562 Z M209.055932,16.2800369 C208.393641,17.6200369 213.807875,18.5200369 215,17.3000369 C213.149435,16.2425504 211.077097,15.886938 209.055932,16.2800369 Z M99.2594438,16.0905562 C99.5594438,16.5505562 97.7894438,17.1305562 99.2594438,17.3405562 C99.3994438,16.7905562 100.609444,16.7805562 101.259444,17.0905562 C101.199444,16.4805562 100.519444,16.1605562 99.2594438,16.0905562 Z M79.8494438,16.5705562 C80.6781956,16.7412472 81.5234849,16.8183966 82.3694438,16.8005562 L79.8494438,16.5705562 Z M73.5594438,15.0305562 C72.2794438,15.0305562 71.5594438,15.3905562 71.5594438,16.0305562 C72.5394438,16.0814652 72.8310141,15.812457 73.073253,15.5147335 L73.1759127,15.3862286 C73.2792786,15.2576636 73.3903529,15.1314652 73.5594438,15.0305562 Z M48.3394438,13.2205562 C47.9394438,13.7605562 50.1794438,14.2005562 50.3394438,13.6905562 C49.3394438,13.6905562 49.6894438,13.0405562 48.3394438,13.2205562 Z M44.2894438,12.5205562 C43.5594438,12.8705562 43.5594438,13.4605562 45.2894438,13.2405562 C45.2894438,12.8205562 44.8994438,12.6205562 44.2894438,12.5205562 Z M48.8194438,12.2605562 C49.5594438,12.3805562 50.0894438,12.6105562 50.8194438,12.7305562 C51.3594438,12.1205562 49.1294438,11.6705562 48.8194438,12.2605562 Z M67.4694438,11.9305562 L65.9594438,11.9305562 C65.8694438,12.4605562 66.3694438,12.7005562 67.4694438,12.6505562 L67.4694438,11.9305562 Z M80.5594438,11.5905562 C80.3894438,12.8505562 83.9994438,12.3405562 83.5594438,11.3405562 C82.0194438,11.1705562 82.0794438,11.7605562 80.5594438,11.5905562 Z M220.5,8.05 L225.5,8.95 C223.863114,8.47705825 222.188919,8.17570316 220.5,8.05 Z M32.7394438,3.40055615 L32.7394438,4.40055615 C34.6894438,4.54055615 34.6894438,3.20055615 32.7394438,3.40055615 Z M37.9225838,1.81657203 C36.8438279,2.25657203 37.9225838,3.27657203 40.1122973,3.17657203 C41.2393557,2.71657203 39.7258773,1.89657203 37.9225838,1.81657203 Z" id="path-1"></path></defs><g id="Page-1" stroke="none" stroke-width="1" fill="none" fill-rule="evenodd"><mask id="mask-2" fill="white"><use xlink:href="#path-1"></use></mask><use id="guus-baggermans-cg599DTeS8w-unsplash" fill="#D8D8D8" xlink:href="#path-1"></use></g></svg>