<svg xmlns="http://www.w3.org/2000/svg" xmlns:xlink="http://www.w3.org/1999/xlink" id="Layer_1" x="0px" y="0px" width="56px" height="50px" viewBox="0 0 56 50" style="enable-background:new 0 0 56 50;" xml:space="preserve"><style type="text/css">	.st0{fill-rule:evenodd;clip-rule:evenodd;fill:#35348F;}</style><title>3D86A401-53DF-4270-8544-103AF2713532</title><g id="Page-1">	<g id="Landingpage" transform="translate(-420.000000, -1062.000000)">		<g id="Group-2" transform="translate(420.000000, 1062.000000)">			<g id="Group-8">				<path id="clients-trust" class="st0" d="M55.6,18.2c0-3-1.2-5.9-3.3-8l-6.9-6.9c-2.2-2.1-5-3.3-8-3.3h-0.1c-3,0-5.9,1.2-8.1,3.4      l-1.4,1.4l-1.5-1.5c-2.1-2.1-5-3.3-8-3.3s-5.9,1.2-8,3.3l-6.9,6.9c-4.4,4.4-4.4,11.6,0,16l4.2,4.2c0,1.5,0.7,2.9,1.8,3.9      c0.9,0.9,2.2,1.4,3.4,1.6c0.2,1.3,0.8,2.7,1.7,3.6c0.8,0.8,1.9,1.3,3.1,1.5c0.2,1.2,0.8,2.5,1.7,3.3c0.9,0.8,2.2,1.6,3.6,1.8      c0.4,1.5,1.3,3,3.3,3.7c0.3,0.1,1,0.3,1.8,0.3c1,0,2.2-0.3,3.4-1.3c0,0,0,0,0.1-0.1s0.3-0.3,0.5-0.5c2-1.8,3.5-3.4,4.3-4.7      c1.4,0.4,3,0.3,4.2-0.6c1.3-1,1.9-2.3,1.9-3.7c1.3-0.1,2.6-0.6,3.4-1.4c0.8-0.8,1.4-2.2,1.4-3.5c1.5-0.1,2.8-0.7,3.7-1.6      c1.6-1.7,1.2-4,0.8-4.9c0-0.1-0.1-0.1-0.1-0.2s-0.1-0.1-0.2-0.2l0,0l1.1-1.1C54.4,24.1,55.6,21.3,55.6,18.2z M10.1,30.5l5.7-5.6      l0,0c0.2-0.2,0.6-0.4,1.2-0.4c0.5,0,1,0.3,1.5,0.8c1,1.1,0.6,2.2,0.5,2.6l-5.7,5.5c-0.8,0-1.6-0.3-2.3-0.9      C10.7,32.1,10.2,31.4,10.1,30.5z M15.2,35.2l5.7-5.5c0.5-0.2,2-0.5,2.8,0.3s0.8,1.8,0.7,2.2l-6.2,6.2c-0.6,0-1.4-0.2-2-0.8      C15.7,37.1,15.3,36,15.2,35.2z M20,40.2l6.3-6.3c0.3-0.1,1.3-0.4,2.5,0.9c0.8,0.8,0.6,2,0.5,2.4l-5.9,6.1      c-0.8-0.1-1.7-0.6-2.4-1.2C20.4,41.8,20.1,40.9,20,40.2z M30,46.3c-0.2,0.2-0.4,0.4-0.5,0.5c-1,0.8-2.1,0.6-2.6,0.4      c-0.7-0.2-1.2-0.7-1.6-2l5.9-6.1c0.7-0.4,1.8,0.2,2.1,0.7c0.5,0.6,0.7,1.5,0.8,1.9C33.9,42.1,33.2,43.3,30,46.3z M48.8,30.9      c-0.9,0.9-2.2,0.9-2.9,0.8L35.5,21.3c-0.5-0.5-1.3-0.5-1.9,0c-0.5,0.5-0.5,1.3,0,1.9l10.5,10.6c0.3,0.6,0.1,1.7-0.4,2.3      c-0.5,0.5-1.9,0.9-2.5,0.5l0,0L30.7,25.5c-0.5-0.5-1.3-0.5-1.9,0c-0.5,0.5-0.5,1.3,0,1.9l10.7,10.9c0.2,0.8,0.2,1.8-0.8,2.5      c-0.4,0.3-1.4,0.3-2.1,0.1c-0.2-0.7-0.5-1.9-1.2-2.8c-0.7-0.8-2-1.7-3.4-1.8c0-1-0.3-2.2-1.3-3.2c-1.3-1.3-2.6-1.8-3.7-1.8      c-0.1-1-0.5-2.1-1.5-3.1c-1.1-1.1-2.5-1.3-3.6-1.3c0-1-0.3-2.3-1.3-3.5c-1.2-1.3-2.5-1.6-3.4-1.6l0,0c-1.2,0-2.4,0.5-3.1,1.2      l-5.2,5l-3.6-3.6c-3.4-3.4-3.4-8.9,0-12.3l6.9-6.9c1.6-1.6,3.8-2.5,6.1-2.5s4.5,0.9,6.1,2.5l1.5,1.5c0,0-8.1,8-8.8,8.9      c-0.5,0.5-0.7,1.2-0.6,1.9c0.1,1,0.8,2,2,2.9c3.2,2.4,7.6,2.1,10.6-0.8c1.2-1.1,4-3.9,5.5-5.3l14.5,14.8      C49.2,29.4,49.4,30.3,48.8,30.9z M35.5,11.5c-0.2-0.2-0.6-0.4-0.9-0.4c-0.4,0-0.7,0.1-0.9,0.4c0,0-4.8,4.7-6.4,6.2      c-2.1,2-5,2.2-7.2,0.6c-0.6-0.5-0.9-0.9-0.9-1c0.4-0.5,1.1-1.1,1.2-1.2L31.1,5.3c1.7-1.7,3.9-2.7,6.3-2.7c2.3,0,4.5,0.9,6.2,2.5      l6.9,6.9c1.6,1.6,2.5,3.8,2.5,6.1s-0.9,4.5-2.5,6.1l-1.1,1.1L35.5,11.5z"></path>			</g>		</g>	</g></g></svg>