<svg xmlns="http://www.w3.org/2000/svg" xmlns:xlink="http://www.w3.org/1999/xlink" width="40px" height="40px" viewBox="0 0 40 40"><title>6C79444B-840B-467A-B96F-A525701CF7BE</title><g id="Page-1" stroke="none" stroke-width="1" fill="none" fill-rule="evenodd"><g id="Landingpage" transform="translate(-1417.000000, -3892.000000)" fill="#020D26"><g id="Key-features" transform="translate(273.000000, 3709.000000)"><g id="Group-13" transform="translate(0.000000, 138.000000)"><g id="Group-11-Copy-6" transform="translate(1071.000000, 0.000000)"><g id="Page-1" transform="translate(73.000000, 45.000000)"><path d="M5.66037736,28.6792453 C8.77474879,28.6792453 11.3207547,31.2116627 11.3207547,34.3357411 C11.3207547,37.4598179 8.78231407,40 5.66037736,40 C2.53844065,40 1.35358391e-12,37.4520533 1.35358391e-12,34.3357411 C1.35358391e-12,31.2194273 2.53847944,28.6792453 5.66037736,28.6792453 Z M40,34.7169811 L40,36.2264151 L15.0943396,36.2264151 L15.0943396,34.7169811 L40,34.7169811 Z M25.6603774,30.9433962 L25.6603774,32.4528302 L15.0943396,32.4528302 L15.0943396,30.9433962 L25.6603774,30.9433962 Z M5.66037736,14.3396226 C8.77474879,14.3396226 11.3207547,16.8780633 11.3207547,20 C11.3207547,23.1219367 8.78231407,25.6603774 5.66037736,25.6603774 C2.53844065,25.6603774 1.35358391e-12,23.1219367 1.35358391e-12,20 C1.35358391e-12,16.8780633 2.53847944,14.3396226 5.66037736,14.3396226 Z M40,21.1320755 L40,22.6415094 L15.0943396,22.6415094 L15.0943396,21.1320755 L40,21.1320755 Z M25.6603774,16.6037736 L25.6603774,18.1132075 L15.0943396,18.1132075 L15.0943396,16.6037736 L25.6603774,16.6037736 Z M5.66037736,1.40687462e-12 C8.77474879,1.40687462e-12 11.3207547,2.53844065 11.3207547,5.66037736 C11.3207547,8.78231407 8.78231407,11.3207547 5.66037736,11.3207547 C2.53844065,11.3207547 1.35358391e-12,8.78231407 1.35358391e-12,5.66037736 C1.35358391e-12,2.53844065 2.53847944,1.40687462e-12 5.66037736,1.40687462e-12 Z M40,6.79245283 L40,8.30188679 L15.0943396,8.30188679 L15.0943396,6.79245283 L40,6.79245283 Z M25.6603774,2.26415094 L25.6603774,3.77358491 L15.0943396,3.77358491 L15.0943396,2.26415094 L25.6603774,2.26415094 Z" id="Combined-Shape"></path></g></g></g></g></g></g></svg>