<svg xmlns="http://www.w3.org/2000/svg" xmlns:xlink="http://www.w3.org/1999/xlink" width="64px" height="58px" viewBox="0 0 64 58"><title>elementor-pro</title><g id="Page-1" stroke="none" stroke-width="1" fill="none" fill-rule="evenodd"><g id="Landingpage" transform="translate(-767.000000, -5546.000000)"><g id="Key-features" transform="translate(272.000000, 5377.000000)"><g id="Group-13" transform="translate(0.000000, 138.000000)"><g id="Group-11-Copy-2" transform="translate(428.000000, 0.000000)"><g id="elementor-pro" transform="translate(67.000000, 31.000000)"><path d="M25,8 C11.1915125,8 0,19.191514 0,33 C0,46.8038754 11.1915125,58 25,58 C38.8085,58 50,46.8085004 50,33 C49.9955,19.191514 38.803875,8 25,8 Z M18.751125,43.4132506 L14.58675,43.4132506 L14.58675,22.5822514 L18.751125,22.5822514 L18.751125,43.4132506 Z M35.41325,43.4132506 L22.9155,43.4132506 L22.9155,39.2488757 L35.41325,39.2488757 L35.41325,43.4132506 Z M35.41325,35.0798759 L22.9155,35.0798759 L22.9155,30.915501 L35.41325,30.915501 L35.41325,35.0798759 Z M35.41325,26.7466262 L22.9155,26.7466262 L22.9155,22.5822514 L35.41325,22.5822514 L35.41325,26.7466262 Z" id="Shape" fill="#020D26" fill-rule="nonzero"></path><g id="Group-23" transform="translate(36.000000, 0.000000)"><rect id="Rectangle" stroke="#F9F9F9" fill="#020D26" x="0.5" y="0.5" width="27" height="14" rx="3"></rect><path d="M6.35631158,11 L6.35631158,8.62625 L7.11006158,8.62625 C7.46745742,8.62625 7.81118137,8.58190104 8.14123346,8.49320312 C8.47128554,8.40450521 8.76847304,8.26809896 9.03279596,8.08398437 C9.29711887,7.89986979 9.50571262,7.66544271 9.65857721,7.38070312 C9.81144179,7.09596354 9.88787408,6.76369792 9.88787408,6.38390625 C9.88787408,5.86182292 9.76704075,5.44059896 9.52537408,5.12023437 C9.28370742,4.79986979 8.959072,4.56640625 8.55146783,4.41984375 C8.14386367,4.27328125 7.69131158,4.2 7.19381158,4.2 L5.07084283,4.2 L5.07084283,11 L6.35631158,11 Z M7.17974908,7.5634375 L6.35631158,7.5634375 L6.35631158,5.2846875 L7.15271783,5.2846875 C7.44136367,5.2846875 7.68701471,5.32036458 7.88967096,5.39171875 C8.09232721,5.46307292 8.24868137,5.58643229 8.35873346,5.76179687 C8.46878554,5.93716146 8.52381158,6.17041667 8.52381158,6.4615625 C8.50891575,6.71125 8.44394179,6.91856771 8.32888971,7.08351562 C8.21383762,7.24846354 8.05865533,7.3696875 7.86334283,7.4471875 C7.66803033,7.5246875 7.44016575,7.5634375 7.17974908,7.5634375 Z M12.2751456,11 L12.2751456,8.41625 L12.8788956,8.41625 C12.9812914,8.41625 13.0830622,8.418125 13.1842081,8.421875 C13.2853539,8.425625 13.3901976,8.42395833 13.4987393,8.416875 L14.9338956,11 L16.3143643,11 L14.6557706,8.07375 C14.9911872,7.90958333 15.2677758,7.67619792 15.4855362,7.37359375 C15.7032966,7.07098958 15.8103539,6.70958333 15.8067081,6.289375 C15.8067081,5.809375 15.6859268,5.41692708 15.4443643,5.11203125 C15.2028018,4.80713542 14.8781664,4.57890625 14.4704581,4.42734375 C14.0627497,4.27578125 13.6101456,4.2 13.1126456,4.2 L10.9896768,4.2 L10.9896768,11 L12.2751456,11 Z M13.1012393,7.3584375 L12.2751456,7.3584375 L12.2751456,5.2846875 L13.0742081,5.2846875 C13.3644164,5.2846875 13.6087133,5.32080729 13.8070987,5.39304687 C14.0054841,5.46528646 14.1610049,5.58005208 14.2736612,5.73734375 C14.3863174,5.89463542 14.4426456,6.099375 14.4426456,6.3515625 C14.4426456,6.59052083 14.3839997,6.78223958 14.2667081,6.92671875 C14.1494164,7.07119792 13.9896768,7.17927083 13.7874893,7.2509375 C13.5853018,7.32260417 13.3565518,7.3584375 13.1012393,7.3584375 Z M20.092589,11.14 C20.7642557,11.1233333 21.3478755,10.9636979 21.8434484,10.6610937 C22.3390213,10.3584896 22.7271984,9.94117187 23.0079796,9.40914062 C23.2887609,8.87710937 23.4291515,8.25796875 23.4291515,7.55171875 C23.4291515,6.89953125 23.3004276,6.30888021 23.0429796,5.77976562 C22.7855317,5.25065104 22.4081619,4.82841146 21.9108703,4.51304687 C21.4135786,4.19768229 20.8084223,4.04 20.0954015,4.04 C19.4342557,4.05666667 18.8537609,4.21739583 18.3539171,4.5221875 C17.8540734,4.82697917 17.4643338,5.24697917 17.1846984,5.7821875 C16.905063,6.31739583 16.7652453,6.93479167 16.7652453,7.634375 C16.7652453,8.27989583 16.894438,8.86888021 17.1528234,9.40132812 C17.4112088,9.93377604 17.7896723,10.3566667 18.288214,10.67 C18.7867557,10.9833333 19.388214,11.14 20.092589,11.14 Z M20.090089,10.0471875 C19.6842557,10.0471875 19.3336567,9.94421875 19.0382921,9.73828125 C18.7429276,9.53234375 18.5146723,9.245625 18.3535265,8.878125 C18.1923807,8.510625 18.1118078,8.09098958 18.1118078,7.61921875 C18.1118078,7.11526042 18.2039953,6.67898437 18.3883703,6.31039062 C18.5727453,5.94179687 18.8182401,5.65505208 19.1248546,5.45015625 C19.4314692,5.24526042 19.760089,5.1428125 20.110714,5.1428125 C20.5221723,5.1428125 20.8751932,5.24697917 21.1697765,5.4553125 C21.4643598,5.66364583 21.6903234,5.94882812 21.8476671,6.31085937 C22.0050109,6.67289062 22.0836828,7.08984375 22.0836828,7.56171875 C22.0836828,8.11911458 21.9924848,8.58200521 21.810089,8.95039062 C21.6276932,9.31877604 21.3873286,9.59367187 21.0889953,9.77507812 C20.7906619,9.95648437 20.4576932,10.0471875 20.090089,10.0471875 Z" id="PRO" fill="#FFFFFF" fill-rule="nonzero"></path></g></g></g></g></g></g></g></svg>