<svg xmlns="http://www.w3.org/2000/svg" xmlns:xlink="http://www.w3.org/1999/xlink" width="50px" height="50px" viewBox="0 0 50 50"><title>elementor</title><g id="Page-1" stroke="none" stroke-width="1" fill="none" fill-rule="evenodd"><g id="Landingpage" transform="translate(-553.000000, -5554.000000)" fill="#020D26" fill-rule="nonzero"><g id="Key-features" transform="translate(272.000000, 5377.000000)"><g id="Group-13" transform="translate(0.000000, 138.000000)"><g id="Group-11-Copy" transform="translate(216.000000, 0.000000)"><path d="M90,39 C76.1915125,39 65,50.191514 65,64 C65,77.8038754 76.1915125,89 90,89 C103.8085,89 115,77.8085004 115,64 C114.9955,50.191514 103.803875,39 90,39 Z M83.751125,74.4132506 L79.58675,74.4132506 L79.58675,53.5822514 L83.751125,53.5822514 L83.751125,74.4132506 Z M100.41325,74.4132506 L87.9155,74.4132506 L87.9155,70.2488757 L100.41325,70.2488757 L100.41325,74.4132506 Z M100.41325,66.0798759 L87.9155,66.0798759 L87.9155,61.915501 L100.41325,61.915501 L100.41325,66.0798759 Z M100.41325,57.7466262 L87.9155,57.7466262 L87.9155,53.5822514 L100.41325,53.5822514 L100.41325,57.7466262 Z" id="elementor"></path></g></g></g></g></g></svg>