<svg xmlns="http://www.w3.org/2000/svg" xmlns:xlink="http://www.w3.org/1999/xlink" width="52px" height="46px" viewBox="0 0 52 46"><title>223B771E-197F-4237-BC5F-5F1A90975E8D</title><g id="Page-1" stroke="none" stroke-width="1" fill="none" fill-rule="evenodd"><g id="Landingpage" transform="translate(-340.000000, -4107.000000)" fill="#020D26"><g id="Key-features" transform="translate(273.000000, 3709.000000)"><g id="Group-12" transform="translate(0.000000, 358.000000)"><g id="Group-11-Copy-5" transform="translate(0.000000, 10.000000)"><g id="Page-1" transform="translate(67.000000, 30.000000)"><path d="M20.125,1.0658141e-14 C22.4743925,1.0658141e-14 24.56331,1.1320025 25.875,2.879485 C27.18669,1.13206 29.2756075,1.0658141e-14 31.625,1.0658141e-14 L31.625,1.0658141e-14 L50.3125,1.0658141e-14 C51.10761,1.0658141e-14 51.75,0.64239 51.75,1.4375 L51.75,1.4375 L51.75,38.8125 C51.75,39.60761 51.10761,40.25 50.3125,40.25 L50.3125,40.25 L31.625,40.25 C29.2463975,40.25 27.3125,42.1838975 27.3125,44.5625 C27.3125,45.35761 26.67011,46 25.875,46 C25.07989,46 24.4375,45.35761 24.4375,44.5625 C24.4375,42.1838975 22.5036025,40.25 20.125,40.25 L20.125,40.25 L1.4375,40.25 C0.64239,40.25 1.0658141e-14,39.60761 1.0658141e-14,38.8125 L1.0658141e-14,38.8125 L1.0658141e-14,1.4375 C1.0658141e-14,0.64239 0.64239,1.0658141e-14 1.4375,1.0658141e-14 L1.4375,1.0658141e-14 Z M20.125,2.874885 L2.875,2.874885 L2.875,37.374885 L20.125,37.374885 C21.74443,37.374885 23.233565,37.9229175 24.4375,38.830325 L24.4375,38.830325 L24.4375,7.187385 C24.4375,4.8087825 22.5036025,2.874885 20.125,2.874885 L20.125,2.874885 Z M48.875,2.875 L31.625,2.875 C29.2463975,2.875 27.3125,4.8088975 27.3125,7.1875 L27.3125,7.1875 L27.3125,38.830325 C28.516435,37.922929 30.00557,37.374885 31.625,37.374885 L31.625,37.374885 L48.875,37.374885 L48.875,2.875 Z M20.125,30.1875 C20.92011,30.1875 21.5625,30.82989 21.5625,31.625 C21.5625,32.42011 20.92011,33.0625 20.125,33.0625 L20.125,33.0625 L7.1875,33.0625 C6.39239,33.0625 5.75,32.42011 5.75,31.625 C5.75,30.82989 6.39239,30.1875 7.1875,30.1875 L7.1875,30.1875 Z M44.5625,30.1875 C45.35761,30.1875 46,30.82989 46,31.625 C46,32.42011 45.35761,33.0625 44.5625,33.0625 L44.5625,33.0625 L31.625,33.0625 C30.82989,33.0625 30.1875,32.42011 30.1875,31.625 C30.1875,30.82989 30.82989,30.1875 31.625,30.1875 L31.625,30.1875 Z M20.125,24.4375 C20.92011,24.4375 21.5625,25.07989 21.5625,25.875 C21.5625,26.67011 20.92011,27.3125 20.125,27.3125 L20.125,27.3125 L7.1875,27.3125 C6.39239,27.3125 5.75,26.67011 5.75,25.875 C5.75,25.07989 6.39239,24.4375 7.1875,24.4375 L7.1875,24.4375 Z M44.5625,24.4375 C45.35761,24.4375 46,25.07989 46,25.875 C46,26.67011 45.35761,27.3125 44.5625,27.3125 L44.5625,27.3125 L31.625,27.3125 C30.82989,27.3125 30.1875,26.67011 30.1875,25.875 C30.1875,25.07989 30.82989,24.4375 31.625,24.4375 L31.625,24.4375 Z M20.125,18.6875 C20.92011,18.6875 21.5625,19.32989 21.5625,20.125 C21.5625,20.92011 20.92011,21.5625 20.125,21.5625 L20.125,21.5625 L7.1875,21.5625 C6.39239,21.5625 5.75,20.92011 5.75,20.125 C5.75,19.32989 6.39239,18.6875 7.1875,18.6875 L7.1875,18.6875 Z M44.5625,18.6875 C45.35761,18.6875 46,19.32989 46,20.125 C46,20.92011 45.35761,21.5625 44.5625,21.5625 L44.5625,21.5625 L31.625,21.5625 C30.82989,21.5625 30.1875,20.92011 30.1875,20.125 C30.1875,19.32989 30.82989,18.6875 31.625,18.6875 L31.625,18.6875 Z M20.125,12.9375 C20.92011,12.9375 21.5625,13.57989 21.5625,14.375 C21.5625,15.17011 20.92011,15.8125 20.125,15.8125 L20.125,15.8125 L7.1875,15.8125 C6.39239,15.8125 5.75,15.17011 5.75,14.375 C5.75,13.57989 6.39239,12.9375 7.1875,12.9375 L7.1875,12.9375 Z M44.5625,12.9375 C45.35761,12.9375 46,13.57989 46,14.375 C46,15.17011 45.35761,15.8125 44.5625,15.8125 L44.5625,15.8125 L31.625,15.8125 C30.82989,15.8125 30.1875,15.17011 30.1875,14.375 C30.1875,13.57989 30.82989,12.9375 31.625,12.9375 L31.625,12.9375 Z M20.125,7.1875 C20.92011,7.1875 21.5625,7.82989 21.5625,8.625 C21.5625,9.42011 20.92011,10.0625 20.125,10.0625 L20.125,10.0625 L7.1875,10.0625 C6.39239,10.0625 5.75,9.42011 5.75,8.625 C5.75,7.82989 6.39239,7.1875 7.1875,7.1875 L7.1875,7.1875 Z M44.5625,7.1875 C45.35761,7.1875 46,7.82989 46,8.625 C46,9.42011 45.35761,10.0625 44.5625,10.0625 L44.5625,10.0625 L31.625,10.0625 C30.82989,10.0625 30.1875,9.42011 30.1875,8.625 C30.1875,7.82989 30.82989,7.1875 31.625,7.1875 L31.625,7.1875 Z" id="help-articles"></path></g></g></g></g></g></g></svg>