<svg xmlns="http://www.w3.org/2000/svg" xmlns:xlink="http://www.w3.org/1999/xlink" id="Layer_1" x="0px" y="0px" width="68px" height="31px" viewBox="0 0 68 31" style="enable-background:new 0 0 68 31;" xml:space="preserve"><style type="text/css">	.st0{fill-rule:evenodd;clip-rule:evenodd;fill:#35348F;}</style><g id="Page-1">	<g id="Landingpage" transform="translate(-792.000000, -1074.000000)">		<g id="Group-2" transform="translate(420.000000, 1062.000000)">			<g id="Group-4" transform="translate(372.000000, 1.000000)">				<path id="liftime-updates" class="st0" d="M57.7,12.9c-5.9-2.2-12.1-0.7-16.4,3.7l-6.5,6.8l-1.1,1.1l-1.1,1.1l-1.1,1.2L30.3,28      l-6.7,6.9c-2.3,2.4-5.4,3.7-8.6,3.7c-1.4,0-2.9-0.3-4.3-0.8c-4.4-1.6-7.3-5.6-7.5-10.2v-0.7v-0.7c0.2-4.7,3.1-8.6,7.5-10.3      c0.2-0.1,0.4-0.1,0.6-0.2c0.1,0,0.2-0.1,0.3-0.1c0.2-0.1,0.4-0.1,0.5-0.1c0.1-0.1,0.3-0.1,0.5-0.1c0.1,0,0.3-0.1,0.5-0.1      s0.4-0.1,0.5-0.1s0.3,0,0.4-0.1c0.3,0,0.6-0.1,0.9-0.1H15c0.3,0,0.7,0,1.1,0.1h0.2c0.3,0.1,0.7,0.1,1,0.1h0.1      c2.3,0.5,4.4,1.6,6.2,3.4l6.7,7l1.1-1.1l1.1-1.1L26,16.6c-1.5-1.5-3.2-2.7-5.1-3.5c-1.8-0.8-3.8-1.2-5.9-1.2      c-1.8,0-3.7,0.3-5.5,1C4,15,0.3,20,0,25.9v0.9v0.9c0.3,5.9,4,10.9,9.6,13.1c5.8,2.2,12.1,0.7,16.4-3.6l6.5-6.8l1.1-1.1l1.1-1.1      l1.1-1.1l1.1-1.1l6.7-7.1c3.4-3.5,8.3-4.6,12.9-2.9c4.4,1.6,7.3,5.6,7.5,10.2v0.7v0.7c-0.3,4.6-3.1,8.6-7.5,10.2      c-4.6,1.8-9.6,0.6-12.9-2.9L37,28l-1.1,1.1l-1.1,1.1l6.5,6.8c1.5,1.5,3.2,2.7,5.1,3.5c1.8,0.8,3.8,1.2,5.9,1.2      c1.8,0,3.6-0.3,5.5-1c5.7-2.1,9.3-7.1,9.6-13.1v-0.9v-0.9C67.1,20,63.4,15,57.7,12.9z"></path>			</g>		</g>	</g></g></svg>