<svg xmlns="http://www.w3.org/2000/svg" xmlns:xlink="http://www.w3.org/1999/xlink" width="50px" height="50px" viewBox="0 0 50 50"><title>371637C1-AACF-4C65-8E68-D50446867E24</title><g id="Page-1" stroke="none" stroke-width="1" fill="none" fill-rule="evenodd"><g id="Landingpage" transform="translate(-557.000000, -4107.000000)" fill="#020D26"><g id="Key-features" transform="translate(273.000000, 3709.000000)"><g id="Group-12" transform="translate(0.000000, 358.000000)"><g id="Group-11-Copy-4" transform="translate(216.000000, 0.000000)"><g id="Page-1" transform="translate(68.000000, 40.000000)"><path d="M24.0127761,1.79634097 C29.5622206,1.79634097 34.6727206,3.69306319 38.7438872,6.86578542 L38.7438872,6.86578542 L38.6679317,7.04807431 C38.4769594,7.51029653 38.3944983,7.99424653 38.4205372,8.47601875 L38.4205372,8.47601875 L37.5134261,9.38312986 C33.837315,6.35574097 29.1344261,4.53718542 24.0128706,4.53718542 C12.2834261,4.53718542 2.73898333,14.0816299 2.73898333,25.8110743 C2.73898333,37.5405188 12.2834261,47.0849632 24.0128706,47.0849632 C35.742315,47.0849632 45.2867594,37.5405188 45.2867594,25.8110743 C45.2867594,20.7788521 43.5267594,16.1519076 40.5949261,12.5060743 L40.5949261,12.5060743 L41.5237594,11.577241 C41.5823539,11.5794076 41.6995428,11.5815799 41.6995428,11.5815799 C42.1270428,11.5815799 42.5502317,11.4969465 42.9538761,11.3298465 L42.9538761,11.3298465 L43.108115,11.2646743 C46.1918928,15.3035632 48.0300039,20.3447299 48.0300039,25.8091188 C48.0300039,39.051341 37.2572206,49.8241188 24.0149983,49.8241188 C10.7727761,49.8241188 -4.26325641e-14,39.051341 -4.26325641e-14,25.8091188 C-4.26325641e-14,12.5668965 10.7727761,1.79416875 24.0127761,1.79634097 Z M24.0149872,9.90840208 C27.6566539,9.90840208 31.0115983,11.1388465 33.6938761,13.2048465 L33.6938761,13.2048465 L31.736265,15.1626243 C29.5642094,13.5849576 26.8970983,12.6496243 24.0151539,12.6496243 C16.7601539,12.6496243 10.8551539,18.5529576 10.8551539,25.8096243 C10.8551539,33.066291 16.7579317,38.971291 24.0168206,38.971291 C31.2718206,38.971291 37.1768206,33.0679576 37.1768206,25.811291 C37.1768206,23.0184576 36.3000983,20.427291 34.8092094,18.2940688 L34.8092094,18.2940688 L36.7732094,16.3300688 C38.7480428,18.977291 39.917765,22.2608465 39.917765,25.8111799 C39.917765,34.5806243 32.7822094,41.7139576 24.0149872,41.7139576 C15.2455428,41.7139576 8.11220944,34.5784021 8.11220944,25.8111799 C8.11220944,17.0417354 15.247765,9.90840208 24.0149872,9.90840208 Z M24.0176539,18.406791 C25.3089317,18.406791 26.5220428,18.738791 27.5788761,19.3204021 L27.5788761,19.3204021 L22.643765,24.2595132 C22.2292983,24.6740132 22.0014317,25.2252354 22.0014317,25.8111799 C22.0014317,26.3971243 22.2292706,26.9461854 22.643765,27.3606799 C23.0560983,27.7751465 23.6073206,28.0030132 24.193265,28.0030132 C24.7770428,28.0030132 25.3282706,27.7751743 25.742765,27.3606799 L25.742765,27.3606799 L30.6234317,22.4800132 C31.1290761,23.4826243 31.4198761,24.6111243 31.4198761,25.8090132 C31.4198761,29.8974576 28.1060983,33.2112354 24.0176539,33.2112354 C19.9292094,33.2112354 16.6154317,29.8974576 16.6154317,25.8090132 C16.6154317,21.7205688 19.9290983,18.406791 24.0176539,18.406791 Z M48.1277928,0.320652083 C48.557515,-0.106864583 49.2519428,-0.106903472 49.6794594,0.320652083 C50.1069761,0.748207639 50.1069761,1.44263542 49.6794594,1.87015208 L49.6794594,1.87015208 L48.143015,3.40659653 L48.4359817,3.69956319 C49.8422594,5.10578542 49.3669817,7.49078542 47.5288706,8.25034097 L47.5288706,8.25034097 L42.5353706,10.3141188 C42.0535928,10.5116021 41.5740039,10.5246243 41.1421483,10.4074354 L41.1421483,10.4074354 L24.9660372,26.5835465 C24.7533706,26.798391 24.471265,26.9047299 24.191315,26.9047299 C23.9113817,26.9047299 23.6314372,26.798391 23.4165928,26.5835465 C22.9890761,26.155991 22.9890761,25.4615632 23.4165928,25.0340465 L23.4165928,25.0340465 L39.5904817,8.85793542 C39.4732928,8.42610208 39.4841428,7.94648542 39.6837983,7.46471319 L39.6837983,7.46471319 L41.7475761,2.47121319 C42.5071317,0.633102083 44.8921317,0.157879861 46.2983539,1.56410208 L46.2983539,1.56410208 L46.5913206,1.85706875 Z" id="niche-design"></path></g></g></g></g></g></g></svg>