<svg xmlns="http://www.w3.org/2000/svg" xmlns:xlink="http://www.w3.org/1999/xlink" id="Layer_1" x="0px" y="0px" viewBox="0 0 83.5 83.5" style="enable-background:new 0 0 83.5 83.5;" xml:space="preserve"> <style type="text/css"> .st0{fill-rule:evenodd;clip-rule:evenodd;fill:#020D26;} </style> <title>371637C1-AACF-4C65-8E68-D50446867E24</title> <g id="Page-1"> <g id="Landingpage" transform="translate(-755.000000, -4127.000000)"> <g id="Key-features" transform="translate(273.000000, 3709.000000)"> <g id="Group-12" transform="translate(0.000000, 358.000000)"> <g id="Group-11-Copy-9" transform="translate(428.000000, 0.000000)"> <path id="no-code" class="st0" d="M63.8,107.3v-3.1l-5.5-1.9l5.5-1.9v-3.1l-9.2,3.3v3.2L63.8,107.3z M76.5,108.7v-7l5.9,7h4.3 V93.3h-5.1v7l-5.9-7h-4.3v15.4H76.5z M97.2,109.1c1.7,0,3.1-0.3,4.5-1s2.4-1.6,3.1-2.9c0.7-1.2,1.1-2.6,1.1-4.1 s-0.4-2.9-1.1-4.1c-0.7-1.2-1.8-2.2-3.1-2.9c-1.3-0.7-2.8-1-4.5-1s-3.1,0.3-4.5,1c-1.3,0.7-2.4,1.6-3.1,2.9 c-0.7,1.2-1.1,2.6-1.1,4.1s0.4,2.9,1.1,4.1c0.7,1.2,1.8,2.2,3.1,2.9S95.5,109.1,97.2,109.1z M97.2,104.9 c-0.6,0-1.2-0.2-1.7-0.5s-0.9-0.8-1.2-1.3c-0.3-0.6-0.5-1.3-0.5-2c0-0.8,0.2-1.5,0.5-2c0.3-0.6,0.7-1,1.2-1.3 c0.5-0.3,1.1-0.5,1.7-0.5s1.2,0.2,1.7,0.5c0.5,0.3,0.9,0.8,1.2,1.3c0.3,0.6,0.5,1.3,0.5,2c0,0.8-0.2,1.5-0.5,2 c-0.3,0.6-0.7,1-1.2,1.3S97.8,104.9,97.2,104.9z M111.9,102.8l1-9.5H107l1,9.5H111.9z M109.9,108.9c0.9,0,1.5-0.3,2.1-0.8 c0.5-0.5,0.8-1.1,0.8-1.9c0-0.7-0.3-1.4-0.8-1.9s-1.2-0.7-2.1-0.7c-0.9,0-1.5,0.2-2.1,0.7s-0.8,1.1-0.8,1.9 c0,0.7,0.3,1.4,0.8,1.9C108.4,108.7,109.1,108.9,109.9,108.9z M121.7,110.5l5.9-17H124l-5.9,17H121.7z M127.7,107.3l9.2-3.3 v-3.2l-9.2-3.3v3.1l5.5,1.9l-5.5,1.9V107.3z"></path> </g> </g> </g> </g> </g> </svg>