<svg xmlns="http://www.w3.org/2000/svg" xmlns:xlink="http://www.w3.org/1999/xlink" width="50px" height="50px" viewBox="0 0 50 50"><title>C8932F07-351D-41B7-AE78-EFD3BCEF3F74</title><g id="Page-1" stroke="none" stroke-width="1" fill="none" fill-rule="evenodd"><g id="Landingpage" transform="translate(-1199.000000, -4106.000000)" fill="#020D26"><g id="Key-features" transform="translate(273.000000, 3709.000000)"><g id="Group-12" transform="translate(0.000000, 358.000000)"><g id="Group-11-Copy-11" transform="translate(858.000000, 0.000000)"><g id="Page-1" transform="translate(68.000000, 39.000000)"><path d="M20.7598734,20.1914937 C21.1381013,19.8107595 21.7092152,19.6846709 22.2778481,19.8107595 L22.2778481,19.8107595 L48.7342658,27.2795949 C49.3671835,27.4675063 49.8097215,28.0385823 49.8789494,28.6714937 C49.9407215,29.3044051 49.4981899,29.9372911 48.8652785,30.1894684 L48.8652785,30.1894684 L35.7000886,35.1266835 L30.5724937,48.4823797 C30.3821139,49.1153165 29.7492025,49.4960506 29.1162911,49.4960506 L29.1162911,49.4960506 L29.0520127,49.4960506 C28.3547975,49.4960506 27.7861772,48.9892152 27.5958101,48.3563038 L27.5958101,48.3563038 L20.3173291,21.7094684 C20.1912405,21.2051646 20.3791392,20.5722278 20.7598734,20.1914937 Z M12.1512658,27.5316456 C12.7841772,26.8987342 13.7978481,26.8987342 14.4307595,27.5316456 C15.0636709,28.1002532 15.0636709,29.1139241 14.4307595,29.7468354 L14.4307595,29.7468354 L11.0758228,33.1017722 C10.7593671,33.4182278 10.3786076,33.5443165 9.93607595,33.5443165 C9.4935443,33.5443165 9.11278481,33.4182278 8.79632911,33.1017722 C8.16341772,32.5331646 8.16341772,31.5194937 8.79632911,30.8865823 L8.79632911,30.8865823 Z M12.5322785,19.1132911 C13.4173418,19.1132911 14.114557,19.8105063 14.114557,20.6955696 C14.114557,21.5831013 13.4173418,22.2778481 12.5322785,22.2778481 L12.5322785,22.2778481 L2.08924051,22.2778481 C1.20417722,22.2778481 0.506962658,21.5806329 0.506962658,20.6955696 C0.506962658,19.8105063 1.20417722,19.1132911 2.08924051,19.1132911 L2.08924051,19.1132911 Z M31.4983388,8.24880382 C32.0800898,7.72320266 33.0130529,7.75824274 33.6087342,8.35392405 C34.2416456,8.92253165 34.2416456,9.93620253 33.6087342,10.5691139 L33.6087342,10.5691139 L30.2537975,13.9240506 C29.9373418,14.2405063 29.6208987,14.3665949 29.1783544,14.3665949 C28.7358228,14.3665949 28.3550633,14.2405063 28.0386076,13.9240506 C27.4056962,13.355443 27.4056962,12.3417722 28.0386076,11.7088608 L28.0386076,11.7088608 Z M8.92531646,8.29240506 C9.49392405,7.65949367 10.5075949,7.65949367 11.1405063,8.29240506 L11.1405063,8.29240506 L14.5597468,11.6473418 C15.1926582,12.2159494 15.1926582,13.2296203 14.5597468,13.8625316 C14.2432911,14.1789873 13.8625316,14.3050759 13.42,14.3050759 C12.9774684,14.3050759 12.5967089,14.1789873 12.2802532,13.8625316 L12.2802532,13.8625316 L8.82019622,10.4028005 C8.29459507,9.82104945 8.32963515,8.88808637 8.92531646,8.29240506 Z M21.393038,-8.79296636e-13 C22.2781013,-8.79296636e-13 22.9753165,0.69721519 22.9753165,1.58227848 L22.9753165,1.58227848 L22.9753165,12.0253165 C22.9753165,12.9103797 22.2781013,13.6075949 21.393038,13.6075949 C20.5055063,13.6075949 19.8107595,12.9103797 19.8107595,12.0253165 L19.8107595,12.0253165 L19.8107595,1.58227848 C19.8107595,0.69721519 20.5079747,-8.79296636e-13 21.393038,-8.79296636e-13 Z" id="on-click-demo"></path></g></g></g></g></g></g></svg>