<svg xmlns="http://www.w3.org/2000/svg" xmlns:xlink="http://www.w3.org/1999/xlink" width="39px" height="34px" viewBox="0 0 39 34"><title>9E510554-3D85-447E-8370-979DB221A16E</title><g id="Page-1" stroke="none" stroke-width="1" fill="none" fill-rule="evenodd"><g id="Landingpage" transform="translate(-989.000000, -3899.000000)" fill="#020D26"><g id="Key-features" transform="translate(273.000000, 3709.000000)"><g id="Group-13" transform="translate(0.000000, 138.000000)"><g id="Group-11-Copy-3" transform="translate(643.000000, 0.000000)"><g id="Page-1" transform="translate(73.000000, 52.000000)"><path d="M15.55585,24.138725 C17.6909562,24.138725 19.4855724,25.5578955 20.0849667,27.4982018 L20.144575,27.708045 L38.16245,27.708045 L38.16245,30.088725 L20.144575,30.088725 C19.61324,32.135695 17.7655525,33.658045 15.55415,33.658045 C13.4190028,33.658045 11.62284,32.2388745 11.0233391,30.2985682 L10.963725,30.088725 L0.08797585,30.088725 L0.08797585,27.708045 L10.965425,27.708045 C11.49676,25.661075 13.3445325,24.138725 15.55585,24.138725 Z M29.832875,12.242125 C31.9680222,12.242125 33.764185,13.6597504 34.3636859,15.601442 L34.4233,15.811445 L38.1619825,15.811445 L38.1619825,18.192125 L34.4233,18.192125 C33.891965,20.239095 32.0441925,21.761445 29.832875,21.761445 C27.6977278,21.761445 25.901565,20.3422745 25.3020641,18.4019682 L25.24245,18.192125 L0.08755,18.192125 L0.08755,15.811445 L25.24245,15.811445 C25.773785,13.764475 27.6215575,12.242125 29.832875,12.242125 Z M8.4167,0.341955 C10.5518472,0.341955 12.34801,1.76112551 12.9475109,3.70143181 L13.007125,3.911275 L38.162025,3.911275 L38.162025,6.291955 L13.007125,6.291955 C12.47579,8.338925 10.6280175,9.861275 8.4167,9.861275 C6.28155276,9.861275 4.48538996,8.44210449 3.8858891,6.50179819 L3.826275,6.291955 L0.0875925,6.291955 L0.0875925,3.911275 L3.826275,3.911275 C4.35761,1.864305 6.2053825,0.341955 8.4167,0.341955 Z" id="option-panel"></path></g></g></g></g></g></g></svg>