<svg xmlns="http://www.w3.org/2000/svg" xmlns:xlink="http://www.w3.org/1999/xlink" width="50px" height="47px" viewBox="0 0 50 47"><title>3DBAF7B6-F31C-4D3D-8E1C-27CD51D784B3</title><g id="Page-1" stroke="none" stroke-width="1" fill="none" fill-rule="evenodd"><g id="Landingpage" transform="translate(-985.000000, -4106.000000)" fill="#020D26"><g id="Key-features" transform="translate(273.000000, 3709.000000)"><g id="Group-12" transform="translate(0.000000, 358.000000)"><g id="Group-11-Copy-8" transform="translate(643.000000, 0.000000)"><path d="M94,39.0015646 C80.2131548,39.0015646 69,50.2178484 69,64.0046937 C69,72.6660617 73.3854434,80.5889605 80.7294574,85.1950059 C81.4601039,85.6581138 82.4254334,85.4328181 82.8854121,84.700607 C83.3453908,83.968396 83.1232242,83.0030665 82.3910132,82.5446524 C79.7453533,80.8846611 77.5487202,78.7287064 75.8668252,76.2441955 L77.5064773,75.2976407 C78.2558984,74.8658239 78.5124851,73.9098817 78.0791038,73.1604606 C77.6457225,72.4094749 76.6882158,72.1560173 75.9419238,72.587834 L74.2991426,73.5359534 C73.1053883,71.0655235 72.377871,68.3635396 72.1823018,65.5457788 L73.9236498,65.5457788 C74.7872833,65.5457788 75.4882033,64.8448589 75.4882033,63.9812254 C75.4882033,63.1175918 74.7888479,62.4166719 73.9236498,62.4166719 L72.1901245,62.4166719 C72.3966456,59.5472808 73.1570186,56.8280869 74.3695475,54.3701734 L75.9419238,55.2776144 C76.1875587,55.4199887 76.4566619,55.4872645 76.722636,55.4872645 C77.2639715,55.4872645 77.7880969,55.2072095 78.0791038,54.7049878 C78.5124851,53.9555667 78.2543338,52.9996245 77.5064773,52.5678077 L75.9497465,51.6697541 C77.5189937,49.3808123 79.5122348,47.4016522 81.8168221,45.8496151 L82.6976657,47.3750548 C82.9871081,47.878841 83.512798,48.1573315 84.0541336,48.1573315 C84.3201076,48.1573315 84.5892108,48.0900557 84.8348457,47.9476813 C85.5842669,47.5143 85.8408536,46.5583578 85.4074723,45.8105013 L84.5297578,44.2913199 C86.9422993,43.1272921 89.5989111,42.4013393 92.3994618,42.1979473 L92.3994618,44.1473809 C92.3994618,45.012579 93.0988172,45.7119344 93.9640153,45.7119344 C94.8292133,45.7119344 95.5285687,45.012579 95.5285687,44.1473809 L95.5285687,42.1916891 C98.3932662,42.3903874 101.109331,43.1398085 103.56568,44.339821 L102.716127,45.8089367 C102.284311,46.5583578 102.539333,47.5143 103.288754,47.9461168 C103.534389,48.0884911 103.803492,48.1557669 104.069466,48.1557669 C104.610802,48.1557669 105.134927,47.8772764 105.425934,47.3734902 L106.270793,45.9090682 C108.553476,47.4626698 110.527943,49.4371362 112.083109,51.7182552 L110.618687,52.5646786 C109.869266,52.99806 109.614244,53.9524376 110.04606,54.7018587 C110.337067,55.2056449 110.861193,55.4841354 111.402528,55.4841354 C111.668502,55.4841354 111.937606,55.4168596 112.183241,55.2744853 L113.65705,54.4249327 C114.858627,56.8828462 115.609613,59.5989111 115.81144,62.4636085 L114.09356,62.4636085 C113.229927,62.4636085 112.529007,63.1645284 112.529007,64.028162 C112.529007,64.8917955 113.229927,65.5927154 114.09356,65.5927154 L115.81144,65.5927154 C115.612742,68.372927 114.902434,71.0404906 113.733713,73.4796295 L112.184805,72.5847049 C111.438513,72.1528882 110.477877,72.4110395 110.047625,73.1573315 C109.615808,73.9067526 109.87083,74.8626948 110.620252,75.2945115 L112.173853,76.1910007 C110.457538,78.7459165 108.192065,80.9519369 105.457225,82.6353965 C104.72032,83.089117 104.49346,84.0544465 104.945616,84.788222 C105.241317,85.2669754 105.75449,85.5329495 106.278616,85.5329495 C106.557106,85.5329495 106.841855,85.4578509 107.096877,85.3013956 C114.55041,80.7109957 119,72.7474185 119,64.0015646 C119,50.2162839 107.783716,39 93.9984354,39 L94,39.0015646 Z M105.54484,59.1264159 C106.292697,58.6930346 106.549283,57.738657 106.117467,56.9892359 C105.68565,56.2398148 104.728143,55.9847925 103.980287,56.4166093 L95.4816321,61.323049 C95.0279116,61.0664622 94.511609,60.9084423 93.9530634,60.9084423 C92.2289255,60.9084423 90.8317792,62.3055886 90.8317792,64.028162 C90.8317792,65.7522999 92.2289255,67.1494461 93.9530634,67.1494461 C95.6772013,67.1494461 97.0743476,65.7522999 97.0743476,64.028162 L97.0743476,64.0187746 L105.546405,59.1264159 L105.54484,59.1264159 Z" id="perrformance"></path></g></g></g></g></g></svg>