<svg xmlns="http://www.w3.org/2000/svg" xmlns:xlink="http://www.w3.org/1999/xlink" width="66px" height="135px" viewBox="0 0 66 135"><title>SALE</title><defs><polygon id="path-1" points="5.86197757e-13 9.17712772e-14 66 6.68224225e-13 66 135 33.661847 118.539568 1.99307237e-12 135"></polygon><polygon id="path-3" points="0 -10 66 -10 66 69 33.0856306 58.65 0 69"></polygon></defs><g id="Page-1" stroke="none" stroke-width="1" fill="none" fill-rule="evenodd"><g id="Landingpage" transform="translate(-273.000000, 0.000000)"><g id="SALE" transform="translate(306.000000, 67.500000) rotate(-360.000000) translate(-306.000000, -67.500000) translate(273.000000, 0.000000)"><g id="Group-4" transform="translate(0.000000, -0.000000)"><mask id="mask-2" fill="white"><use xlink:href="#path-1"></use></mask><g id="Rectangle-28"><use fill="#F20487" xlink:href="#path-1"></use><use fill="#FFFFFF" xlink:href="#path-1"></use><use fill="#FF5100" xlink:href="#path-1"></use><use fill="#FF5100" xlink:href="#path-1"></use></g><g id="Rectangle-11" mask="url(#mask-2)"><use fill="#000000" xlink:href="#path-3"></use><use fill="#0A303A" xlink:href="#path-3"></use><use fill="#000000" xlink:href="#path-3"></use></g></g><text id="New-Intro-price!" font-family="Montserrat-ExtraBoldItalic, Montserrat" font-size="11" font-style="italic" font-weight="700" fill="#FFFFFF"><tspan x="8.67416667" y="84">NEW </tspan><tspan x="4.13605556" y="95">INTRO</tspan><tspan x="3" y="106">PRICE!</tspan></text><path d="M54.5416222,17.4977485 C54.8207525,17.9602489 54.6934908,18.5545239 54.2626602,18.8647103 L54.1921266,18.9112656 L47.590812,22.8948056 C47.9657704,23.1631481 48.3132775,23.4698796 48.6333333,23.815 C50.072,25.3663333 50.7913333,27.598 50.7913333,30.51 C50.7913333,32.5726667 50.4056667,34.3406667 49.6343333,35.814 C48.863,37.2873333 47.7753333,38.4053333 46.3713333,39.168 C44.9673333,39.9306667 43.3466667,40.312 41.5093333,40.312 C40.5386667,40.312 39.6113333,40.2036667 38.7273333,39.987 C37.8433333,39.7703333 37.0893333,39.4626667 36.4653333,39.064 L38.0253333,35.97 C38.9093333,36.5766667 40.0446667,36.88 41.4313333,36.88 C42.974,36.88 44.196,36.425 45.0973333,35.515 C45.9986667,34.605 46.484,33.292 46.5533333,31.576 C45.4613333,32.668 43.9533333,33.214 42.0293333,33.214 C40.868,33.214 39.8106667,32.98 38.8573333,32.512 C37.904,32.044 37.15,31.381 36.5953333,30.523 C36.4403472,30.2832558 36.3070143,30.0330233 36.1953347,29.7723025 L32.4295056,32.0459806 C32.4657558,32.0966116 32.5009206,32.1479514 32.535,32.2 C33.0116667,32.928 33.25,33.7686667 33.25,34.722 C33.25,35.8486667 32.9293333,36.8323333 32.288,37.673 C31.6466667,38.5136667 30.7453333,39.1636667 29.584,39.623 C28.4226667,40.0823333 27.0793333,40.312 25.554,40.312 C24.0286667,40.312 22.6896667,40.0823333 21.537,39.623 C21.2058859,39.4910523 20.8962264,39.3433711 20.6080216,39.1799566 L14.5243407,42.8517471 C14.0374982,43.1455685 13.404645,42.989094 13.1108236,42.5022515 C12.8316933,42.0397511 12.9589551,41.4454761 13.3897857,41.1352897 L13.4603193,41.0887344 L18.9425128,37.7809628 C18.9141892,37.7453316 18.8863516,37.709344 18.859,37.673 C18.2263333,36.8323333 17.91,35.8486667 17.91,34.722 C17.91,33.7686667 18.1483333,32.928 18.625,32.2 C19.1016667,31.472 19.782,30.8826667 20.666,30.432 C19.99,30.016 19.47,29.4916667 19.106,28.859 C18.742,28.2263333 18.56,27.5026667 18.56,26.688 C18.56,25.6306667 18.8546667,24.712 19.444,23.932 C20.0333333,23.152 20.8566667,22.5496667 21.914,22.125 C22.9713333,21.7003333 24.1846667,21.488 25.554,21.488 C26.9406667,21.488 28.167,21.7003333 29.233,22.125 C30.299,22.5496667 31.1266667,23.152 31.716,23.932 C32.3053333,24.712 32.6,25.6306667 32.6,26.688 C32.6,27.5026667 32.418,28.2263333 32.054,28.859 C31.69,29.4916667 31.1613333,30.016 30.468,30.432 C30.5861429,30.4910714 30.7006377,30.5525253 30.8114845,30.6163616 L35.7638336,27.6286404 C35.7635001,27.6011744 35.7633333,27.5736276 35.7633333,27.546 C35.7633333,26.3326667 36.0666667,25.2666667 36.6733333,24.348 C37.28,23.4293333 38.1076667,22.723 39.1563333,22.229 C40.205,21.735 41.3706667,21.488 42.6533333,21.488 C43.6387898,21.488 44.5412787,21.6040249 45.3608001,21.8360746 L53.1281052,17.1482529 C53.6149477,16.8544315 54.2478008,17.010906 54.5416222,17.4977485 Z M28.950939,34.1445647 L24.1530084,37.0415059 C24.5655321,37.1591686 25.0325293,37.218 25.554,37.218 C26.6113333,37.218 27.4476667,36.9796667 28.063,36.503 C28.6783333,36.0263333 28.986,35.3893333 28.986,34.592 C28.986,34.4365999 28.974313,34.2874548 28.950939,34.1445647 Z M25.554,31.992 C24.514,31.992 23.6906667,32.226 23.084,32.694 C22.4773333,33.162 22.174,33.7946667 22.174,34.592 C22.174,35.0023602 22.2509646,35.3687407 22.4048937,35.6911414 L27.7311244,32.4762298 C27.157859,32.1534099 26.4321509,31.992 25.554,31.992 Z M17.1068465,20.8130405 L16.8803332,21.9559033 L17.1576833,21.9898481 C17.7913201,22.0821909 18.3303618,22.2665012 18.7748085,22.5427788 L18.1467487,23.8194905 L17.9565868,23.7026617 C17.5665972,23.482452 17.1186135,23.3429299 16.6126356,23.2840953 L16.2522734,25.0962021 L16.4837289,25.167039 C16.782452,25.2625864 17.0416381,25.3625269 17.2612875,25.4668603 C17.5358491,25.5972771 17.7640785,25.7808902 17.9459755,26.0176996 C18.1278726,26.254509 18.2188212,26.5582428 18.2188212,26.9289011 C18.2188212,27.6084411 17.9648517,28.1644284 17.4569126,28.596863 C16.9489736,29.0292976 16.2625695,29.2832671 15.3977003,29.3587716 L15.171187,30.4913383 L14.1415808,30.4913383 L14.3680942,29.3587716 L14.0837169,29.3243827 C13.709764,29.2711178 13.3566777,29.1882002 13.0244581,29.0756299 C12.6091836,28.934917 12.2676976,28.765032 12,28.5659748 L12.6898361,27.2892632 L12.9012271,27.4317993 C13.1180879,27.5675786 13.3513581,27.6830876 13.6010376,27.7783261 C13.9339436,27.9053109 14.2788616,27.9859634 14.6357918,28.0202836 L14.9858579,26.2802492 L14.7504899,26.2054998 C14.4468247,26.1050102 14.1837947,26.0012259 13.9613997,25.8941469 C13.6834061,25.7602981 13.4500287,25.5681049 13.2612675,25.3175674 C13.0725064,25.0670299 12.9781258,24.749568 12.9781258,24.3651817 C12.9781258,23.912155 13.0948145,23.5106086 13.3281919,23.1605425 C13.5615693,22.8104764 13.8961913,22.5307668 14.3320579,22.3214135 C14.7679245,22.1120603 15.2741476,21.9867915 15.850727,21.9456073 L16.0772404,20.8130405 L17.1068465,20.8130405 Z M44.3384475,24.8575729 L39.8776877,27.5506341 C39.9223023,28.2837164 40.2018508,28.8758384 40.7163333,29.327 C41.2796667,29.821 42.0293333,30.068 42.9653333,30.068 C43.884,30.068 44.6336667,29.8123333 45.2143333,29.301 C45.795,28.7896667 46.0853333,28.1353333 46.0853333,27.338 C46.0853333,26.5406667 45.8036667,25.8906667 45.2403333,25.388 C44.9837534,25.1590517 44.6831248,24.9822427 44.3384475,24.8575729 Z M25.554,24.582 C24.7046667,24.582 24.0243333,24.7856667 23.513,25.193 C23.0016667,25.6003333 22.746,26.1593333 22.746,26.87 C22.746,27.5633333 22.9973333,28.1093333 23.5,28.508 C24.0026667,28.9066667 24.6873333,29.106 25.554,29.106 C26.4206667,29.106 27.114,28.9066667 27.634,28.508 C28.154,28.1093333 28.414,27.5633333 28.414,26.87 C28.414,26.1593333 28.154,25.6003333 27.634,25.193 C27.114,24.7856667 26.4206667,24.582 25.554,24.582 Z M15.9536876,26.578835 L15.675694,27.9893954 C15.9571197,27.9344831 16.1733369,27.8366705 16.3243459,27.6959576 C16.4753548,27.5552448 16.5508592,27.3887918 16.5508592,27.1965987 C16.5508592,26.9357651 16.351802,26.7298439 15.9536876,26.578835 Z M15.5727334,23.3252795 L15.4073786,23.3637868 C15.1970644,23.422543 15.0273853,23.5109518 14.8983413,23.6290133 C14.7370364,23.7765902 14.6529519,23.9499072 14.6460878,24.1489644 C14.6460878,24.2999733 14.6992841,24.4269581 14.8056768,24.5299187 C14.9120694,24.6328793 15.0682263,24.7255439 15.2741476,24.8079124 L15.5727334,23.3252795 Z" id="Combined-Shape" fill="#FFFFFF" fill-rule="nonzero"></path></g></g></g></svg>