<svg xmlns="http://www.w3.org/2000/svg" xmlns:xlink="http://www.w3.org/1999/xlink" width="48px" height="50px" viewBox="0 0 48 50"><title>A0D40DB3-E399-465B-917C-2272B8E38A39</title><g id="Page-1" stroke="none" stroke-width="1" fill="none" fill-rule="evenodd"><g id="Landingpage" transform="translate(-342.000000, -3886.000000)" fill="#020D26"><g id="Key-features" transform="translate(273.000000, 3709.000000)"><g id="Group-13" transform="translate(0.000000, 138.000000)"><g id="Group-11"><path d="M92.6482808,39.00015 C79.6072191,39.00015 69,49.8301175 69,63.1425776 C69,75.4530406 78.0804964,85.6230091 89.7594101,87.0840052 C90.2568562,88.2109519 91.3589178,89 92.6484767,89 C94.397228,89 95.8130587,87.5527538 95.8130587,85.7676092 C95.8130587,83.9824651 94.3934075,82.5371694 92.6484767,82.5371694 C91.5177126,82.5371694 90.5323716,83.1485176 89.9717896,84.0567148 C79.8313539,82.7071189 71.9675334,73.8557454 71.9675334,63.1427776 C71.9675334,51.5023125 81.2449315,42.0293409 92.6485747,42.0293409 C103.552617,42.0293409 112.512622,50.6893149 113.277698,61.6267821 L111.649487,61.6267821 C111.525121,61.6267821 111.416066,61.669752 111.301265,61.6970919 C110.960699,61.009594 110.402032,60.4568456 109.699847,60.1580465 C108.303119,51.8300715 101.199279,45.4645906 92.648751,45.4645906 C84.0982228,45.4645906 76.9940891,51.8280715 75.5976546,60.1580465 C74.4535188,60.6463251 73.6498955,61.7947416 73.6498955,63.1424376 C73.6498955,64.4842335 74.4534698,65.6365801 75.5976546,66.1228786 C76.9943829,74.4508536 84.0982228,80.8163346 92.648751,80.8163346 C101.199279,80.8163346 108.303413,74.4513536 109.698378,66.1228786 C110.398652,65.8260045 110.959234,65.2713312 111.299796,64.5857832 C111.412681,64.6131282 111.523652,64.658048 111.648018,64.658048 L114.8126,64.658048 C115.631505,64.658048 116.297297,63.9783501 116.297297,63.1424526 C116.297297,49.8299925 105.690077,39 92.6490155,39 L92.6482808,39.00015 Z M92.6482808,48.4961215 C100.557654,48.4961215 106.994183,55.0666018 106.994183,63.1425776 C106.994183,71.2165534 100.557654,77.7870336 92.6482808,77.7870336 C84.7369482,77.7870336 78.3004189,71.2165534 78.3004189,63.1425776 C78.3004189,55.0666018 84.7369482,48.4961215 92.6482808,48.4961215 Z M101.511811,66.4673389 C96.9968974,70.8830073 89.6533234,70.8830073 85.1368379,66.4673389 C84.5385786,65.8802564 83.5639285,65.8802564 82.9636914,66.4673389 C82.3634542,67.0544215 82.3634542,68.005777 82.9636914,68.5928595 C85.8202442,71.386809 89.5720814,72.7837838 93.3243243,72.7837838 C97.076263,72.7837838 100.828303,71.386809 103.684957,68.5928595 C104.285194,68.005777 104.285194,67.0544215 103.684957,66.4673389 C103.082742,65.8802564 102.112048,65.8802564 101.511811,66.4673389 Z" id="Fill-2"></path></g></g></g></g></g></svg>