<svg xmlns="http://www.w3.org/2000/svg" xmlns:xlink="http://www.w3.org/1999/xlink" width="48px" height="38px" viewBox="0 0 48 38"><title>5ED38025-F5B6-4241-9FFD-8A00B1035FE3</title><g id="Page-1" stroke="none" stroke-width="1" fill="none" fill-rule="evenodd"><g id="Landingpage" transform="translate(-1413.000000, -4114.000000)" fill="#020D26"><g id="Key-features" transform="translate(273.000000, 3709.000000)"><g id="Group-12" transform="translate(0.000000, 358.000000)"><g id="Group-11-Copy-10" transform="translate(1071.000000, 0.000000)"><g id="Page-1" transform="translate(69.000000, 47.000000)"><path d="M37.1107556,8 L48,38 L43.3333333,38 L40.2222222,28.9916318 L27.7777778,28.9916318 L24.6666667,38 L20,38 L30.8885333,8 L37.1107556,8 Z M15.3374863,1.38777878e-17 L15.3374863,5.95801562 L26,5.95801562 L26,10.4612237 L15.2638647,10.4612237 C16.7976484,16.4928166 19.5009641,19.1081226 22.5685315,22.0857355 L22.5685315,22.0857355 L20.9611262,26.5129254 C17.967531,23.6061001 15.3381875,20.4105449 13.8044038,16.487586 L13.804,16.488 L13.6966399,16.8232133 C12.0732195,21.7350643 8.55422459,26.1740015 1.9866603,29.7570332 L1.53413427,30 L0.00035057913,25.4967919 C7.37583431,21.7914264 9.20270216,18.0156221 10.7364858,12.0576065 C10.8816466,11.40378 10.9555978,10.5320113 10.9555978,10.5320113 L10.9555978,10.5320113 L-1.38777878e-17,10.5320113 L-1.38777878e-17,6.02880324 L10.7361353,6.02880324 L10.7361353,1.38777878e-17 L15.3374863,1.38777878e-17 Z M33.5,13 L29,24.9271381 L38,25 L33.5,13 Z" id="translation"></path></g></g></g></g></g></g></svg>