<svg xmlns="http://www.w3.org/2000/svg" xmlns:xlink="http://www.w3.org/1999/xlink" width="60px" height="42px" viewBox="0 0 60 42"><title>1332A8F0-B26E-492F-8227-658A0159FA33</title><g id="Page-1" stroke="none" stroke-width="1" fill="none" fill-rule="evenodd"><g id="Landingpage" transform="translate(-1193.000000, -3889.000000)" fill="#020D26" fill-rule="nonzero"><g id="Key-features" transform="translate(273.000000, 3709.000000)"><g id="Group-13" transform="translate(0.000000, 138.000000)"><g id="Group-11-Copy-7" transform="translate(858.000000, 0.000000)"><g id="tutorials" transform="translate(62.000000, 42.000000)"><path d="M53.9999617,1.77635684e-14 C57.3136914,1.77635684e-14 60,2.69118038 60,5.9952583 L60,36.0047417 C60,39.3158314 57.3053629,42 53.9999617,42 L6.0000383,42 C2.68630865,42 0,39.3088196 0,36.0047417 L0,5.9952583 C0,2.68416857 2.69463714,1.77635684e-14 6.0000383,1.77635684e-14 L53.9999617,1.77635684e-14 Z M53.9999617,2.5 L6.0000383,2.5 C4.13577609,2.5 2.60516281,3.96589583 2.50519332,5.80384346 L2.5,5.9952583 L2.5,36.0047417 C2.5,37.8663422 3.96656205,39.3949731 5.80822784,39.4948134 L6.0000383,39.5 L53.9999617,39.5 C55.8642239,39.5 57.3948372,38.0341042 57.4948067,36.1961565 L57.5,36.0047417 L57.5,5.9952583 C57.5,4.13365778 56.033438,2.6050269 54.1917722,2.50518662 L53.9999617,2.5 Z M24.7157073,11.219624 C25.2095711,10.926792 25.7526237,10.926792 26.2956762,11.219624 L26.2956762,11.219624 L41.1858903,19.5955215 C41.7289429,19.9618058 42,20.4749944 42,21.012016 C42,21.5500143 41.7038793,22.0870358 41.1608267,22.3798678 L41.1608267,22.3798678 L26.2705879,30.7558117 C26.0979332,30.8779053 25.8510013,31 25.5548806,31 C25.2587599,31 24.9626392,30.8779053 24.7157073,30.7558117 C24.2961207,30.4620029 24,29.9249814 24,29.3879598 L24,29.3879598 L24,12.5874759 C24,12.0494776 24.2218436,11.5124561 24.7157073,11.219624 Z"></path></g></g></g></g></g></g></svg>